<svg version="1.1" viewBox="0.0 0.0 989.0 399.0" fill="none" stroke="none" stroke-linecap="square" stroke-miterlimit="10" xmlns:xlink="http://www.w3.org/1999/xlink" xmlns="http://www.w3.org/2000/svg"><clipPath id="p.0"><path d="m0 0l989.0 0l0 399.0l-989.0 0l0 -399.0z" clip-rule="nonzero"/></clipPath><g clip-path="url(#p.0)"><defs><radialGradient id="p.1" gradientUnits="userSpaceOnUse" gradientTransform="matrix(23.091697663538124 0.0 0.0 23.091697663538124 0.0 0.0)" spreadMethod="pad" cx="21.414623004562255" cy="8.639468734904288" fx="21.414623004562255" fy="8.639468734904288" r="23.091697692871094"><stop offset="0.0" stop-color="#ffffff"/><stop offset="1.0" stop-color="#f3f3f3"/></radialGradient></defs><path fill="url(#p.1)" d="m0 0l989.0 0l0 399.0l-989.0 0z" fill-rule="evenodd"/><path fill="#000000" fill-opacity="0.0" d="m18.897638 21.461943l644.4409 0l0 109.16536l-644.4409 0z" fill-rule="evenodd"/><path fill="#000000" d="m44.647636 55.728817q0 -1.453125 -0.6875 -2.453125q-0.671875 -1.015625 -2.140625 -1.78125q-1.453125 -0.78125 -4.40625 -1.59375q-2.953125 -0.8125 -4.4375 -1.640625q-1.4687481 -0.828125 -2.156248 -1.921875q-0.6875 -1.09375 -0.6875 -2.65625q0 -2.484375 2.093748 -4.015625q2.09375 -1.546875 5.453125 -1.546875q2.1875 0 3.921875 0.859375q1.75 0.84375 2.703125 2.390625q0.953125 1.53125 0.953125 3.46875l-0.84375 0q0 -2.546875 -1.875 -4.203125q-1.875 -1.671875 -4.859375 -1.671875q-3.0 0 -4.859375 1.34375q-1.8437481 1.328125 -1.8437481 3.34375q0 2.046875 1.6093731 3.296875q1.609375 1.25 5.3125 2.21875q3.703125 0.953125 5.421875 2.21875q2.1875 1.609375 2.1875 4.3125q0 1.71875 -0.96875 3.046875q-0.96875 1.3125 -2.75 2.03125q-1.78125 0.71875 -4.0 0.71875q-2.46875 0 -4.4375 -0.8125q-1.9687481 -0.828125 -2.968748 -2.34375q-0.984375 -1.515625 -0.984375 -3.578125l0.84375 0q0 2.796875 2.093748 4.34375q2.09375 1.546875 5.453125 1.546875q2.984375 0 4.921875 -1.359375q1.9375 -1.375 1.9375 -3.5625zm17.78125 -2.84375q0 3.953125 -1.703125 6.28125q-1.703125 2.328125 -4.640625 2.328125q-1.921875 0 -3.421875 -0.78125q-1.5 -0.78125 -2.34375 -2.15625l0 9.125004l-0.84375 0l0 -23.406254l0.84375 0l0 3.015625q0.875 -1.609375 2.359375 -2.46875q1.484375 -0.859375 3.375 -0.859375q2.96875 0 4.671875 2.28125q1.703125 2.265625 1.703125 6.375l0 0.265625zm-0.859375 -0.328125q0 -3.640625 -1.453125 -5.6875q-1.4375 -2.0625 -4.046875 -2.0625q-2.125 0 -3.609375 1.109375q-1.484375 1.09375 -2.140625 3.15625l0 7.90625q0.65625 1.75 2.140625 2.71875q1.5 0.953125 3.640625 0.953125q2.59375 0 4.03125 -2.0625q1.4375 -2.0625 1.4375 -6.03125zm4.171875 -0.15625q0 -2.421875 0.921875 -4.34375q0.9375 -1.9375 2.625 -3.015625q1.703125 -1.078125 3.84375 -1.078125q2.125 0 3.8125 1.046875q1.6875 1.046875 2.625 2.96875q0.953125 1.921875 0.96875 4.328125l0 0.75q0 2.4375 -0.921875 4.359375q-0.921875 1.921875 -2.625 3.0q-1.6875 1.078125 -3.828125 1.078125q-2.140625 0 -3.84375 -1.0625q-1.6875 -1.0625 -2.625 -2.96875q-0.9375 -1.921875 -0.953125 -4.3125l0 -0.75zm0.84375 0.65625q0 2.109375 0.828125 3.875q0.84375 1.75 2.328125 2.734375q1.5 0.984375 3.421875 0.984375q2.890625 0 4.703125 -2.171875q1.828125 -2.171875 1.828125 -5.59375l0 -0.484375q0 -2.078125 -0.84375 -3.84375q-0.84375 -1.765625 -2.34375 -2.75q-1.484375 -1.0 -3.375 -1.0q-2.890625 0 -4.71875 2.203125q-1.828125 2.203125 -1.828125 5.546875l0 0.5zm19.9375 -13.34375l0 4.5625l3.84375 0l0 0.859375l-3.84375 0l0 12.0q0 1.796875 0.578125 2.65625q0.59375 0.859375 1.96875 0.859375q0.6875 0 1.671875 -0.140625l0.140625 0.796875q-0.515625 0.1875 -1.765625 0.1875q-1.84375 0 -2.640625 -1.015625q-0.796875 -1.03125 -0.8125 -3.234375l0 -12.109375l-3.125 0l0 -0.859375l3.125 0l0 -4.5625l0.859375 0zm9.28125 21.46875l-0.84375 0l0 -24.0l0.84375 0l0 24.0zm6.59375 0l-0.84375 0l0 -16.90625l0.84375 0l0 16.90625zm-1.28125 -22.1875q0 -0.359375 0.25 -0.609375q0.25 -0.265625 0.609375 -0.265625q0.359375 0 0.609375 0.265625q0.265625 0.25 0.265625 0.609375q0 0.359375 -0.265625 0.609375q-0.25 0.25 -0.609375 0.25q-0.359375 0 -0.609375 -0.25q-0.25 -0.25 -0.25 -0.609375zm6.03125 13.5625q0 -4.046875 1.703125 -6.3125q1.703125 -2.28125 4.671875 -2.28125q1.890625 0 3.359375 0.875q1.46875 0.859375 2.359375 2.53125l0 -3.09375l0.859375 0l0 16.609375q0 3.3437538 -1.71875 5.218754q-1.71875 1.890625 -4.671875 1.890625q-1.703125 0 -3.125 -0.734375q-1.40625 -0.734375 -2.40625 -2.109375l0.59375 -0.5625q0.984375 1.25 2.15625 1.90625q1.171875 0.671875 2.75 0.671875q2.609375 0 4.0625 -1.59375q1.453125 -1.5781288 1.5 -4.468754l0 -2.59375q-0.875 1.4375 -2.375 2.21875q-1.484375 0.765625 -3.375 0.765625q-2.9375 0 -4.640625 -2.328125q-1.703125 -2.328125 -1.703125 -6.390625l0 -0.21875zm0.859375 0.328125q0 3.625 1.4375 5.703125q1.4375 2.0625 4.03125 2.0625q2.140625 0 3.640625 -0.984375q1.5 -1.0 2.125 -2.796875l0 -7.671875q-1.375 -4.390625 -5.734375 -4.390625q-2.609375 0 -4.0625 2.046875q-1.4375 2.046875 -1.4375 6.03125zm18.328125 -4.671875q0.828125 -1.96875 2.4375076 -3.109375q1.609375 -1.140625 3.5625 -1.140625q2.71875 0 4.03125 1.546875q1.328125 1.53125 1.34375 4.640625l0 11.03125l-0.84375 0l0 -11.0625q-0.015625 -2.71875 -1.109375 -4.015625q-1.09375 -1.3125 -3.46875 -1.3125q-2.1875 0 -3.796875 1.5625q-1.5937576 1.546875 -2.1562576 4.0l0 10.828125l-0.84375 0l0 -24.0l0.84375 0l0 11.03125zm18.562508 -8.5l0 4.5625l3.84375 0l0 0.859375l-3.84375 0l0 12.0q0 1.796875 0.578125 2.65625q0.59375 0.859375 1.96875 0.859375q0.6875 0 1.671875 -0.140625l0.140625 0.796875q-0.515625 0.1875 -1.765625 0.1875q-1.84375 0 -2.640625 -1.015625q-0.796875 -1.03125 -0.8125 -3.234375l0 -12.109375l-3.125 0l0 -0.859375l3.125 0l0 -4.5625l0.859375 0zm14.609375 12.6875q0 -2.421875 0.921875 -4.34375q0.9375 -1.9375 2.625 -3.015625q1.703125 -1.078125 3.84375 -1.078125q2.125 0 3.8125 1.046875q1.6875 1.046875 2.625 2.96875q0.953125 1.921875 0.96875 4.328125l0 0.75q0 2.4375 -0.921875 4.359375q-0.921875 1.921875 -2.625 3.0q-1.6875 1.078125 -3.828125 1.078125q-2.140625 0 -3.84375 -1.0625q-1.6875 -1.0625 -2.625 -2.96875q-0.9375 -1.921875 -0.953125 -4.3125l0 -0.75zm0.84375 0.65625q0 2.109375 0.828125 3.875q0.84375 1.75 2.328125 2.734375q1.5 0.984375 3.421875 0.984375q2.890625 0 4.703125 -2.171875q1.828125 -2.171875 1.828125 -5.59375l0 -0.484375q0 -2.078125 -0.84375 -3.84375q-0.84375 -1.765625 -2.34375 -2.75q-1.484375 -1.0 -3.375 -1.0q-2.890625 0 -4.71875 2.203125q-1.828125 2.203125 -1.828125 5.546875l0 0.5zm18.890625 -4.84375q0.828125 -1.96875 2.4375 -3.109375q1.609375 -1.140625 3.5625 -1.140625q2.71875 0 4.03125 1.546875q1.328125 1.53125 1.34375 4.640625l0 11.03125l-0.84375 0l0 -11.0625q-0.015625 -2.71875 -1.109375 -4.015625q-1.09375 -1.3125 -3.46875 -1.3125q-2.1875 0 -3.796875 1.5625q-1.59375 1.546875 -2.15625 4.0l0 10.828125l-0.84375 0l0 -16.90625l0.84375 0l0 3.9375z" fill-rule="nonzero"/><path fill="#000000" d="m34.897636 96.54007l10.359375 0l0 3.921875l-15.249998 0l0 -23.6875l4.890623 0l0 19.765625zm17.812943 3.921875l-4.71875 0l0 -17.609375l4.71875 0l0 17.609375zm-4.984375 -22.171875q0 -1.046875 0.703125 -1.734375q0.703125 -0.6875 1.921875 -0.6875q1.203125 0 1.921875 0.6875q0.71875 0.6875 0.71875 1.734375q0 1.078125 -0.734375 1.765625q-0.71875 0.6875 -1.90625 0.6875q-1.1875 0 -1.90625 -0.6875q-0.71875 -0.6875 -0.71875 -1.765625zm8.180267 13.234375q0 -4.046875 1.921875 -6.515625q1.9375 -2.484375 5.203125 -2.484375q2.890625 0 4.515625 1.984375l0.1875 -1.65625l4.265625 0l0 17.03125q0 2.296875 -1.046875 4.0q-1.046875 1.71875 -2.953125 2.609375q-1.90625 0.90625 -4.46875 0.90625q-1.9375 0 -3.78125 -0.78125q-1.828125 -0.765625 -2.765625 -1.984375l2.078125 -2.875q1.75 1.96875 4.265625 1.96875q1.875 0 2.90625 -1.0q1.046875 -1.0 1.046875 -2.828125l0 -0.953125q-1.625 1.84375 -4.28125 1.84375q-3.171875 0 -5.140625 -2.484375q-1.953125 -2.484375 -1.953125 -6.578125l0 -0.203125zm4.703125 0.34375q0 2.390625 0.953125 3.75q0.96875 1.359375 2.640625 1.359375q2.15625 0 3.078125 -1.609375l0 -7.40625q-0.953125 -1.609375 -3.046875 -1.609375q-1.6875 0 -2.65625 1.390625q-0.96875 1.375 -0.96875 4.125zm19.586227 -7.09375q1.875 -2.25 4.703125 -2.25q5.734375 0 5.8125 6.65625l0 11.28125l-4.703125 0l0 -11.140625q0 -1.515625 -0.65625 -2.234375q-0.640625 -0.734375 -2.15625 -0.734375q-2.0625 0 -3.0 1.59375l0 12.515625l-4.703125 0l0 -25.0l4.703125 0l0 9.3125zm19.696304 -6.25l0 4.328125l3.015625 0l0 3.453125l-3.015625 0l0 8.78125q0 0.984375 0.375 1.40625q0.375 0.421875 1.4375 0.421875q0.78125 0 1.375 -0.109375l0 3.5625q-1.375 0.421875 -2.84375 0.421875q-4.953125 0 -5.046875 -5.0l0 -9.484375l-2.578125 0l0 -3.453125l2.578125 0l0 -4.328125l4.703125 0zm18.341995 4.328125l0.140625 1.96875q1.875 -2.296875 5.0625 -2.296875q3.40625 0 4.6718826 2.6875q1.859375 -2.6875 5.296875 -2.6875q2.859375 0 4.25 1.671875q1.40625 1.671875 1.40625 5.015625l0 11.25l-4.71875 0l0 -11.234375q0 -1.484375 -0.59375 -2.171875q-0.578125 -0.703125 -2.0625 -0.703125q-2.109375 0 -2.921875 2.015625l0.015625 12.09375l-4.7031326 0l0 -11.21875q0 -1.515625 -0.609375 -2.203125q-0.59375 -0.6875 -2.046875 -0.6875q-2.0 0 -2.890625 1.65625l0 12.453125l-4.703125 0l0 -17.609375l4.40625 0zm23.712303 8.640625q0 -2.625 1.0 -4.671875q1.015625 -2.046875 2.90625 -3.171875q1.90625 -1.125 4.40625 -1.125q3.5625 0 5.8125 2.1875q2.265625 2.171875 2.515625 5.921875l0.03125 1.203125q0 4.046875 -2.265625 6.5q-2.25 2.453125 -6.0625 2.453125q-3.8125 0 -6.078125 -2.4375q-2.265625 -2.453125 -2.265625 -6.640625l0 -0.21875zm4.703125 0.34375q0 2.5 0.9375 3.828125q0.953125 1.328125 2.703125 1.328125q1.703125 0 2.65625 -1.3125q0.96875 -1.3125 0.96875 -4.1875q0 -2.453125 -0.96875 -3.796875q-0.953125 -1.359375 -2.6875 -1.359375q-1.71875 0 -2.671875 1.34375q-0.9375 1.34375 -0.9375 4.15625zm14.141586 -0.3125q0 -4.109375 1.84375 -6.546875q1.84375 -2.453125 5.046875 -2.453125q2.578125 0 4.25 1.921875l0 -8.984375l4.71875 0l0 25.0l-4.25 0l-0.21875 -1.875q-1.765625 2.203125 -4.53125 2.203125q-3.109375 0 -4.984375 -2.453125q-1.875 -2.453125 -1.875 -6.8125zm4.703125 0.34375q0 2.46875 0.859375 3.796875q0.859375 1.3125 2.5 1.3125q2.1875 0 3.078125 -1.84375l0 -6.9375q-0.875 -1.84375 -3.046875 -1.84375q-3.390625 0 -3.390625 5.515625zm22.904617 8.921875q-3.875 0 -6.3125 -2.375q-2.421875 -2.375 -2.421875 -6.328125l0 -0.46875q0 -2.640625 1.015625 -4.734375q1.03125 -2.09375 2.90625 -3.21875q1.890625 -1.140625 4.296875 -1.140625q3.609375 0 5.6875 2.28125q2.078125 2.28125 2.078125 6.46875l0 1.90625l-11.21875 0q0.234375 1.734375 1.375 2.78125q1.15625 1.03125 2.90625 1.03125q2.71875 0 4.25 -1.96875l2.3125 2.59375q-1.0625 1.5 -2.875 2.34375q-1.796875 0.828125 -4.0 0.828125zm-0.53125 -14.453125q-1.40625 0 -2.28125 0.953125q-0.859375 0.9375 -1.109375 2.6875l6.546875 0l0 -0.375q-0.03125 -1.5625 -0.84375 -2.40625q-0.8125 -0.859375 -2.3125 -0.859375zm28.95488 14.125q-0.328125 -0.640625 -0.484375 -1.578125q-1.703125 1.90625 -4.4375 1.90625q-2.59375 0 -4.296875 -1.5q-1.6875 -1.5 -1.6875 -3.78125q0 -2.796875 2.0625 -4.28125q2.078125 -1.5 6.0 -1.515625l2.171875 0l0 -1.015625q0 -1.21875 -0.625 -1.953125q-0.625 -0.734375 -1.984375 -0.734375q-1.1875 0 -1.859375 0.578125q-0.671875 0.5625 -0.671875 1.5625l-4.703125 0q0 -1.53125 0.9375 -2.828125q0.953125 -1.3125 2.671875 -2.046875q1.71875 -0.75 3.875 -0.75q3.25 0 5.15625 1.640625q1.921875 1.640625 1.921875 4.59375l0 7.640625q0.015625 2.5 0.703125 3.78125l0 0.28125l-4.75 0zm-3.890625 -3.265625q1.03125 0 1.90625 -0.46875q0.890625 -0.46875 1.3125 -1.25l0 -3.015625l-1.765625 0q-3.53125 0 -3.75 2.4375l-0.015625 0.28125q0 0.875 0.609375 1.453125q0.625 0.5625 1.703125 0.5625zm18.133926 -2.484375l3.28125 -11.859375l4.90625 0l-5.9375 17.609375l-4.484375 0l-5.9375 -17.609375l4.90625 0l3.265625 11.859375zm20.468079 5.75q-0.328125 -0.640625 -0.484375 -1.578125q-1.703125 1.90625 -4.4375 1.90625q-2.59375 0 -4.296875 -1.5q-1.6875 -1.5 -1.6875 -3.78125q0 -2.796875 2.0625 -4.28125q2.078125 -1.5 6.0 -1.515625l2.171875 0l0 -1.015625q0 -1.21875 -0.625 -1.953125q-0.625 -0.734375 -1.984375 -0.734375q-1.1875 0 -1.859375 0.578125q-0.671875 0.5625 -0.671875 1.5625l-4.703125 0q0 -1.53125 0.9375 -2.828125q0.953125 -1.3125 2.671875 -2.046875q1.71875 -0.75 3.875 -0.75q3.25 0 5.15625 1.640625q1.921875 1.640625 1.921875 4.59375l0 7.640625q0.015625 2.5 0.70310974 3.78125l0 0.28125l-4.7499847 0zm-3.890625 -3.265625q1.03125 0 1.90625 -0.46875q0.890625 -0.46875 1.3125 -1.25l0 -3.015625l-1.765625 0q-3.53125 0 -3.75 2.4375l-0.015625 0.28125q0 0.875 0.609375 1.453125q0.625 0.5625 1.703125 0.5625zm16.508926 3.265625l-4.71875 0l0 -17.609375l4.71875 0l0 17.609375zm-4.984375 -22.171875q0 -1.046875 0.703125 -1.734375q0.703125 -0.6875 1.921875 -0.6875q1.203125 0 1.921875 0.6875q0.71875 0.6875 0.71875 1.734375q0 1.078125 -0.734375 1.765625q-0.71875 0.6875 -1.90625 0.6875q-1.1875 0 -1.90625 -0.6875q-0.71875 -0.6875 -0.71875 -1.765625zm13.820892 22.171875l-4.71875 0l0 -25.0l4.71875 0l0 25.0zm14.086517 0q-0.328125 -0.640625 -0.484375 -1.578125q-1.703125 1.90625 -4.4375 1.90625q-2.59375 0 -4.296875 -1.5q-1.6875 -1.5 -1.6875 -3.78125q0 -2.796875 2.0625 -4.28125q2.078125 -1.5 6.0 -1.515625l2.171875 0l0 -1.015625q0 -1.21875 -0.625 -1.953125q-0.625 -0.734375 -1.984375 -0.734375q-1.1875 0 -1.859375 0.578125q-0.671875 0.5625 -0.671875 1.5625l-4.703125 0q0 -1.53125 0.9375 -2.828125q0.953125 -1.3125 2.671875 -2.046875q1.71875 -0.75 3.875 -0.75q3.25 0 5.15625 1.640625q1.921875 1.640625 1.921875 4.59375l0 7.640625q0.015625 2.5 0.703125 3.78125l0 0.28125l-4.75 0zm-3.890625 -3.265625q1.03125 0 1.90625 -0.46875q0.890625 -0.46875 1.3125 -1.25l0 -3.015625l-1.765625 0q-3.53125 0 -3.75 2.4375l-0.015625 0.28125q0 0.875 0.609375 1.453125q0.625 0.5625 1.703125 0.5625zm27.415192 -5.375q0 4.234375 -1.8125 6.609375q-1.796875 2.359375 -5.03125 2.359375q-2.875 0 -4.578125 -2.203125l-0.21875 1.875l-4.21875 0l0 -25.0l4.703125 0l0 8.96875q1.625 -1.90625 4.28125 -1.90625q3.21875 0 5.046875 2.375q1.828125 2.359375 1.828125 6.65625l0 0.265625zm-4.703125 -0.34375q0 -2.671875 -0.84375 -3.890625q-0.84375 -1.234375 -2.53125 -1.234375q-2.234375 0 -3.078125 1.84375l0 6.9375q0.859375 1.859375 3.125 1.859375q2.265625 0 2.984375 -2.25q0.34375 -1.0625 0.34375 -3.265625zm12.560242 8.984375l-4.71875 0l0 -17.609375l4.71875 0l0 17.609375zm-4.984375 -22.171875q0 -1.046875 0.703125 -1.734375q0.703125 -0.6875 1.921875 -0.6875q1.203125 0 1.921875 0.6875q0.71875 0.6875 0.71875 1.734375q0 1.078125 -0.734375 1.765625q-0.71875 0.6875 -1.90625 0.6875q-1.1875 0 -1.90625 -0.6875q-0.71875 -0.6875 -0.71875 -1.765625zm13.820892 22.171875l-4.71875 0l0 -25.0l4.71875 0l0 25.0zm8.836517 0l-4.71875 0l0 -17.609375l4.71875 0l0 17.609375zm-4.984375 -22.171875q0 -1.046875 0.703125 -1.734375q0.703125 -0.6875 1.921875 -0.6875q1.203125 0 1.921875 0.6875q0.71875 0.6875 0.71875 1.734375q0 1.078125 -0.734375 1.765625q-0.71875 0.6875 -1.90625 0.6875q-1.1875 0 -1.90625 -0.6875q-0.71875 -0.6875 -0.71875 -1.765625zm14.492767 0.234375l0 4.328125l3.015625 0l0 3.453125l-3.015625 0l0 8.78125q0 0.984375 0.375 1.40625q0.375 0.421875 1.4375 0.421875q0.78125 0 1.375 -0.109375l0 3.5625q-1.375 0.421875 -2.84375 0.421875q-4.953125 0 -5.046875 -5.0l0 -9.484375l-2.578125 0l0 -3.453125l2.578125 0l0 -4.328125l4.703125 0zm12.198761 15.28125l3.265625 -10.953125l5.046875 0l-7.09375 20.34375l-0.390625 0.921875q-1.578125 3.453125 -5.203125 3.453125q-1.015625 0 -2.078125 -0.3125l0 -3.5625l0.71875 0.015625q1.328125 0 1.984375 -0.40625q0.65625 -0.40625 1.03125 -1.34375l0.5625 -1.453125l-6.171875 -17.65625l5.0625 0l3.265625 10.953125z" fill-rule="nonzero"/><path shape-rendering="crispEdges" fill="#ffffff" d="m28.010498 183.38846l294.22308 0l0 48.202087l-294.22308 0l0 -48.202087z" fill-rule="nonzero"/><path shape-rendering="crispEdges" fill="#ffffff" d="m28.010498 231.59055l294.22308 0l0 48.202118l-294.22308 0l0 -48.202118z" fill-rule="nonzero"/><path shape-rendering="crispEdges" fill="#ffffff" d="m28.010498 279.79266l294.22308 0l0 48.202087l-294.22308 0l0 -48.202087z" fill-rule="nonzero"/><path shape-rendering="crispEdges" fill="#ffffff" d="m28.010498 327.99475l294.22308 0l0 48.202087l-294.22308 0l0 -48.202087z" fill-rule="nonzero"/><path stroke="#999999" stroke-width="1.0" stroke-linecap="butt" d="m28.010498 182.88977l0 193.80576" fill-rule="nonzero"/><path stroke="#999999" stroke-width="1.0" stroke-linecap="butt" stroke-dasharray="1.0,3.0" d="m322.23358 182.88977l0 193.80576" fill-rule="nonzero"/><path stroke="#999999" stroke-width="1.0" stroke-linecap="butt" d="m27.51181 183.38846l295.22046 0" fill-rule="nonzero"/><path stroke="#999999" stroke-width="1.0" stroke-linecap="butt" stroke-dasharray="1.0,3.0" d="m27.51181 231.59055l295.22046 0" fill-rule="nonzero"/><path stroke="#999999" stroke-width="1.0" stroke-linecap="butt" stroke-dasharray="1.0,3.0" d="m27.51181 279.79266l295.22046 0" fill-rule="nonzero"/><path stroke="#999999" stroke-width="1.0" stroke-linecap="butt" stroke-dasharray="1.0,3.0" d="m27.51181 327.99475l295.22046 0" fill-rule="nonzero"/><path stroke="#999999" stroke-width="1.0" stroke-linecap="butt" d="m27.51181 376.19684l295.22046 0" fill-rule="nonzero"/><path fill="#000000" d="m85.89938 213.3495l0 -11.375l3.71875 0q1.84375 0 2.78125 0.765625q0.9375 0.765625 0.9375 2.265625q0 0.796875 -0.453125 1.40625q-0.453125 0.609375 -1.234375 0.953125q0.921875 0.25 1.453125 0.984375q0.53125 0.71875 0.53125 1.71875q0 1.53125 -1.0 2.40625q-0.984375 0.875 -2.796875 0.875l-3.9375 0zm1.5 -5.328125l0 4.09375l2.46875 0q1.046875 0 1.65625 -0.53125q0.609375 -0.546875 0.609375 -1.5q0 -2.0625 -2.234375 -2.0625l-2.5 0zm0 -1.203125l2.265625 0q0.984375 0 1.5625 -0.484375q0.59375 -0.5 0.59375 -1.34375q0 -0.9375 -0.546875 -1.359375q-0.546875 -0.421875 -1.65625 -0.421875l-2.21875 0l0 3.609375zm13.4453125 6.53125q-0.125 -0.25 -0.203125 -0.890625q-1.0 1.046875 -2.40625 1.046875q-1.25 0 -2.046875 -0.703125q-0.796875 -0.71875 -0.796875 -1.796875q0 -1.328125 1.0 -2.046875q1.0 -0.734375 2.828125 -0.734375l1.40625 0l0 -0.671875q0 -0.75 -0.453125 -1.203125q-0.453125 -0.453125 -1.34375 -0.453125q-0.765625 0 -1.296875 0.390625q-0.515625 0.390625 -0.515625 0.953125l-1.453125 0q0 -0.640625 0.4375 -1.21875q0.453125 -0.59375 1.21875 -0.9375q0.78125 -0.34375 1.703125 -0.34375q1.453125 0 2.28125 0.734375q0.828125 0.71875 0.859375 2.0l0 3.890625q0 1.171875 0.296875 1.859375l0 0.125l-1.515625 0zm-2.390625 -1.109375q0.671875 0 1.28125 -0.34375q0.609375 -0.359375 0.890625 -0.921875l0 -1.734375l-1.140625 0q-2.65625 0 -2.65625 1.5625q0 0.671875 0.453125 1.0625q0.453125 0.375 1.171875 0.375zm8.234375 -2.8125l-0.90625 0.953125l0 2.96875l-1.4375 0l0 -12.0l1.4375 0l0 7.25l0.78125 -0.921875l2.625 -2.78125l1.765625 0l-3.296875 3.53125l3.671875 4.921875l-1.6875 0l-2.953125 -3.921875zm9.265625 4.078125q-1.71875 0 -2.796875 -1.125q-1.078125 -1.140625 -1.078125 -3.03125l0 -0.265625q0 -1.25 0.46875 -2.234375q0.484375 -1.0 1.34375 -1.546875q0.875 -0.5625 1.875 -0.5625q1.65625 0 2.5625 1.09375q0.921875 1.078125 0.921875 3.09375l0 0.609375l-5.734375 0q0.03125 1.25 0.734375 2.015625q0.703125 0.765625 1.78125 0.765625q0.765625 0 1.296875 -0.3125q0.53125 -0.3125 0.921875 -0.828125l0.890625 0.6875q-1.0625 1.640625 -3.1875 1.640625zm-0.1875 -7.578125q-0.875 0 -1.46875 0.640625q-0.59375 0.625 -0.734375 1.78125l4.234375 0l0 -0.109375q-0.0625 -1.109375 -0.59375 -1.703125q-0.53125 -0.609375 -1.4375 -0.609375zm4.8046875 3.125q0 -1.953125 0.921875 -3.125q0.921875 -1.1875 2.40625 -1.1875q1.484375 0 2.359375 1.015625l0 -4.40625l1.4375 0l0 12.0l-1.328125 0l-0.0625 -0.90625q-0.875 1.0625 -2.421875 1.0625q-1.46875 0 -2.390625 -1.203125q-0.921875 -1.203125 -0.921875 -3.140625l0 -0.109375zm1.4375 0.15625q0 1.4375 0.59375 2.25q0.59375 0.8125 1.640625 0.8125q1.375 0 2.015625 -1.234375l0 -3.875q-0.65625 -1.203125 -2.0 -1.203125q-1.0625 0 -1.65625 0.828125q-0.59375 0.8125 -0.59375 2.421875zm20.515625 2.640625q-0.578125 0.828125 -1.609375 1.25q-1.03125 0.40625 -2.40625 0.40625q-1.390625 0 -2.46875 -0.65625q-1.078125 -0.65625 -1.671875 -1.859375q-0.59375 -1.203125 -0.609375 -2.78125l0 -1.0q0 -2.5625 1.203125 -3.96875q1.203125 -1.421875 3.375 -1.421875q1.78125 0 2.859375 0.90625q1.09375 0.90625 1.328125 2.578125l-1.5 0q-0.421875 -2.25 -2.6875 -2.25q-1.5 0 -2.28125 1.0625q-0.78125 1.046875 -0.78125 3.0625l0 0.921875q0 1.921875 0.875 3.046875q0.875 1.125 2.359375 1.125q0.84375 0 1.46875 -0.1875q0.640625 -0.1875 1.0625 -0.625l0 -2.5625l-2.640625 0l0 -1.21875l4.125 0l0 4.171875zm3.8515625 1.5l-1.453125 0l0 -12.0l1.453125 0l0 12.0zm1.9296875 -4.3125q0 -1.234375 0.484375 -2.21875q0.484375 -1.0 1.359375 -1.53125q0.875 -0.546875 1.984375 -0.546875q1.734375 0 2.796875 1.203125q1.0625 1.1875 1.0625 3.171875l0 0.09375q0 1.234375 -0.46875 2.21875q-0.46875 0.984375 -1.359375 1.53125q-0.875 0.546875 -2.015625 0.546875q-1.71875 0 -2.78125 -1.1875q-1.0625 -1.203125 -1.0625 -3.171875l0 -0.109375zm1.453125 0.171875q0 1.40625 0.640625 2.265625q0.65625 0.84375 1.75 0.84375q1.109375 0 1.75 -0.859375q0.65625 -0.859375 0.65625 -2.421875q0 -1.390625 -0.671875 -2.25q-0.65625 -0.859375 -1.75 -0.859375q-1.0625 0 -1.71875 0.859375q-0.65625 0.84375 -0.65625 2.421875zm15.203125 0q0 1.9375 -0.890625 3.125q-0.890625 1.171875 -2.390625 1.171875q-1.59375 0 -2.46875 -1.140625l-0.078125 0.984375l-1.328125 0l0 -12.0l1.453125 0l0 4.46875q0.875 -1.078125 2.40625 -1.078125q1.546875 0 2.421875 1.171875q0.875 1.15625 0.875 3.171875l0 0.125zm-1.4375 -0.15625q0 -1.484375 -0.578125 -2.28125q-0.5625 -0.8125 -1.640625 -0.8125q-1.421875 0 -2.046875 1.328125l0 3.65625q0.65625 1.328125 2.0625 1.328125q1.046875 0 1.625 -0.796875q0.578125 -0.8125 0.578125 -2.421875zm8.4765625 4.296875q-0.125 -0.25 -0.203125 -0.890625q-1.0 1.046875 -2.40625 1.046875q-1.25 0 -2.046875 -0.703125q-0.796875 -0.71875 -0.796875 -1.796875q0 -1.328125 1.0 -2.046875q1.0 -0.734375 2.828125 -0.734375l1.40625 0l0 -0.671875q0 -0.75 -0.453125 -1.203125q-0.453125 -0.453125 -1.34375 -0.453125q-0.765625 0 -1.296875 0.390625q-0.515625 0.390625 -0.515625 0.953125l-1.453125 0q0 -0.640625 0.4375 -1.21875q0.453125 -0.59375 1.21875 -0.9375q0.78125 -0.34375 1.703125 -0.34375q1.453125 0 2.28125 0.734375q0.828125 0.71875 0.859375 2.0l0 3.890625q0 1.171875 0.296875 1.859375l0 0.125l-1.515625 0zm-2.390625 -1.109375q0.671875 0 1.28125 -0.34375q0.609375 -0.359375 0.890625 -0.921875l0 -1.734375l-1.140625 0q-2.65625 0 -2.65625 1.5625q0 0.671875 0.453125 1.0625q0.453125 0.375 1.171875 0.375zm7.453125 1.109375l-1.453125 0l0 -12.0l1.453125 0l0 12.0zm8.109375 0l-1.5 0l0 -11.375l1.5 0l0 11.375zm4.0859375 0l-1.453125 0l0 -12.0l1.453125 0l0 12.0zm3.8828125 0l-1.453125 0l0 -12.0l1.453125 0l0 12.0zm7.5234375 -0.84375q-0.84375 1.0 -2.46875 1.0q-1.359375 0 -2.0625 -0.78125q-0.703125 -0.796875 -0.71875 -2.328125l0 -5.5l1.453125 0l0 5.453125q0 1.921875 1.5625 1.921875q1.65625 0 2.203125 -1.234375l0 -6.140625l1.4375 0l0 8.453125l-1.375 0l-0.03125 -0.84375zm4.9609375 -7.609375l0.046875 0.9375q0.921875 -1.09375 2.5 -1.09375q1.78125 0 2.421875 1.359375q0.421875 -0.609375 1.09375 -0.984375q0.671875 -0.375 1.59375 -0.375q2.78125 0 2.828125 2.9375l0 5.671875l-1.4375 0l0 -5.578125q0 -0.90625 -0.421875 -1.359375q-0.40625 -0.453125 -1.390625 -0.453125q-0.796875 0 -1.328125 0.484375q-0.53125 0.484375 -0.625 1.296875l0 5.609375l-1.453125 0l0 -5.546875q0 -1.84375 -1.796875 -1.84375q-1.421875 0 -1.953125 1.21875l0 6.171875l-1.4375 0l0 -8.453125l1.359375 0zm14.2421875 8.453125l-1.453125 0l0 -8.453125l1.453125 0l0 8.453125zm-1.5625 -10.703125q0 -0.34375 0.203125 -0.578125q0.21875 -0.25 0.640625 -0.25q0.421875 0 0.640625 0.25q0.21875 0.234375 0.21875 0.59375q0 0.34375 -0.21875 0.578125q-0.21875 0.234375 -0.640625 0.234375q-0.421875 0 -0.640625 -0.234375q-0.203125 -0.234375 -0.203125 -0.59375zm5.2421875 2.25l0.046875 1.0625q0.96875 -1.21875 2.53125 -1.21875q2.671875 0 2.703125 3.015625l0 5.59375l-1.453125 0l0 -5.59375q0 -0.921875 -0.421875 -1.359375q-0.40625 -0.4375 -1.265625 -0.4375q-0.703125 0 -1.234375 0.375q-0.53125 0.375 -0.828125 0.984375l0 6.03125l-1.453125 0l0 -8.453125l1.375 0zm12.671875 8.453125q-0.125 -0.25 -0.203125 -0.890625q-1.0 1.046875 -2.40625 1.046875q-1.25 0 -2.046875 -0.703125q-0.796875 -0.71875 -0.796875 -1.796875q0 -1.328125 1.0 -2.046875q1.0 -0.734375 2.828125 -0.734375l1.40625 0l0 -0.671875q0 -0.75 -0.453125 -1.203125q-0.453125 -0.453125 -1.34375 -0.453125q-0.765625 0 -1.296875 0.390625q-0.515625 0.390625 -0.515625 0.953125l-1.453125 0q0 -0.640625 0.4375 -1.21875q0.453125 -0.59375 1.21875 -0.9375q0.78125 -0.34375 1.703125 -0.34375q1.453125 0 2.28125 0.734375q0.828125 0.71875 0.859375 2.0l0 3.890625q0 1.171875 0.296875 1.859375l0 0.125l-1.515625 0zm-2.390625 -1.109375q0.671875 0 1.28125 -0.34375q0.609375 -0.359375 0.890625 -0.921875l0 -1.734375l-1.140625 0q-2.65625 0 -2.65625 1.5625q0 0.671875 0.453125 1.0625q0.453125 0.375 1.171875 0.375zm7.84375 -9.390625l0 2.046875l1.578125 0l0 1.109375l-1.578125 0l0 5.25q0 0.5 0.203125 0.765625q0.21875 0.25 0.71875 0.25q0.25 0 0.6875 -0.09375l0 1.171875q-0.5625 0.15625 -1.109375 0.15625q-0.96875 0 -1.46875 -0.578125q-0.484375 -0.59375 -0.484375 -1.671875l0 -5.25l-1.53125 0l0 -1.109375l1.53125 0l0 -2.046875l1.453125 0zm4.8359375 10.5l-1.453125 0l0 -8.453125l1.453125 0l0 8.453125zm-1.5625 -10.703125q0 -0.34375 0.203125 -0.578125q0.21875 -0.25 0.640625 -0.25q0.421875 0 0.640625 0.25q0.21875 0.234375 0.21875 0.59375q0 0.34375 -0.21875 0.578125q-0.21875 0.234375 -0.640625 0.234375q-0.421875 0 -0.640625 -0.234375q-0.203125 -0.234375 -0.203125 -0.59375zm3.4921875 6.390625q0 -1.234375 0.484375 -2.21875q0.484375 -1.0 1.359375 -1.53125q0.875 -0.546875 1.984375 -0.546875q1.734375 0 2.796875 1.203125q1.0625 1.1875 1.0625 3.171875l0 0.09375q0 1.234375 -0.46875 2.21875q-0.46875 0.984375 -1.359375 1.53125q-0.875 0.546875 -2.015625 0.546875q-1.71875 0 -2.78125 -1.1875q-1.0625 -1.203125 -1.0625 -3.171875l0 -0.109375zm1.453125 0.171875q0 1.40625 0.640625 2.265625q0.65625 0.84375 1.75 0.84375q1.109375 0 1.75 -0.859375q0.65625 -0.859375 0.65625 -2.421875q0 -1.390625 -0.671875 -2.25q-0.65625 -0.859375 -1.75 -0.859375q-1.0625 0 -1.71875 0.859375q-0.65625 0.84375 -0.65625 2.421875zm9.421875 -4.3125l0.046875 1.0625q0.96875 -1.21875 2.53125 -1.21875q2.671875 0 2.703125 3.015625l0 5.59375l-1.453125 0l0 -5.59375q0 -0.921875 -0.421875 -1.359375q-0.40625 -0.4375 -1.265625 -0.4375q-0.703125 0 -1.234375 0.375q-0.53125 0.375 -0.828125 0.984375l0 6.03125l-1.453125 0l0 -8.453125l1.375 0z" fill-rule="nonzero"/><path fill="#000000" d="m45.70407 261.5516l0 -11.375l3.71875 0q1.84375 0 2.78125 0.765625q0.9375 0.765625 0.9375 2.265625q0 0.796875 -0.453125 1.40625q-0.453125 0.609375 -1.234375 0.953125q0.921875 0.25 1.453125 0.984375q0.53125 0.71875 0.53125 1.71875q0 1.53125 -1.0 2.40625q-0.984375 0.875 -2.796875 0.875l-3.9375 0zm1.5 -5.328125l0 4.09375l2.46875 0q1.046875 0 1.65625 -0.53125q0.609375 -0.546875 0.609375 -1.5q0 -2.0625 -2.234375 -2.0625l-2.5 0zm0 -1.203125l2.265625 0q0.984375 0 1.5625 -0.484375q0.59375 -0.5 0.59375 -1.34375q0 -0.9375 -0.546875 -1.359375q-0.546875 -0.421875 -1.65625 -0.421875l-2.21875 0l0 3.609375zm13.4453125 6.53125q-0.125 -0.25 -0.203125 -0.890625q-1.0 1.046875 -2.40625 1.046875q-1.25 0 -2.046875 -0.703125q-0.796875 -0.71875 -0.796875 -1.796875q0 -1.328125 1.0 -2.046875q1.0 -0.734375 2.828125 -0.734375l1.40625 0l0 -0.671875q0 -0.75 -0.453125 -1.203125q-0.453125 -0.453125 -1.34375 -0.453125q-0.765625 0 -1.296875 0.390625q-0.515625 0.390625 -0.515625 0.953125l-1.453125 0q0 -0.640625 0.4375 -1.21875q0.453125 -0.59375 1.21875 -0.9375q0.78125 -0.34375 1.703125 -0.34375q1.453125 0 2.28125 0.734375q0.828125 0.71875 0.859375 2.0l0 3.890625q0 1.171875 0.296875 1.859375l0 0.125l-1.515625 0zm-2.390625 -1.109375q0.671875 0 1.28125 -0.34375q0.609375 -0.359375 0.890625 -0.921875l0 -1.734375l-1.140625 0q-2.65625 0 -2.65625 1.5625q0 0.671875 0.453125 1.0625q0.453125 0.375 1.171875 0.375zm8.234375 -2.8125l-0.90625 0.953125l0 2.96875l-1.4375 0l0 -12.0l1.4375 0l0 7.25l0.78125 -0.921875l2.625 -2.78125l1.765625 0l-3.296875 3.53125l3.671875 4.921875l-1.6875 0l-2.953125 -3.921875zm9.265625 4.078125q-1.71875 0 -2.796875 -1.125q-1.078125 -1.140625 -1.078125 -3.03125l0 -0.265625q0 -1.25 0.46875 -2.234375q0.484375 -1.0 1.34375 -1.546875q0.875 -0.5625 1.875 -0.5625q1.65625 0 2.5625 1.09375q0.921875 1.078125 0.921875 3.09375l0 0.609375l-5.734375 0q0.03125 1.25 0.734375 2.015625q0.703125 0.765625 1.78125 0.765625q0.765625 0 1.296875 -0.3125q0.53125 -0.3125 0.921875 -0.828125l0.890625 0.6875q-1.0625 1.640625 -3.1875 1.640625zm-0.1875 -7.578125q-0.875 0 -1.46875 0.640625q-0.59375 0.625 -0.734375 1.78125l4.234375 0l0 -0.109375q-0.0625 -1.109375 -0.59375 -1.703125q-0.53125 -0.609375 -1.4375 -0.609375zm4.8046875 3.125q0 -1.953125 0.921875 -3.125q0.921875 -1.1875 2.40625 -1.1875q1.484375 0 2.359375 1.015625l0 -4.40625l1.4375 0l0 12.0l-1.328125 0l-0.0625 -0.90625q-0.875 1.0625 -2.421875 1.0625q-1.46875 0 -2.390625 -1.203125q-0.921875 -1.203125 -0.921875 -3.140625l0 -0.109375zm1.4375 0.15625q0 1.4375 0.59375 2.25q0.59375 0.8125 1.640625 0.8125q1.375 0 2.015625 -1.234375l0 -3.875q-0.65625 -1.203125 -2.0 -1.203125q-1.0625 0 -1.65625 0.828125q-0.59375 0.8125 -0.59375 2.421875zm11.59375 1.078125q0 -0.8125 0.453125 -1.5q0.453125 -0.6875 1.75 -1.609375q-0.765625 -0.921875 -1.03125 -1.484375q-0.25 -0.5625 -0.25 -1.109375q0 -1.296875 0.765625 -2.03125q0.765625 -0.734375 2.078125 -0.734375q1.171875 0 1.9375 0.6875q0.765625 0.671875 0.765625 1.71875q0 0.6875 -0.34375 1.265625q-0.34375 0.578125 -1.21875 1.21875l-0.828125 0.625l2.53125 3.015625q0.53125 -1.015625 0.53125 -2.25l1.296875 0q0 1.984375 -0.953125 3.296875l1.625 1.953125l-1.734375 0l-0.765625 -0.90625q-0.578125 0.515625 -1.359375 0.796875q-0.765625 0.265625 -1.578125 0.265625q-1.65625 0 -2.671875 -0.875q-1.0 -0.890625 -1.0 -2.34375zm3.671875 2.03125q1.15625 0 2.109375 -0.875l-2.78125 -3.3125l-0.25 0.1875q-1.3125 0.953125 -1.3125 1.96875q0 0.921875 0.59375 1.484375q0.609375 0.546875 1.640625 0.546875zm-1.296875 -7.78125q0 0.75 0.921875 1.875l0.921875 -0.65625q0.53125 -0.375 0.71875 -0.703125q0.203125 -0.34375 0.203125 -0.828125q0 -0.53125 -0.390625 -0.875q-0.390625 -0.34375 -0.984375 -0.34375q-0.640625 0 -1.015625 0.4375q-0.375 0.421875 -0.375 1.09375zm16.234375 4.203125l-2.671875 0l0 4.609375l-1.515625 0l0 -11.375l3.765625 0q1.921875 0 2.953125 0.875q1.046875 0.875 1.046875 2.546875q0 1.0625 -0.578125 1.859375q-0.578125 0.78125 -1.59375 1.171875l2.671875 4.828125l0 0.09375l-1.609375 0l-2.46875 -4.609375zm-2.671875 -1.21875l2.296875 0q1.125 0 1.78125 -0.578125q0.65625 -0.578125 0.65625 -1.546875q0 -1.0625 -0.625 -1.625q-0.625 -0.5625 -1.8125 -0.5625l-2.296875 0l0 4.3125zm11.6328125 5.984375q-1.71875 0 -2.796875 -1.125q-1.078125 -1.140625 -1.078125 -3.03125l0 -0.265625q0 -1.25 0.46875 -2.234375q0.484375 -1.0 1.34375 -1.546875q0.875 -0.5625 1.875 -0.5625q1.65625 0 2.5625 1.09375q0.921875 1.078125 0.921875 3.09375l0 0.609375l-5.734375 0q0.03125 1.25 0.734375 2.015625q0.703125 0.765625 1.78125 0.765625q0.765625 0 1.296875 -0.3125q0.53125 -0.3125 0.921875 -0.828125l0.890625 0.6875q-1.0625 1.640625 -3.1875 1.640625zm-0.1875 -7.578125q-0.875 0 -1.46875 0.640625q-0.59375 0.625 -0.734375 1.78125l4.234375 0l0 -0.109375q-0.0625 -1.109375 -0.59375 -1.703125q-0.53125 -0.609375 -1.4375 -0.609375zm10.3671875 7.421875q-0.125 -0.25 -0.203125 -0.890625q-1.0 1.046875 -2.40625 1.046875q-1.25 0 -2.046875 -0.703125q-0.796875 -0.71875 -0.796875 -1.796875q0 -1.328125 1.0 -2.046875q1.0 -0.734375 2.828125 -0.734375l1.40625 0l0 -0.671875q0 -0.75 -0.453125 -1.203125q-0.453125 -0.453125 -1.34375 -0.453125q-0.765625 0 -1.296875 0.390625q-0.515625 0.390625 -0.515625 0.953125l-1.453125 0q0 -0.640625 0.4375 -1.21875q0.453125 -0.59375 1.21875 -0.9375q0.78125 -0.34375 1.703125 -0.34375q1.453125 0 2.28125 0.734375q0.828125 0.71875 0.859375 2.0l0 3.890625q0 1.171875 0.296875 1.859375l0 0.125l-1.515625 0zm-2.390625 -1.109375q0.671875 0 1.28125 -0.34375q0.609375 -0.359375 0.890625 -0.921875l0 -1.734375l-1.140625 0q-2.65625 0 -2.65625 1.5625q0 0.671875 0.453125 1.0625q0.453125 0.375 1.171875 0.375zm7.453125 1.109375l-1.453125 0l0 -12.0l1.453125 0l0 12.0zm4.2734375 -10.5l0 2.046875l1.578125 0l0 1.109375l-1.578125 0l0 5.25q0 0.5 0.203125 0.765625q0.21875 0.25 0.71875 0.25q0.25 0 0.6875 -0.09375l0 1.171875q-0.5625 0.15625 -1.109375 0.15625q-0.96875 0 -1.46875 -0.578125q-0.484375 -0.59375 -0.484375 -1.671875l0 -5.25l-1.53125 0l0 -1.109375l1.53125 0l0 -2.046875l1.453125 0zm4.8359375 10.5l-1.453125 0l0 -8.453125l1.453125 0l0 8.453125zm-1.5625 -10.703125q0 -0.34375 0.203125 -0.578125q0.21875 -0.25 0.640625 -0.25q0.421875 0 0.640625 0.25q0.21875 0.234375 0.21875 0.59375q0 0.34375 -0.21875 0.578125q-0.21875 0.234375 -0.640625 0.234375q-0.421875 0 -0.640625 -0.234375q-0.203125 -0.234375 -0.203125 -0.59375zm5.2265625 2.25l0.046875 0.9375q0.921875 -1.09375 2.5 -1.09375q1.78125 0 2.421875 1.359375q0.421875 -0.609375 1.09375 -0.984375q0.671875 -0.375 1.59375 -0.375q2.78125 0 2.828125 2.9375l0 5.671875l-1.4375 0l0 -5.578125q0 -0.90625 -0.421875 -1.359375q-0.40625 -0.453125 -1.390625 -0.453125q-0.796875 0 -1.328125 0.484375q-0.53125 0.484375 -0.625 1.296875l0 5.609375l-1.453125 0l0 -5.546875q0 -1.84375 -1.796875 -1.84375q-1.421875 0 -1.953125 1.21875l0 6.171875l-1.4375 0l0 -8.453125l1.359375 0zm16.179688 8.609375q-1.71875 0 -2.796875 -1.125q-1.078125 -1.140625 -1.078125 -3.03125l0 -0.265625q0 -1.25 0.46875 -2.234375q0.484375 -1.0 1.34375 -1.546875q0.875 -0.5625 1.875 -0.5625q1.65625 0 2.5625 1.09375q0.921875 1.078125 0.921875 3.09375l0 0.609375l-5.734375 0q0.03125 1.25 0.734375 2.015625q0.703125 0.765625 1.78125 0.765625q0.765625 0 1.296875 -0.3125q0.53125 -0.3125 0.921875 -0.828125l0.890625 0.6875q-1.0625 1.640625 -3.1875 1.640625zm-0.1875 -7.578125q-0.875 0 -1.46875 0.640625q-0.59375 0.625 -0.734375 1.78125l4.234375 0l0 -0.109375q-0.0625 -1.109375 -0.59375 -1.703125q-0.53125 -0.609375 -1.4375 -0.609375zm17.734375 5.921875q-0.578125 0.828125 -1.609375 1.25q-1.03125 0.40625 -2.40625 0.40625q-1.390625 0 -2.46875 -0.65625q-1.078125 -0.65625 -1.671875 -1.859375q-0.59375 -1.203125 -0.609375 -2.78125l0 -1.0q0 -2.5625 1.203125 -3.96875q1.203125 -1.421875 3.375 -1.421875q1.78125 0 2.859375 0.90625q1.09375 0.90625 1.328125 2.578125l-1.5 0q-0.421875 -2.25 -2.6875 -2.25q-1.5 0 -2.28125 1.0625q-0.78125 1.046875 -0.78125 3.0625l0 0.921875q0 1.921875 0.875 3.046875q0.875 1.125 2.359375 1.125q0.84375 0 1.46875 -0.1875q0.640625 -0.1875 1.0625 -0.625l0 -2.5625l-2.640625 0l0 -1.21875l4.125 0l0 4.171875zm3.8515625 1.5l-1.453125 0l0 -12.0l1.453125 0l0 12.0zm1.9296875 -4.3125q0 -1.234375 0.484375 -2.21875q0.484375 -1.0 1.359375 -1.53125q0.875 -0.546875 1.984375 -0.546875q1.734375 0 2.796875 1.203125q1.0625 1.1875 1.0625 3.171875l0 0.09375q0 1.234375 -0.46875 2.21875q-0.46875 0.984375 -1.359375 1.53125q-0.875 0.546875 -2.015625 0.546875q-1.71875 0 -2.78125 -1.1875q-1.0625 -1.203125 -1.0625 -3.171875l0 -0.109375zm1.453125 0.171875q0 1.40625 0.640625 2.265625q0.65625 0.84375 1.75 0.84375q1.109375 0 1.75 -0.859375q0.65625 -0.859375 0.65625 -2.421875q0 -1.390625 -0.671875 -2.25q-0.65625 -0.859375 -1.75 -0.859375q-1.0625 0 -1.71875 0.859375q-0.65625 0.84375 -0.65625 2.421875zm15.203125 0q0 1.9375 -0.890625 3.125q-0.890625 1.171875 -2.390625 1.171875q-1.59375 0 -2.46875 -1.140625l-0.078125 0.984375l-1.328125 0l0 -12.0l1.453125 0l0 4.46875q0.875 -1.078125 2.40625 -1.078125q1.546875 0 2.421875 1.171875q0.875 1.15625 0.875 3.171875l0 0.125zm-1.4375 -0.15625q0 -1.484375 -0.578125 -2.28125q-0.5625 -0.8125 -1.640625 -0.8125q-1.421875 0 -2.046875 1.328125l0 3.65625q0.65625 1.328125 2.0625 1.328125q1.046875 0 1.625 -0.796875q0.578125 -0.8125 0.578125 -2.421875zm8.4765625 4.296875q-0.125 -0.25 -0.203125 -0.890625q-1.0 1.046875 -2.40625 1.046875q-1.25 0 -2.046875 -0.703125q-0.796875 -0.71875 -0.796875 -1.796875q0 -1.328125 1.0 -2.046875q1.0 -0.734375 2.828125 -0.734375l1.40625 0l0 -0.671875q0 -0.75 -0.453125 -1.203125q-0.453125 -0.453125 -1.34375 -0.453125q-0.765625 0 -1.296875 0.390625q-0.515625 0.390625 -0.515625 0.953125l-1.453125 0q0 -0.640625 0.4375 -1.21875q0.453125 -0.59375 1.21875 -0.9375q0.78125 -0.34375 1.703125 -0.34375q1.453125 0 2.28125 0.734375q0.828125 0.71875 0.859375 2.0l0 3.890625q0 1.171875 0.296875 1.859375l0 0.125l-1.515625 0zm-2.390625 -1.109375q0.671875 0 1.28125 -0.34375q0.609375 -0.359375 0.890625 -0.921875l0 -1.734375l-1.140625 0q-2.65625 0 -2.65625 1.5625q0 0.671875 0.453125 1.0625q0.453125 0.375 1.171875 0.375zm7.453125 1.109375l-1.453125 0l0 -12.0l1.453125 0l0 12.0zm8.109375 0l-1.5 0l0 -11.375l1.5 0l0 11.375zm4.0859375 0l-1.453125 0l0 -12.0l1.453125 0l0 12.0zm3.8828125 0l-1.453125 0l0 -12.0l1.453125 0l0 12.0zm7.5234375 -0.84375q-0.84375 1.0 -2.46875 1.0q-1.359375 0 -2.0625 -0.78125q-0.703125 -0.796875 -0.71875 -2.328125l0 -5.5l1.453125 0l0 5.453125q0 1.921875 1.5625 1.921875q1.65625 0 2.203125 -1.234375l0 -6.140625l1.4375 0l0 8.453125l-1.375 0l-0.03125 -0.84375zm4.9609375 -7.609375l0.046875 0.9375q0.921875 -1.09375 2.5 -1.09375q1.78125 0 2.421875 1.359375q0.421875 -0.609375 1.09375 -0.984375q0.671875 -0.375 1.59375 -0.375q2.78125 0 2.828125 2.9375l0 5.671875l-1.4375 0l0 -5.578125q0 -0.90625 -0.421875 -1.359375q-0.40625 -0.453125 -1.390625 -0.453125q-0.796875 0 -1.328125 0.484375q-0.53125 0.484375 -0.625 1.296875l0 5.609375l-1.453125 0l0 -5.546875q0 -1.84375 -1.796875 -1.84375q-1.421875 0 -1.953125 1.21875l0 6.171875l-1.4375 0l0 -8.453125l1.359375 0zm14.2421875 8.453125l-1.453125 0l0 -8.453125l1.453125 0l0 8.453125zm-1.5625 -10.703125q0 -0.34375 0.203125 -0.578125q0.21875 -0.25 0.640625 -0.25q0.421875 0 0.640625 0.25q0.21875 0.234375 0.21875 0.59375q0 0.34375 -0.21875 0.578125q-0.21875 0.234375 -0.640625 0.234375q-0.421875 0 -0.640625 -0.234375q-0.203125 -0.234375 -0.203125 -0.59375zm5.2421875 2.25l0.046875 1.0625q0.96875 -1.21875 2.53125 -1.21875q2.671875 0 2.703125 3.015625l0 5.59375l-1.453125 0l0 -5.59375q0 -0.921875 -0.421875 -1.359375q-0.40625 -0.4375 -1.265625 -0.4375q-0.703125 0 -1.234375 0.375q-0.53125 0.375 -0.828125 0.984375l0 6.03125l-1.453125 0l0 -8.453125l1.375 0zm12.671875 8.453125q-0.125 -0.25 -0.203125 -0.890625q-1.0 1.046875 -2.40625 1.046875q-1.25 0 -2.046875 -0.703125q-0.796875 -0.71875 -0.796875 -1.796875q0 -1.328125 1.0 -2.046875q1.0 -0.734375 2.828125 -0.734375l1.40625 0l0 -0.671875q0 -0.75 -0.453125 -1.203125q-0.453125 -0.453125 -1.34375 -0.453125q-0.765625 0 -1.296875 0.390625q-0.515625 0.390625 -0.515625 0.953125l-1.453125 0q0 -0.640625 0.4375 -1.21875q0.453125 -0.59375 1.21875 -0.9375q0.78125 -0.34375 1.703125 -0.34375q1.453125 0 2.28125 0.734375q0.828125 0.71875 0.859375 2.0l0 3.890625q0 1.171875 0.296875 1.859375l0 0.125l-1.515625 0zm-2.390625 -1.109375q0.671875 0 1.28125 -0.34375q0.609375 -0.359375 0.890625 -0.921875l0 -1.734375l-1.140625 0q-2.65625 0 -2.65625 1.5625q0 0.671875 0.453125 1.0625q0.453125 0.375 1.171875 0.375zm7.84375 -9.390625l0 2.046875l1.578125 0l0 1.109375l-1.578125 0l0 5.25q0 0.5 0.203125 0.765625q0.21875 0.25 0.71875 0.25q0.25 0 0.6875 -0.09375l0 1.171875q-0.5625 0.15625 -1.109375 0.15625q-0.96875 0 -1.46875 -0.578125q-0.484375 -0.59375 -0.484375 -1.671875l0 -5.25l-1.53125 0l0 -1.109375l1.53125 0l0 -2.046875l1.453125 0zm4.8359375 10.5l-1.453125 0l0 -8.453125l1.453125 0l0 8.453125zm-1.5625 -10.703125q0 -0.34375 0.203125 -0.578125q0.21875 -0.25 0.640625 -0.25q0.421875 0 0.640625 0.25q0.21875 0.234375 0.21875 0.59375q0 0.34375 -0.21875 0.578125q-0.21875 0.234375 -0.640625 0.234375q-0.421875 0 -0.640625 -0.234375q-0.203125 -0.234375 -0.203125 -0.59375zm3.4921875 6.390625q0 -1.234375 0.484375 -2.21875q0.484375 -1.0 1.359375 -1.53125q0.875 -0.546875 1.984375 -0.546875q1.734375 0 2.796875 1.203125q1.0625 1.1875 1.0625 3.171875l0 0.09375q0 1.234375 -0.46875 2.21875q-0.46875 0.984375 -1.359375 1.53125q-0.875 0.546875 -2.015625 0.546875q-1.71875 0 -2.78125 -1.1875q-1.0625 -1.203125 -1.0625 -3.171875l0 -0.109375zm1.453125 0.171875q0 1.40625 0.640625 2.265625q0.65625 0.84375 1.75 0.84375q1.109375 0 1.75 -0.859375q0.65625 -0.859375 0.65625 -2.421875q0 -1.390625 -0.671875 -2.25q-0.65625 -0.859375 -1.75 -0.859375q-1.0625 0 -1.71875 0.859375q-0.65625 0.84375 -0.65625 2.421875zm9.421875 -4.3125l0.046875 1.0625q0.96875 -1.21875 2.53125 -1.21875q2.671875 0 2.703125 3.015625l0 5.59375l-1.453125 0l0 -5.59375q0 -0.921875 -0.421875 -1.359375q-0.40625 -0.4375 -1.265625 -0.4375q-0.703125 0 -1.234375 0.375q-0.53125 0.375 -0.828125 0.984375l0 6.03125l-1.453125 0l0 -8.453125l1.375 0z" fill-rule="nonzero"/><path fill="#000000" d="m80.94626 305.14432l-2.671875 0l0 4.609375l-1.515625 0l0 -11.375l3.765625 0q1.921875 0 2.953125 0.875q1.046875 0.875 1.046875 2.546875q0 1.0625 -0.578125 1.859375q-0.578125 0.78125 -1.59375 1.171875l2.671875 4.828125l0 0.09375l-1.609375 0l-2.46875 -4.609375zm-2.671875 -1.21875l2.296875 0q1.125 0 1.78125 -0.578125q0.65625 -0.578125 0.65625 -1.546875q0 -1.0625 -0.625 -1.625q-0.625 -0.5625 -1.8125 -0.5625l-2.296875 0l0 4.3125zm11.6328125 5.984375q-1.71875 0 -2.796875 -1.125q-1.078125 -1.140625 -1.078125 -3.03125l0 -0.265625q0 -1.25 0.46875 -2.234375q0.484375 -1.0 1.34375 -1.546875q0.875 -0.5625 1.875 -0.5625q1.65625 0 2.5625 1.09375q0.921875 1.078125 0.921875 3.09375l0 0.609375l-5.734375 0q0.03125 1.25 0.734375 2.015625q0.703125 0.765625 1.78125 0.765625q0.765625 0 1.296875 -0.3125q0.53125 -0.3125 0.921875 -0.828125l0.890625 0.6875q-1.0625 1.640625 -3.1875 1.640625zm-0.1875 -7.578125q-0.875 0 -1.46875 0.640625q-0.59375 0.625 -0.734375 1.78125l4.234375 0l0 -0.109375q-0.0625 -1.109375 -0.59375 -1.703125q-0.53125 -0.609375 -1.4375 -0.609375zm10.3671875 7.421875q-0.125 -0.25 -0.203125 -0.890625q-1.0 1.046875 -2.40625 1.046875q-1.25 0 -2.046875 -0.703125q-0.796875 -0.71875 -0.796875 -1.796875q0 -1.328125 1.0 -2.046875q1.0 -0.734375 2.828125 -0.734375l1.40625 0l0 -0.671875q0 -0.75 -0.453125 -1.203125q-0.453125 -0.453125 -1.34375 -0.453125q-0.765625 0 -1.296875 0.390625q-0.515625 0.390625 -0.515625 0.953125l-1.453125 0q0 -0.640625 0.4375 -1.21875q0.453125 -0.59375 1.21875 -0.9375q0.78125 -0.34375 1.703125 -0.34375q1.453125 0 2.28125 0.734375q0.828125 0.71875 0.859375 2.0l0 3.890625q0 1.171875 0.296875 1.859375l0 0.125l-1.515625 0zm-2.390625 -1.109375q0.671875 0 1.28125 -0.34375q0.609375 -0.359375 0.890625 -0.921875l0 -1.734375l-1.140625 0q-2.65625 0 -2.65625 1.5625q0 0.671875 0.453125 1.0625q0.453125 0.375 1.171875 0.375zm7.453125 1.109375l-1.453125 0l0 -12.0l1.453125 0l0 12.0zm4.2734375 -10.5l0 2.046875l1.578125 0l0 1.109375l-1.578125 0l0 5.25q0 0.5 0.203125 0.765625q0.21875 0.25 0.71875 0.25q0.25 0 0.6875 -0.09375l0 1.171875q-0.5625 0.15625 -1.109375 0.15625q-0.96875 0 -1.46875 -0.578125q-0.484375 -0.59375 -0.484375 -1.671875l0 -5.25l-1.53125 0l0 -1.109375l1.53125 0l0 -2.046875l1.453125 0zm4.8359375 10.5l-1.453125 0l0 -8.453125l1.453125 0l0 8.453125zm-1.5625 -10.703125q0 -0.34375 0.203125 -0.578125q0.21875 -0.25 0.640625 -0.25q0.421875 0 0.640625 0.25q0.21875 0.234375 0.21875 0.59375q0 0.34375 -0.21875 0.578125q-0.21875 0.234375 -0.640625 0.234375q-0.421875 0 -0.640625 -0.234375q-0.203125 -0.234375 -0.203125 -0.59375zm5.2265625 2.25l0.046875 0.9375q0.921875 -1.09375 2.5 -1.09375q1.78125 0 2.421875 1.359375q0.421875 -0.609375 1.09375 -0.984375q0.671875 -0.375 1.59375 -0.375q2.78125 0 2.828125 2.9375l0 5.671875l-1.4375 0l0 -5.578125q0 -0.90625 -0.421875 -1.359375q-0.40625 -0.453125 -1.390625 -0.453125q-0.796875 0 -1.328125 0.484375q-0.53125 0.484375 -0.625 1.296875l0 5.609375l-1.453125 0l0 -5.546875q0 -1.84375 -1.796875 -1.84375q-1.421875 0 -1.953125 1.21875l0 6.171875l-1.4375 0l0 -8.453125l1.359375 0zm16.179688 8.609375q-1.71875 0 -2.796875 -1.125q-1.078125 -1.140625 -1.078125 -3.03125l0 -0.265625q0 -1.25 0.46875 -2.234375q0.484375 -1.0 1.34375 -1.546875q0.875 -0.5625 1.875 -0.5625q1.65625 0 2.5625 1.09375q0.921875 1.078125 0.921875 3.09375l0 0.609375l-5.734375 0q0.03125 1.25 0.734375 2.015625q0.703125 0.765625 1.78125 0.765625q0.765625 0 1.296875 -0.3125q0.53125 -0.3125 0.921875 -0.828125l0.890625 0.6875q-1.0625 1.640625 -3.1875 1.640625zm-0.1875 -7.578125q-0.875 0 -1.46875 0.640625q-0.59375 0.625 -0.734375 1.78125l4.234375 0l0 -0.109375q-0.0625 -1.109375 -0.59375 -1.703125q-0.53125 -0.609375 -1.4375 -0.609375zm17.734375 5.921875q-0.578125 0.828125 -1.609375 1.25q-1.03125 0.40625 -2.40625 0.40625q-1.390625 0 -2.46875 -0.65625q-1.078125 -0.65625 -1.671875 -1.859375q-0.59375 -1.203125 -0.609375 -2.78125l0 -1.0q0 -2.5625 1.203125 -3.96875q1.203125 -1.421875 3.375 -1.421875q1.78125 0 2.859375 0.90625q1.09375 0.90625 1.328125 2.578125l-1.5 0q-0.421875 -2.25 -2.6875 -2.25q-1.5 0 -2.28125 1.0625q-0.78125 1.046875 -0.78125 3.0625l0 0.921875q0 1.921875 0.875 3.046875q0.875 1.125 2.359375 1.125q0.84375 0 1.46875 -0.1875q0.640625 -0.1875 1.0625 -0.625l0 -2.5625l-2.640625 0l0 -1.21875l4.125 0l0 4.171875zm3.8515625 1.5l-1.453125 0l0 -12.0l1.453125 0l0 12.0zm1.9296875 -4.3125q0 -1.234375 0.484375 -2.21875q0.484375 -1.0 1.359375 -1.53125q0.875 -0.546875 1.984375 -0.546875q1.734375 0 2.796875 1.203125q1.0625 1.1875 1.0625 3.171875l0 0.09375q0 1.234375 -0.46875 2.21875q-0.46875 0.984375 -1.359375 1.53125q-0.875 0.546875 -2.015625 0.546875q-1.71875 0 -2.78125 -1.1875q-1.0625 -1.203125 -1.0625 -3.171875l0 -0.109375zm1.453125 0.171875q0 1.40625 0.640625 2.265625q0.65625 0.84375 1.75 0.84375q1.109375 0 1.75 -0.859375q0.65625 -0.859375 0.65625 -2.421875q0 -1.390625 -0.671875 -2.25q-0.65625 -0.859375 -1.75 -0.859375q-1.0625 0 -1.71875 0.859375q-0.65625 0.84375 -0.65625 2.421875zm15.203125 0q0 1.9375 -0.890625 3.125q-0.890625 1.171875 -2.390625 1.171875q-1.59375 0 -2.46875 -1.140625l-0.078125 0.984375l-1.328125 0l0 -12.0l1.453125 0l0 4.46875q0.875 -1.078125 2.40625 -1.078125q1.546875 0 2.421875 1.171875q0.875 1.15625 0.875 3.171875l0 0.125zm-1.4375 -0.15625q0 -1.484375 -0.578125 -2.28125q-0.5625 -0.8125 -1.640625 -0.8125q-1.421875 0 -2.046875 1.328125l0 3.65625q0.65625 1.328125 2.0625 1.328125q1.046875 0 1.625 -0.796875q0.578125 -0.8125 0.578125 -2.421875zm8.4765625 4.296875q-0.125 -0.25 -0.203125 -0.890625q-1.0 1.046875 -2.40625 1.046875q-1.25 0 -2.046875 -0.703125q-0.796875 -0.71875 -0.796875 -1.796875q0 -1.328125 1.0 -2.046875q1.0 -0.734375 2.828125 -0.734375l1.40625 0l0 -0.671875q0 -0.75 -0.453125 -1.203125q-0.453125 -0.453125 -1.34375 -0.453125q-0.765625 0 -1.296875 0.390625q-0.515625 0.390625 -0.515625 0.953125l-1.453125 0q0 -0.640625 0.4375 -1.21875q0.453125 -0.59375 1.21875 -0.9375q0.78125 -0.34375 1.703125 -0.34375q1.453125 0 2.28125 0.734375q0.828125 0.71875 0.859375 2.0l0 3.890625q0 1.171875 0.296875 1.859375l0 0.125l-1.515625 0zm-2.390625 -1.109375q0.671875 0 1.28125 -0.34375q0.609375 -0.359375 0.890625 -0.921875l0 -1.734375l-1.140625 0q-2.65625 0 -2.65625 1.5625q0 0.671875 0.453125 1.0625q0.453125 0.375 1.171875 0.375zm7.453125 1.109375l-1.453125 0l0 -12.0l1.453125 0l0 12.0zm8.109375 0l-1.5 0l0 -11.375l1.5 0l0 11.375zm4.0859375 0l-1.453125 0l0 -12.0l1.453125 0l0 12.0zm3.8828125 0l-1.453125 0l0 -12.0l1.453125 0l0 12.0zm7.5234375 -0.84375q-0.84375 1.0 -2.46875 1.0q-1.359375 0 -2.0625 -0.78125q-0.703125 -0.796875 -0.71875 -2.328125l0 -5.5l1.453125 0l0 5.453125q0 1.921875 1.5625 1.921875q1.65625 0 2.203125 -1.234375l0 -6.140625l1.4375 0l0 8.453125l-1.375 0l-0.03125 -0.84375zm4.9609375 -7.609375l0.046875 0.9375q0.921875 -1.09375 2.5 -1.09375q1.78125 0 2.421875 1.359375q0.421875 -0.609375 1.09375 -0.984375q0.671875 -0.375 1.59375 -0.375q2.78125 0 2.828125 2.9375l0 5.671875l-1.4375 0l0 -5.578125q0 -0.90625 -0.421875 -1.359375q-0.40625 -0.453125 -1.390625 -0.453125q-0.796875 0 -1.328125 0.484375q-0.53125 0.484375 -0.625 1.296875l0 5.609375l-1.453125 0l0 -5.546875q0 -1.84375 -1.796875 -1.84375q-1.421875 0 -1.953125 1.21875l0 6.171875l-1.4375 0l0 -8.453125l1.359375 0zm14.2421875 8.453125l-1.453125 0l0 -8.453125l1.453125 0l0 8.453125zm-1.5625 -10.703125q0 -0.34375 0.203125 -0.578125q0.21875 -0.25 0.640625 -0.25q0.421875 0 0.640625 0.25q0.21875 0.234375 0.21875 0.59375q0 0.34375 -0.21875 0.578125q-0.21875 0.234375 -0.640625 0.234375q-0.421875 0 -0.640625 -0.234375q-0.203125 -0.234375 -0.203125 -0.59375zm5.2421875 2.25l0.046875 1.0625q0.96875 -1.21875 2.53125 -1.21875q2.671875 0 2.703125 3.015625l0 5.59375l-1.453125 0l0 -5.59375q0 -0.921875 -0.421875 -1.359375q-0.40625 -0.4375 -1.265625 -0.4375q-0.703125 0 -1.234375 0.375q-0.53125 0.375 -0.828125 0.984375l0 6.03125l-1.453125 0l0 -8.453125l1.375 0zm12.671875 8.453125q-0.125 -0.25 -0.203125 -0.890625q-1.0 1.046875 -2.40625 1.046875q-1.25 0 -2.046875 -0.703125q-0.796875 -0.71875 -0.796875 -1.796875q0 -1.328125 1.0 -2.046875q1.0 -0.734375 2.828125 -0.734375l1.40625 0l0 -0.671875q0 -0.75 -0.453125 -1.203125q-0.453125 -0.453125 -1.34375 -0.453125q-0.765625 0 -1.296875 0.390625q-0.515625 0.390625 -0.515625 0.953125l-1.453125 0q0 -0.640625 0.4375 -1.21875q0.453125 -0.59375 1.21875 -0.9375q0.78125 -0.34375 1.703125 -0.34375q1.453125 0 2.28125 0.734375q0.828125 0.71875 0.859375 2.0l0 3.890625q0 1.171875 0.296875 1.859375l0 0.125l-1.515625 0zm-2.390625 -1.109375q0.671875 0 1.28125 -0.34375q0.609375 -0.359375 0.890625 -0.921875l0 -1.734375l-1.140625 0q-2.65625 0 -2.65625 1.5625q0 0.671875 0.453125 1.0625q0.453125 0.375 1.171875 0.375zm7.84375 -9.390625l0 2.046875l1.578125 0l0 1.109375l-1.578125 0l0 5.25q0 0.5 0.203125 0.765625q0.21875 0.25 0.71875 0.25q0.25 0 0.6875 -0.09375l0 1.171875q-0.5625 0.15625 -1.109375 0.15625q-0.96875 0 -1.46875 -0.578125q-0.484375 -0.59375 -0.484375 -1.671875l0 -5.25l-1.53125 0l0 -1.109375l1.53125 0l0 -2.046875l1.453125 0zm4.8359375 10.5l-1.453125 0l0 -8.453125l1.453125 0l0 8.453125zm-1.5625 -10.703125q0 -0.34375 0.203125 -0.578125q0.21875 -0.25 0.640625 -0.25q0.421875 0 0.640625 0.25q0.21875 0.234375 0.21875 0.59375q0 0.34375 -0.21875 0.578125q-0.21875 0.234375 -0.640625 0.234375q-0.421875 0 -0.640625 -0.234375q-0.203125 -0.234375 -0.203125 -0.59375zm3.4921875 6.390625q0 -1.234375 0.484375 -2.21875q0.484375 -1.0 1.359375 -1.53125q0.875 -0.546875 1.984375 -0.546875q1.734375 0 2.796875 1.203125q1.0625 1.1875 1.0625 3.171875l0 0.09375q0 1.234375 -0.46875 2.21875q-0.46875 0.984375 -1.359375 1.53125q-0.875 0.546875 -2.015625 0.546875q-1.71875 0 -2.78125 -1.1875q-1.0625 -1.203125 -1.0625 -3.171875l0 -0.109375zm1.453125 0.171875q0 1.40625 0.640625 2.265625q0.65625 0.84375 1.75 0.84375q1.109375 0 1.75 -0.859375q0.65625 -0.859375 0.65625 -2.421875q0 -1.390625 -0.671875 -2.25q-0.65625 -0.859375 -1.75 -0.859375q-1.0625 0 -1.71875 0.859375q-0.65625 0.84375 -0.65625 2.421875zm9.421875 -4.3125l0.046875 1.0625q0.96875 -1.21875 2.53125 -1.21875q2.671875 0 2.703125 3.015625l0 5.59375l-1.453125 0l0 -5.59375q0 -0.921875 -0.421875 -1.359375q-0.40625 -0.4375 -1.265625 -0.4375q-0.703125 0 -1.234375 0.375q-0.53125 0.375 -0.828125 0.984375l0 6.03125l-1.453125 0l0 -8.453125l1.375 0z" fill-rule="nonzero"/><path fill="#000000" d="m106.50485 357.9558l-1.5 0l-5.734375 -8.765625l0 8.765625l-1.5 0l0 -11.375l1.5 0l5.75 8.796875l0 -8.796875l1.484375 0l0 11.375zm2.0625 -4.3125q0 -1.234375 0.484375 -2.21875q0.484375 -1.0 1.359375 -1.53125q0.875 -0.546875 1.984375 -0.546875q1.734375 0 2.796875 1.203125q1.0625 1.1875 1.0625 3.171875l0 0.09375q0 1.234375 -0.46875 2.21875q-0.46875 0.984375 -1.359375 1.53125q-0.875 0.546875 -2.015625 0.546875q-1.71875 0 -2.78125 -1.1875q-1.0625 -1.203125 -1.0625 -3.171875l0 -0.109375zm1.453125 0.171875q0 1.40625 0.640625 2.265625q0.65625 0.84375 1.75 0.84375q1.109375 0 1.75 -0.859375q0.65625 -0.859375 0.65625 -2.421875q0 -1.390625 -0.671875 -2.25q-0.65625 -0.859375 -1.75 -0.859375q-1.0625 0 -1.71875 0.859375q-0.65625 0.84375 -0.65625 2.421875zm20.632812 2.640625q-0.578125 0.828125 -1.609375 1.25q-1.03125 0.40625 -2.40625 0.40625q-1.390625 0 -2.46875 -0.65625q-1.078125 -0.65625 -1.671875 -1.859375q-0.59375 -1.203125 -0.609375 -2.78125l0 -1.0q0 -2.5625 1.203125 -3.96875q1.203125 -1.421875 3.375 -1.421875q1.78125 0 2.859375 0.90625q1.09375 0.90625 1.328125 2.578125l-1.5 0q-0.421875 -2.25 -2.6875 -2.25q-1.5 0 -2.28125 1.0625q-0.78125 1.046875 -0.78125 3.0625l0 0.921875q0 1.921875 0.875 3.046875q0.875 1.125 2.359375 1.125q0.84375 0 1.46875 -0.1875q0.640625 -0.1875 1.0625 -0.625l0 -2.5625l-2.640625 0l0 -1.21875l4.125 0l0 4.171875zm3.8515625 1.5l-1.453125 0l0 -12.0l1.453125 0l0 12.0zm1.9296875 -4.3125q0 -1.234375 0.484375 -2.21875q0.484375 -1.0 1.359375 -1.53125q0.875 -0.546875 1.984375 -0.546875q1.734375 0 2.796875 1.203125q1.0625 1.1875 1.0625 3.171875l0 0.09375q0 1.234375 -0.46875 2.21875q-0.46875 0.984375 -1.359375 1.53125q-0.875 0.546875 -2.015625 0.546875q-1.71875 0 -2.78125 -1.1875q-1.0625 -1.203125 -1.0625 -3.171875l0 -0.109375zm1.453125 0.171875q0 1.40625 0.640625 2.265625q0.65625 0.84375 1.75 0.84375q1.109375 0 1.75 -0.859375q0.65625 -0.859375 0.65625 -2.421875q0 -1.390625 -0.671875 -2.25q-0.65625 -0.859375 -1.75 -0.859375q-1.0625 0 -1.71875 0.859375q-0.65625 0.84375 -0.65625 2.421875zm15.203125 0q0 1.9375 -0.890625 3.125q-0.890625 1.171875 -2.390625 1.171875q-1.59375 0 -2.46875 -1.140625l-0.078125 0.984375l-1.328125 0l0 -12.0l1.453125 0l0 4.46875q0.875 -1.078125 2.40625 -1.078125q1.546875 0 2.421875 1.171875q0.875 1.15625 0.875 3.171875l0 0.125zm-1.4375 -0.15625q0 -1.484375 -0.578125 -2.28125q-0.5625 -0.8125 -1.640625 -0.8125q-1.421875 0 -2.046875 1.328125l0 3.65625q0.65625 1.328125 2.0625 1.328125q1.046875 0 1.625 -0.796875q0.578125 -0.8125 0.578125 -2.421875zm8.4765625 4.296875q-0.125 -0.25 -0.203125 -0.890625q-1.0 1.046875 -2.40625 1.046875q-1.25 0 -2.046875 -0.703125q-0.796875 -0.71875 -0.796875 -1.796875q0 -1.328125 1.0 -2.046875q1.0 -0.734375 2.828125 -0.734375l1.40625 0l0 -0.671875q0 -0.75 -0.453125 -1.203125q-0.453125 -0.453125 -1.34375 -0.453125q-0.765625 0 -1.296875 0.390625q-0.515625 0.390625 -0.515625 0.953125l-1.453125 0q0 -0.640625 0.4375 -1.21875q0.453125 -0.59375 1.21875 -0.9375q0.78125 -0.34375 1.703125 -0.34375q1.453125 0 2.28125 0.734375q0.828125 0.71875 0.859375 2.0l0 3.890625q0 1.171875 0.296875 1.859375l0 0.125l-1.515625 0zm-2.390625 -1.109375q0.671875 0 1.28125 -0.34375q0.609375 -0.359375 0.890625 -0.921875l0 -1.734375l-1.140625 0q-2.65625 0 -2.65625 1.5625q0 0.671875 0.453125 1.0625q0.453125 0.375 1.171875 0.375zm7.453125 1.109375l-1.453125 0l0 -12.0l1.453125 0l0 12.0zm8.109375 0l-1.5 0l0 -11.375l1.5 0l0 11.375zm4.0859375 0l-1.453125 0l0 -12.0l1.453125 0l0 12.0zm3.8828125 0l-1.453125 0l0 -12.0l1.453125 0l0 12.0zm7.5234375 -0.84375q-0.84375 1.0 -2.46875 1.0q-1.359375 0 -2.0625 -0.78125q-0.703125 -0.796875 -0.71875 -2.328125l0 -5.5l1.453125 0l0 5.453125q0 1.921875 1.5625 1.921875q1.65625 0 2.203125 -1.234375l0 -6.140625l1.4375 0l0 8.453125l-1.375 0l-0.03125 -0.84375zm4.9609375 -7.609375l0.046875 0.9375q0.921875 -1.09375 2.5 -1.09375q1.78125 0 2.421875 1.359375q0.421875 -0.609375 1.09375 -0.984375q0.671875 -0.375 1.59375 -0.375q2.78125 0 2.828125 2.9375l0 5.671875l-1.4375 0l0 -5.578125q0 -0.90625 -0.421875 -1.359375q-0.40625 -0.453125 -1.390625 -0.453125q-0.796875 0 -1.328125 0.484375q-0.53125 0.484375 -0.625 1.296875l0 5.609375l-1.453125 0l0 -5.546875q0 -1.84375 -1.796875 -1.84375q-1.421875 0 -1.953125 1.21875l0 6.171875l-1.4375 0l0 -8.453125l1.359375 0zm14.2421875 8.453125l-1.453125 0l0 -8.453125l1.453125 0l0 8.453125zm-1.5625 -10.703125q0 -0.34375 0.203125 -0.578125q0.21875 -0.25 0.640625 -0.25q0.421875 0 0.640625 0.25q0.21875 0.234375 0.21875 0.59375q0 0.34375 -0.21875 0.578125q-0.21875 0.234375 -0.640625 0.234375q-0.421875 0 -0.640625 -0.234375q-0.203125 -0.234375 -0.203125 -0.59375zm5.2421875 2.25l0.046875 1.0625q0.96875 -1.21875 2.53125 -1.21875q2.671875 0 2.703125 3.015625l0 5.59375l-1.453125 0l0 -5.59375q0 -0.921875 -0.421875 -1.359375q-0.40625 -0.4375 -1.265625 -0.4375q-0.703125 0 -1.234375 0.375q-0.53125 0.375 -0.828125 0.984375l0 6.03125l-1.453125 0l0 -8.453125l1.375 0zm12.671875 8.453125q-0.125 -0.25 -0.203125 -0.890625q-1.0 1.046875 -2.40625 1.046875q-1.25 0 -2.046875 -0.703125q-0.796875 -0.71875 -0.796875 -1.796875q0 -1.328125 1.0 -2.046875q1.0 -0.734375 2.828125 -0.734375l1.40625 0l0 -0.671875q0 -0.75 -0.453125 -1.203125q-0.453125 -0.453125 -1.34375 -0.453125q-0.765625 0 -1.296875 0.390625q-0.515625 0.390625 -0.515625 0.953125l-1.453125 0q0 -0.640625 0.4375 -1.21875q0.453125 -0.59375 1.21875 -0.9375q0.78125 -0.34375 1.703125 -0.34375q1.453125 0 2.28125 0.734375q0.828125 0.71875 0.859375 2.0l0 3.890625q0 1.171875 0.296875 1.859375l0 0.125l-1.515625 0zm-2.390625 -1.109375q0.671875 0 1.28125 -0.34375q0.609375 -0.359375 0.890625 -0.921875l0 -1.734375l-1.140625 0q-2.65625 0 -2.65625 1.5625q0 0.671875 0.453125 1.0625q0.453125 0.375 1.171875 0.375zm7.84375 -9.390625l0 2.046875l1.578125 0l0 1.109375l-1.578125 0l0 5.25q0 0.5 0.203125 0.765625q0.21875 0.25 0.71875 0.25q0.25 0 0.6875 -0.09375l0 1.171875q-0.5625 0.15625 -1.109375 0.15625q-0.96875 0 -1.46875 -0.578125q-0.484375 -0.59375 -0.484375 -1.671875l0 -5.25l-1.53125 0l0 -1.109375l1.53125 0l0 -2.046875l1.453125 0zm4.8359375 10.5l-1.453125 0l0 -8.453125l1.453125 0l0 8.453125zm-1.5625 -10.703125q0 -0.34375 0.203125 -0.578125q0.21875 -0.25 0.640625 -0.25q0.421875 0 0.640625 0.25q0.21875 0.234375 0.21875 0.59375q0 0.34375 -0.21875 0.578125q-0.21875 0.234375 -0.640625 0.234375q-0.421875 0 -0.640625 -0.234375q-0.203125 -0.234375 -0.203125 -0.59375zm3.4921875 6.390625q0 -1.234375 0.484375 -2.21875q0.484375 -1.0 1.359375 -1.53125q0.875 -0.546875 1.984375 -0.546875q1.734375 0 2.796875 1.203125q1.0625 1.1875 1.0625 3.171875l0 0.09375q0 1.234375 -0.46875 2.21875q-0.46875 0.984375 -1.359375 1.53125q-0.875 0.546875 -2.015625 0.546875q-1.71875 0 -2.78125 -1.1875q-1.0625 -1.203125 -1.0625 -3.171875l0 -0.109375zm1.453125 0.171875q0 1.40625 0.640625 2.265625q0.65625 0.84375 1.75 0.84375q1.109375 0 1.75 -0.859375q0.65625 -0.859375 0.65625 -2.421875q0 -1.390625 -0.671875 -2.25q-0.65625 -0.859375 -1.75 -0.859375q-1.0625 0 -1.71875 0.859375q-0.65625 0.84375 -0.65625 2.421875zm9.421875 -4.3125l0.046875 1.0625q0.96875 -1.21875 2.53125 -1.21875q2.671875 0 2.703125 3.015625l0 5.59375l-1.453125 0l0 -5.59375q0 -0.921875 -0.421875 -1.359375q-0.40625 -0.4375 -1.265625 -0.4375q-0.703125 0 -1.234375 0.375q-0.53125 0.375 -0.828125 0.984375l0 6.03125l-1.453125 0l0 -8.453125l1.375 0z" fill-rule="nonzero"/><path fill="#6aa84f" d="m333.90552 140.04738l0 0c0 -3.745758 3.0365295 -6.7822876 6.7822876 -6.7822876l189.77399 0c1.7987671 0 3.5238647 0.71455383 4.7958374 1.9864807c1.2719116 1.2719269 1.9864502 2.9970398 1.9864502 4.795807l0 27.128342c0 3.745758 -3.036499 6.7822876 -6.7822876 6.7822876l-189.77399 0l0 0c-3.745758 0 -6.7822876 -3.0365295 -6.7822876 -6.7822876z" fill-rule="evenodd"/><path stroke="#666666" stroke-width="1.0" stroke-linejoin="round" stroke-linecap="butt" d="m333.90552 140.04738l0 0c0 -3.745758 3.0365295 -6.7822876 6.7822876 -6.7822876l189.77399 0c1.7987671 0 3.5238647 0.71455383 4.7958374 1.9864807c1.2719116 1.2719269 1.9864502 2.9970398 1.9864502 4.795807l0 27.128342c0 3.745758 -3.036499 6.7822876 -6.7822876 6.7822876l-189.77399 0l0 0c-3.745758 0 -6.7822876 -3.0365295 -6.7822876 -6.7822876z" fill-rule="evenodd"/><path fill="#ffffff" d="m364.1701 160.53154l0 -13.265625l4.546875 0q2.25 0 3.421875 0.90625q1.1875 0.90625 1.1875 2.6875q0 0.90625 -0.5 1.640625q-0.484375 0.71875 -1.4375 1.125q1.078125 0.296875 1.65625 1.109375q0.59375 0.796875 0.59375 1.921875q0 1.875 -1.203125 2.875q-1.1875 1.0 -3.421875 1.0l-4.84375 0zm2.3125 -5.984375l0 4.140625l2.5625 0q1.078125 0 1.6875 -0.53125q0.609375 -0.546875 0.609375 -1.5q0 -2.0625 -2.109375 -2.109375l-2.75 0zm0 -1.6875l2.25 0q1.078125 0 1.6875 -0.484375q0.609375 -0.5 0.609375 -1.390625q0 -0.984375 -0.5625 -1.421875q-0.5625 -0.4375 -1.75 -0.4375l-2.234375 0l0 3.734375zm15.128845 7.671875q-0.140625 -0.28125 -0.25 -0.921875q-1.046875 1.109375 -2.578125 1.109375q-1.484375 0 -2.4375 -0.84375q-0.9375 -0.859375 -0.9375 -2.109375q0 -1.578125 1.171875 -2.40625q1.171875 -0.84375 3.359375 -0.84375l1.359375 0l0 -0.65625q0 -0.765625 -0.4375 -1.21875q-0.421875 -0.46875 -1.296875 -0.46875q-0.765625 0 -1.25 0.390625q-0.46875 0.375 -0.46875 0.953125l-2.21875 0q0 -0.8125 0.53125 -1.515625q0.546875 -0.703125 1.46875 -1.09375q0.921875 -0.40625 2.0625 -0.40625q1.734375 0 2.75 0.875q1.03125 0.859375 1.0625 2.4375l0 4.4375q0 1.328125 0.375 2.125l0 0.15625l-2.265625 0zm-2.421875 -1.59375q0.65625 0 1.234375 -0.3125q0.578125 -0.328125 0.875 -0.859375l0 -1.859375l-1.203125 0q-1.234375 0 -1.859375 0.4375q-0.609375 0.421875 -0.609375 1.203125q0 0.640625 0.421875 1.015625q0.421875 0.375 1.140625 0.375zm9.843323 -2.640625l-0.984375 1.015625l0 3.21875l-2.21875 0l0 -14.0l2.21875 0l0 8.078125l0.6875 -0.859375l2.71875 -3.078125l2.65625 0l-3.65625 4.109375l4.046875 5.75l-2.546875 0l-2.921875 -4.234375zm10.863068 4.421875q-2.09375 0 -3.40625 -1.328125q-1.3125 -1.328125 -1.3125 -3.53125l0 -0.28125q0 -1.46875 0.5625 -2.625q0.578125 -1.171875 1.609375 -1.8125q1.03125 -0.640625 2.296875 -0.640625q2.015625 0 3.109375 1.28125q1.09375 1.28125 1.09375 3.625l0 0.890625l-6.4375 0q0.109375 1.234375 0.8125 1.953125q0.71875 0.703125 1.8125 0.703125q1.515625 0 2.46875 -1.234375l1.203125 1.140625q-0.59375 0.875 -1.59375 1.375q-0.984375 0.484375 -2.21875 0.484375zm-0.265625 -8.453125q-0.90625 0 -1.46875 0.640625q-0.5625 0.640625 -0.703125 1.78125l4.203125 0l0 -0.171875q-0.0625 -1.109375 -0.59375 -1.671875q-0.515625 -0.578125 -1.4375 -0.578125zm5.526947 3.265625q0 -2.28125 1.046875 -3.65625q1.0625 -1.375 2.84375 -1.375q1.5625 0 2.53125 1.078125l0 -5.046875l2.21875 0l0 14.0l-2.015625 0l-0.109375 -1.015625q-0.984375 1.203125 -2.640625 1.203125q-1.734375 0 -2.8125 -1.390625q-1.0625 -1.40625 -1.0625 -3.796875zm2.21875 0.1875q0 1.5 0.578125 2.34375q0.578125 0.84375 1.640625 0.84375q1.359375 0 1.984375 -1.203125l0 -4.21875q-0.609375 -1.171875 -1.96875 -1.171875q-1.078125 0 -1.65625 0.859375q-0.578125 0.84375 -0.578125 2.546875zm15.723297 4.8125l-2.203125 0l0 -14.0l2.203125 0l0 14.0zm4.764282 0l-2.203125 0l0 -9.859375l2.203125 0l0 9.859375zm-2.34375 -12.421875q0 -0.5 0.3125 -0.828125q0.328125 -0.34375 0.921875 -0.34375q0.609375 0 0.9375 0.34375q0.328125 0.328125 0.328125 0.828125q0 0.5 -0.328125 0.84375q-0.328125 0.328125 -0.9375 0.328125q-0.59375 0 -0.921875 -0.328125q-0.3125 -0.34375 -0.3125 -0.84375zm4.3736267 7.421875q0 -2.296875 1.078125 -3.65625q1.078125 -1.375 2.859375 -1.375q1.6875 0 2.65625 1.171875l0.09375 -1.0l2.0 0l0 9.5625q0 1.9375 -1.21875 3.046875q-1.203125 1.125 -3.25 1.125q-1.078125 0 -2.109375 -0.453125q-1.03125 -0.4375 -1.578125 -1.171875l1.046875 -1.328125q1.03125 1.203125 2.515625 1.203125q1.109375 0 1.734375 -0.59375q0.640625 -0.59375 0.640625 -1.75l0 -0.671875q-0.953125 1.078125 -2.546875 1.078125q-1.734375 0 -2.828125 -1.375q-1.09375 -1.375 -1.09375 -3.8125zm2.203125 0.1875q0 1.484375 0.59375 2.34375q0.609375 0.84375 1.6875 0.84375q1.34375 0 1.984375 -1.140625l0 -4.34375q-0.625 -1.109375 -1.96875 -1.109375q-1.09375 0 -1.703125 0.859375q-0.59375 0.859375 -0.59375 2.546875zm10.935516 -3.96875q1.09375 -1.25 2.75 -1.25q3.140625 0 3.1875 3.59375l0 6.4375l-2.203125 0l0 -6.359375q0 -1.015625 -0.453125 -1.4375q-0.4375 -0.421875 -1.296875 -0.421875q-1.328125 0 -1.984375 1.171875l0 7.046875l-2.203125 0l0 -14.0l2.203125 0l0 5.21875zm10.951233 -3.46875l0 2.390625l1.734375 0l0 1.640625l-1.734375 0l0 5.5q0 0.5625 0.21875 0.8125q0.234375 0.25 0.796875 0.25q0.390625 0 0.78125 -0.078125l0 1.703125q-0.75 0.21875 -1.453125 0.21875q-2.5625 0 -2.5625 -2.8125l0 -5.59375l-1.609375 0l0 -1.640625l1.609375 0l0 -2.390625l2.21875 0zm10.161926 2.390625l0.0625 1.03125q1.03125 -1.203125 2.84375 -1.203125q1.96875 0 2.703125 1.5q1.078125 -1.5 3.015625 -1.5q1.640625 0 2.4375 0.90625q0.796875 0.890625 0.8125 2.640625l0 6.484375l-2.21875 0l0 -6.40625q0 -0.9375 -0.40625 -1.375q-0.40625 -0.4375 -1.359375 -0.4375q-0.75 0 -1.234375 0.40625q-0.46875 0.390625 -0.671875 1.046875l0.015625 6.765625l-2.21875 0l0 -6.484375q-0.046875 -1.734375 -1.765625 -1.734375q-1.328125 0 -1.890625 1.078125l0 7.140625l-2.21875 0l0 -9.859375l2.09375 0zm13.733124 4.84375q0 -1.453125 0.578125 -2.609375q0.578125 -1.171875 1.609375 -1.78125q1.03125 -0.625 2.390625 -0.625q1.984375 0 3.234375 1.28125q1.25 1.28125 1.34375 3.40625l0.015625 0.515625q0 1.453125 -0.5625 2.609375q-0.5625 1.140625 -1.609375 1.78125q-1.046875 0.625 -2.40625 0.625q-2.09375 0 -3.34375 -1.390625q-1.25 -1.390625 -1.25 -3.703125l0 -0.109375zm2.21875 0.1875q0 1.515625 0.625 2.390625q0.625 0.859375 1.75 0.859375q1.125 0 1.734375 -0.875q0.625 -0.875 0.625 -2.5625q0 -1.5 -0.640625 -2.375q-0.640625 -0.875 -1.734375 -0.875q-1.09375 0 -1.734375 0.859375q-0.625 0.859375 -0.625 2.578125zm8.402924 -0.171875q0 -2.28125 1.046875 -3.65625q1.0625 -1.375 2.84375 -1.375q1.5625 0 2.53125 1.078125l0 -5.046875l2.21875 0l0 14.0l-2.015625 0l-0.109375 -1.015625q-0.984375 1.203125 -2.640625 1.203125q-1.734375 0 -2.8125 -1.390625q-1.0625 -1.40625 -1.0625 -3.796875zm2.21875 0.1875q0 1.5 0.578125 2.34375q0.578125 0.84375 1.640625 0.84375q1.359375 0 1.984375 -1.203125l0 -4.21875q-0.609375 -1.171875 -1.96875 -1.171875q-1.078125 0 -1.65625 0.859375q-0.578125 0.84375 -0.578125 2.546875zm13.061829 5.0q-2.09375 0 -3.40625 -1.328125q-1.3125 -1.328125 -1.3125 -3.53125l0 -0.28125q0 -1.46875 0.5625 -2.625q0.578125 -1.171875 1.609375 -1.8125q1.03125 -0.640625 2.296875 -0.640625q2.015625 0 3.109375 1.28125q1.09375 1.28125 1.09375 3.625l0 0.890625l-6.4375 0q0.109375 1.234375 0.8125 1.953125q0.71875 0.703125 1.8125 0.703125q1.515625 0 2.46875 -1.234375l1.203125 1.140625q-0.59375 0.875 -1.59375 1.375q-0.984375 0.484375 -2.21875 0.484375zm-0.265625 -8.453125q-0.90625 0 -1.46875 0.640625q-0.5625 0.640625 -0.703125 1.78125l4.203125 0l0 -0.171875q-0.0625 -1.109375 -0.59375 -1.671875q-0.515625 -0.578125 -1.4375 -0.578125z" fill-rule="nonzero"/><path fill="#e69138" d="m548.9239 140.07478l0 0c0 -3.742859 3.0341797 -6.7775116 6.7770386 -6.7780914l189.78448 -0.029403687c1.7974243 -2.746582E-4 3.5211792 0.71347046 4.7921143 1.9842072c1.270935 1.270752 1.9849243 2.9944 1.9849243 4.791794l0 27.10733c0 3.742859 -3.0341797 6.7775116 -6.7770386 6.7780914l-189.78448 0.029403687l0 0c-3.742859 5.79834E-4 -6.7770386 -3.033142 -6.7770386 -6.776001z" fill-rule="evenodd"/><path stroke="#666666" stroke-width="1.0" stroke-linejoin="round" stroke-linecap="butt" d="m548.9239 140.07478l0 0c0 -3.742859 3.0341797 -6.7775116 6.7770386 -6.7780914l189.78448 -0.029403687c1.7974243 -2.746582E-4 3.5211792 0.71347046 4.7921143 1.9842072c1.270935 1.270752 1.9849243 2.9944 1.9849243 4.791794l0 27.10733c0 3.742859 -3.0341797 6.7775116 -6.7770386 6.7780914l-189.78448 0.029403687l0 0c-3.742859 5.79834E-4 -6.7770386 -3.033142 -6.7770386 -6.776001z" fill-rule="evenodd"/><path fill="#ffffff" d="m582.7487 147.27759l3.8125 10.17128l3.828125 -10.17247l2.96875 -4.5776367E-4l0 13.265625l-2.296875 3.5095215E-4l0 -4.375l0.234375 -5.8437805l-3.921875 10.21936l-1.640625 2.4414062E-4l-3.90625 -10.21814l0.21875 5.8437195l0 4.375l-2.296875 3.5095215E-4l0 -13.265625l3.0 -4.5776367E-4zm15.473938 13.263229l-2.203125 3.3569336E-4l0 -9.859375l2.203125 -3.3569336E-4l0 9.859375zm-2.34375 -12.421524q0 -0.5 0.3125 -0.8281708q0.328125 -0.34379578 0.921875 -0.34388733q0.609375 -9.1552734E-5 0.9375 0.3435974q0.328125 0.32807922 0.328125 0.8280792q0 0.5 -0.328125 0.8437958q-0.328125 0.32818604 -0.9375 0.3282776q-0.59375 9.1552734E-5 -0.921875 -0.32798767q-0.3125 -0.34370422 -0.3125 -0.8437042zm8.295532 5.8112183l1.875 -3.25029l2.46875 -3.8146973E-4l-3.015625 4.859848l3.109375 4.9995117l-2.4375 3.8146973E-4l-1.96875 -3.3746948l-1.96875 3.3753052l-2.453125 3.8146973E-4l3.109375 -5.0004883l-3.0 -4.858902l2.4375 -3.8146973E-4l1.84375 3.24971zm10.179626 6.7953033q-2.09375 3.2043457E-4 -3.40625 -1.3276062q-1.3125 -1.3279114 -1.3125 -3.5310364l0 -0.28125q0 -1.46875 0.5625 -2.6250916q0.578125 -1.1719666 1.609375 -1.8127441q1.03125 -0.64079285 2.296875 -0.6409912q2.015625 -3.0517578E-4 3.109375 1.280777q1.09375 1.2810822 1.09375 3.6248322l0 0.890625l-6.4375 9.918213E-4q0.109375 1.2343597 0.8125 1.9530029q0.71875 0.7030182 1.8125 0.7028351q1.515625 -2.2888184E-4 2.46875 -1.2347565l1.203125 1.1404419q-0.59375 0.87509155 -1.59375 1.3752441q-0.984375 0.4845276 -2.21875 0.48472595zm-0.265625 -8.453079q-0.90625 1.373291E-4 -1.46875 0.6408386q-0.5625 0.64071655 -0.703125 1.7813721l4.203125 -6.5612793E-4l0 -0.171875q-0.0625 -1.1093597 -0.59375 -1.6717834q-0.515625 -0.5780487 -1.4375 -0.5778961zm5.5269775 3.2647552q0 -2.28125 1.046875 -3.6564026q1.0625 -1.3751678 2.84375 -1.3754425q1.5625 -2.4414062E-4 2.53125 1.0777283l0 -5.046875l2.21875 -3.3569336E-4l0 14.0l-2.015625 3.0517578E-4l-0.109375 -1.0156097q-0.984375 1.2032776 -2.640625 1.203537q-1.734375 2.746582E-4 -2.8125 -1.3901825q-1.0625 -1.4060974 -1.0625 -3.7967224zm2.21875 0.1871643q0 1.5 0.578125 2.3436584q0.578125 0.84365845 1.640625 0.8434906q1.359375 -1.9836426E-4 1.984375 -1.2034302l0 -4.21875q-0.609375 -1.1717834 -1.96875 -1.1715698q-1.078125 1.6784668E-4 -1.65625 0.8596344q-0.578125 0.84384155 -0.578125 2.5469666zm15.723328 4.8100586l-2.203125 3.5095215E-4l0 -14.0l2.203125 -3.5095215E-4l0 14.0zm4.764221 -7.324219E-4l-2.203125 3.3569336E-4l0 -9.859375l2.203125 -3.3569336E-4l0 9.859375zm-2.34375 -12.421509q0 -0.5 0.3125 -0.8281708q0.328125 -0.34381104 0.921875 -0.3439026q0.609375 -9.1552734E-5 0.9375 0.34361267q0.328125 0.32806396 0.328125 0.82806396q0 0.5 -0.328125 0.84381104q-0.328125 0.32817078 -0.9375 0.32826233q-0.59375 9.1552734E-5 -0.921875 -0.3279724q-0.3125 -0.34370422 -0.3125 -0.8437042zm4.373657 7.4211884q0 -2.296875 1.078125 -3.6564178q1.078125 -1.3751678 2.859375 -1.3754425q1.6875 -2.593994E-4 2.65625 1.171463l0.09375 -1.0000153l2.0 -3.0517578E-4l0 9.5625q0 1.9375 -1.21875 3.0470734q-1.203125 1.1251831 -3.25 1.1254883q-1.078125 1.6784668E-4 -2.109375 -0.4527893q-1.03125 -0.4373474 -1.578125 -1.1716309l1.046875 -1.3282928q1.03125 1.2029724 2.515625 1.2027435q1.109375 -1.6784668E-4 1.734375 -0.59402466q0.640625 -0.59384155 0.640625 -1.7500916l0 -0.671875q-0.953125 1.0782623 -2.546875 1.0785217q-1.734375 2.593994E-4 -2.828125 -1.3745728q-1.09375 -1.3748322 -1.09375 -3.8123322zm2.203125 0.1871643q0 1.484375 0.59375 2.3436584q0.609375 0.84365845 1.6875 0.8434906q1.34375 -2.1362305E-4 1.984375 -1.1409302l0 -4.34375q-0.625 -1.1092834 -1.96875 -1.1090698q-1.09375 1.6784668E-4 -1.703125 0.8596344q-0.59375 0.85946655 -0.59375 2.5469666zm10.935486 -3.9704437q1.09375 -1.2501678 2.75 -1.2504272q3.140625 -4.8828125E-4 3.1875 3.5932617l0 6.4375l-2.203125 3.3569336E-4l0 -6.359375q0 -1.015625 -0.453125 -1.4374237q-0.4375 -0.42181396 -1.296875 -0.42167664q-1.328125 1.9836426E-4 -1.984375 1.1721802l0 7.046875l-2.203125 3.3569336E-4l0 -14.0l2.203125 -3.3569336E-4l0 5.21875zm10.951294 -3.4704437l0 2.390625l1.734375 -2.746582E-4l0 1.640625l-1.734375 2.746582E-4l0 5.5q0 0.5625 0.21875 0.8124695q0.234375 0.24995422 0.796875 0.24986267q0.390625 -4.5776367E-5 0.78125 -0.07823181l0 1.703125q-0.75 0.21885681 -1.453125 0.21896362q-2.5625 3.9672852E-4 -2.5625 -2.8121033l0 -5.59375l-1.609375 2.593994E-4l0 -1.640625l1.609375 -2.593994E-4l0 -2.390625l2.21875 -3.3569336E-4zm10.161865 2.3890533l0.0625 1.0312347q1.03125 -1.2032776 2.84375 -1.2035675q1.96875 -3.0517578E-4 2.703125 1.499588q1.078125 -1.5001678 3.015625 -1.500473q1.640625 -2.593994E-4 2.4375 0.90586853q0.796875 0.8905029 0.8125 2.640503l0 6.484375l-2.21875 3.5095215E-4l0 -6.40625q0 -0.9375 -0.40625 -1.374939q-0.40625 -0.43743896 -1.359375 -0.43728638q-0.75 1.0681152E-4 -1.234375 0.4064331q-0.46875 0.3907013 -0.671875 1.0469818l0.015625 6.765625l-2.21875 3.3569336E-4l0 -6.484375q-0.046875 -1.7343597 -1.765625 -1.7341003q-1.328125 2.1362305E-4 -1.890625 1.0784149l0 7.140625l-2.21875 3.5095215E-4l0 -9.859375l2.09375 -3.2043457E-4zm13.733154 4.841614q0 -1.453125 0.578125 -2.6094666q0.578125 -1.1719666 1.609375 -1.7814941q1.03125 -0.6251526 2.390625 -0.6253662q1.984375 -3.0517578E-4 3.234375 1.2807465q1.25 1.2810516 1.34375 3.4060364l0.015625 0.515625q0 1.453125 -0.5625 2.6094666q-0.5625 1.1407166 -1.609375 1.7814941q-1.046875 0.62516785 -2.40625 0.62538147q-2.09375 3.2043457E-4 -3.34375 -1.3901062q-1.25 -1.3904419 -1.25 -3.702942l0 -0.109375zm2.21875 0.1871643q0 1.515625 0.625 2.3905182q0.625 0.85928345 1.75 0.8591156q1.125 -1.8310547E-4 1.734375 -0.87527466q0.625 -0.87509155 0.625 -2.5625916q0 -1.5 -0.640625 -2.3749084q-0.640625 -0.8748932 -1.734375 -0.87472534q-1.09375 1.6784668E-4 -1.734375 0.8596344q-0.625 0.8594818 -0.625 2.5782318zm8.402893 -0.17318726q0 -2.28125 1.046875 -3.6564026q1.0625 -1.3751678 2.84375 -1.3754425q1.5625 -2.4414062E-4 2.53125 1.0777283l0 -5.046875l2.21875 -3.3569336E-4l0 14.0l-2.015625 3.0517578E-4l-0.109375 -1.0156097q-0.984375 1.2032776 -2.640625 1.203537q-1.734375 2.746582E-4 -2.8125 -1.3901825q-1.0625 -1.4060974 -1.0625 -3.7967224zm2.21875 0.1871643q0 1.5 0.578125 2.3436584q0.578125 0.84365845 1.640625 0.8434906q1.359375 -1.9836426E-4 1.984375 -1.2034302l0 -4.21875q-0.609375 -1.1717834 -1.96875 -1.1715698q-1.078125 1.6784668E-4 -1.65625 0.8596344q-0.578125 0.84384155 -0.578125 2.5469666zm13.061829 4.9979706q-2.09375 3.3569336E-4 -3.40625 -1.327591q-1.3125 -1.3279266 -1.3125 -3.5310516l0 -0.28125q0 -1.46875 0.5625 -2.6250916q0.578125 -1.1719513 1.609375 -1.8127441q1.03125 -0.6407776 2.296875 -0.64097595q2.015625 -3.2043457E-4 3.109375 1.2807617q1.09375 1.2810822 1.09375 3.6248322l0 0.890625l-6.4375 9.918213E-4q0.109375 1.2343597 0.8125 1.9530029q0.71875 0.7030182 1.8125 0.70285034q1.515625 -2.4414062E-4 2.46875 -1.2347565l1.203125 1.1404419q-0.59375 0.87509155 -1.59375 1.3752441q-0.984375 0.4845276 -2.21875 0.4847107zm-0.265625 -8.453079q-0.90625 1.373291E-4 -1.46875 0.6408539q-0.5625 0.64071655 -0.703125 1.7813568l4.203125 -6.5612793E-4l0 -0.171875q-0.0625 -1.1093597 -0.59375 -1.6717834q-0.515625 -0.57803345 -1.4375 -0.5778961z" fill-rule="nonzero"/><path fill="#a64d79" d="m763.94226 140.04738l0 0c0 -3.745758 3.03656 -6.7822876 6.7822876 -6.7822876l189.77399 0c1.7987671 0 3.5238647 0.71455383 4.7958374 1.9864807c1.2719116 1.2719269 1.9864502 2.9970398 1.9864502 4.795807l0 27.128342c0 3.745758 -3.036499 6.7822876 -6.7822876 6.7822876l-189.77399 0l0 0c-3.7457275 0 -6.7822876 -3.0365295 -6.7822876 -6.7822876z" fill-rule="evenodd"/><path stroke="#666666" stroke-width="1.0" stroke-linejoin="round" stroke-linecap="butt" d="m763.94226 140.04738l0 0c0 -3.745758 3.03656 -6.7822876 6.7822876 -6.7822876l189.77399 0c1.7987671 0 3.5238647 0.71455383 4.7958374 1.9864807c1.2719116 1.2719269 1.9864502 2.9970398 1.9864502 4.795807l0 27.128342c0 3.745758 -3.036499 6.7822876 -6.7822876 6.7822876l-189.77399 0l0 0c-3.7457275 0 -6.7822876 -3.0365295 -6.7822876 -6.7822876z" fill-rule="evenodd"/><path fill="#ffffff" d="m788.2917 155.42216l-2.5625 0l0 5.109375l-2.3125 0l0 -13.265625l4.671875 0q2.296875 0 3.53125 1.03125q1.25 1.03125 1.25 2.984375q0 1.328125 -0.640625 2.234375q-0.640625 0.890625 -1.78125 1.375l2.96875 5.515625l0 0.125l-2.46875 0l-2.65625 -5.109375zm-2.5625 -1.84375l2.359375 0q1.171875 0 1.828125 -0.59375q0.65625 -0.59375 0.65625 -1.609375q0 -1.0625 -0.609375 -1.640625q-0.609375 -0.59375 -1.8125 -0.609375l-2.421875 0l0 4.453125zm13.454407 7.140625q-2.09375 0 -3.40625 -1.328125q-1.3125 -1.328125 -1.3125 -3.53125l0 -0.28125q0 -1.46875 0.5625 -2.625q0.578125 -1.171875 1.609375 -1.8125q1.03125 -0.640625 2.296875 -0.640625q2.015625 0 3.109375 1.28125q1.09375 1.28125 1.09375 3.625l0 0.890625l-6.4375 0q0.109375 1.234375 0.8125 1.953125q0.71875 0.703125 1.8125 0.703125q1.515625 0 2.46875 -1.234375l1.203125 1.140625q-0.59375 0.875 -1.59375 1.375q-0.984375 0.484375 -2.21875 0.484375zm-0.265625 -8.453125q-0.90625 0 -1.46875 0.640625q-0.5625 0.640625 -0.703125 1.78125l4.203125 0l0 -0.171875q-0.0625 -1.109375 -0.59375 -1.671875q-0.515625 -0.578125 -1.4375 -0.578125zm11.823853 8.265625q-0.140625 -0.28125 -0.25 -0.921875q-1.046875 1.109375 -2.578125 1.109375q-1.484375 0 -2.4375 -0.84375q-0.9375 -0.859375 -0.9375 -2.109375q0 -1.578125 1.171875 -2.40625q1.171875 -0.84375 3.359375 -0.84375l1.359375 0l0 -0.65625q0 -0.765625 -0.4375 -1.21875q-0.421875 -0.46875 -1.296875 -0.46875q-0.765625 0 -1.25 0.390625q-0.46875 0.375 -0.46875 0.953125l-2.21875 0q0 -0.8125 0.53125 -1.515625q0.546875 -0.703125 1.46875 -1.09375q0.921875 -0.40625 2.0625 -0.40625q1.734375 0 2.75 0.875q1.03125 0.859375 1.0625 2.4375l0 4.4375q0 1.328125 0.375 2.125l0 0.15625l-2.265625 0zm-2.421875 -1.59375q0.65625 0 1.234375 -0.3125q0.578125 -0.328125 0.875 -0.859375l0 -1.859375l-1.203125 0q-1.234375 0 -1.859375 0.4375q-0.609375 0.421875 -0.609375 1.203125q0 0.640625 0.421875 1.015625q0.421875 0.375 1.140625 0.375zm8.983948 1.59375l-2.203125 0l0 -14.0l2.203125 0l0 14.0zm5.186157 -12.25l0 2.390625l1.734375 0l0 1.640625l-1.734375 0l0 5.5q0 0.5625 0.21875 0.8125q0.234375 0.25 0.796875 0.25q0.390625 0 0.78125 -0.078125l0 1.703125q-0.75 0.21875 -1.453125 0.21875q-2.5625 0 -2.5625 -2.8125l0 -5.59375l-1.609375 0l0 -1.640625l1.609375 0l0 -2.390625l2.21875 0zm5.7816772 12.25l-2.203125 0l0 -9.859375l2.203125 0l0 9.859375zm-2.34375 -12.421875q0 -0.5 0.3125 -0.828125q0.328125 -0.34375 0.921875 -0.34375q0.609375 0 0.9375 0.34375q0.328125 0.328125 0.328125 0.828125q0 0.5 -0.328125 0.84375q-0.328125 0.328125 -0.9375 0.328125q-0.59375 0 -0.921875 -0.328125q-0.3125 -0.34375 -0.3125 -0.84375zm6.842407 2.5625l0.0625 1.03125q1.03125 -1.203125 2.84375 -1.203125q1.96875 0 2.703125 1.5q1.078125 -1.5 3.015625 -1.5q1.640625 0 2.4375 0.90625q0.796875 0.890625 0.8125 2.640625l0 6.484375l-2.21875 0l0 -6.40625q0 -0.9375 -0.40625 -1.375q-0.40625 -0.4375 -1.359375 -0.4375q-0.75 0 -1.234375 0.40625q-0.46875 0.390625 -0.671875 1.046875l0.015625 6.765625l-2.21875 0l0 -6.484375q-0.046875 -1.734375 -1.765625 -1.734375q-1.328125 0 -1.890625 1.078125l0 7.140625l-2.21875 0l0 -9.859375l2.09375 0zm18.483093 10.046875q-2.09375 0 -3.40625 -1.328125q-1.3125 -1.328125 -1.3125 -3.53125l0 -0.28125q0 -1.46875 0.5625 -2.625q0.578125 -1.171875 1.609375 -1.8125q1.03125 -0.640625 2.296875 -0.640625q2.015625 0 3.109375 1.28125q1.09375 1.28125 1.09375 3.625l0 0.890625l-6.4375 0q0.109375 1.234375 0.8125 1.953125q0.71875 0.703125 1.8125 0.703125q1.515625 0 2.46875 -1.234375l1.203125 1.140625q-0.59375 0.875 -1.59375 1.375q-0.984375 0.484375 -2.21875 0.484375zm-0.265625 -8.453125q-0.90625 0 -1.46875 0.640625q-0.5625 0.640625 -0.703125 1.78125l4.203125 0l0 -0.171875q-0.0625 -1.109375 -0.59375 -1.671875q-0.515625 -0.578125 -1.4375 -0.578125zm12.938416 8.265625l-2.203125 0l0 -14.0l2.203125 0l0 14.0zm4.764282 0l-2.203125 0l0 -9.859375l2.203125 0l0 9.859375zm-2.34375 -12.421875q0 -0.5 0.3125 -0.828125q0.328125 -0.34375 0.921875 -0.34375q0.609375 0 0.9375 0.34375q0.328125 0.328125 0.328125 0.828125q0 0.5 -0.328125 0.84375q-0.328125 0.328125 -0.9375 0.328125q-0.59375 0 -0.921875 -0.328125q-0.3125 -0.34375 -0.3125 -0.84375zm4.373657 7.421875q0 -2.296875 1.078125 -3.65625q1.078125 -1.375 2.859375 -1.375q1.6875 0 2.65625 1.171875l0.09375 -1.0l2.0 0l0 9.5625q0 1.9375 -1.21875 3.046875q-1.203125 1.125 -3.25 1.125q-1.078125 0 -2.109375 -0.453125q-1.03125 -0.4375 -1.578125 -1.171875l1.046875 -1.328125q1.03125 1.203125 2.515625 1.203125q1.109375 0 1.734375 -0.59375q0.640625 -0.59375 0.640625 -1.75l0 -0.671875q-0.953125 1.078125 -2.546875 1.078125q-1.734375 0 -2.828125 -1.375q-1.09375 -1.375 -1.09375 -3.8125zm2.203125 0.1875q0 1.484375 0.59375 2.34375q0.609375 0.84375 1.6875 0.84375q1.34375 0 1.984375 -1.140625l0 -4.34375q-0.625 -1.109375 -1.96875 -1.109375q-1.09375 0 -1.703125 0.859375q-0.59375 0.859375 -0.59375 2.546875zm10.935486 -3.96875q1.09375 -1.25 2.75 -1.25q3.140625 0 3.1875 3.59375l0 6.4375l-2.203125 0l0 -6.359375q0 -1.015625 -0.453125 -1.4375q-0.4375 -0.421875 -1.296875 -0.421875q-1.328125 0 -1.984375 1.171875l0 7.046875l-2.203125 0l0 -14.0l2.203125 0l0 5.21875zm10.951233 -3.46875l0 2.390625l1.734375 0l0 1.640625l-1.734375 0l0 5.5q0 0.5625 0.21875 0.8125q0.234375 0.25 0.796875 0.25q0.390625 0 0.78125 -0.078125l0 1.703125q-0.75 0.21875 -1.453125 0.21875q-2.5625 0 -2.5625 -2.8125l0 -5.59375l-1.609375 0l0 -1.640625l1.609375 0l0 -2.390625l2.21875 0zm10.161926 2.390625l0.0625 1.03125q1.03125 -1.203125 2.84375 -1.203125q1.96875 0 2.703125 1.5q1.078125 -1.5 3.015625 -1.5q1.640625 0 2.4375 0.90625q0.796875 0.890625 0.8125 2.640625l0 6.484375l-2.21875 0l0 -6.40625q0 -0.9375 -0.40625 -1.375q-0.40625 -0.4375 -1.359375 -0.4375q-0.75 0 -1.234375 0.40625q-0.46875 0.390625 -0.671875 1.046875l0.015625 6.765625l-2.21875 0l0 -6.484375q-0.046875 -1.734375 -1.765625 -1.734375q-1.328125 0 -1.890625 1.078125l0 7.140625l-2.21875 0l0 -9.859375l2.09375 0zm13.733154 4.84375q0 -1.453125 0.578125 -2.609375q0.578125 -1.171875 1.609375 -1.78125q1.03125 -0.625 2.390625 -0.625q1.984375 0 3.234375 1.28125q1.25 1.28125 1.34375 3.40625l0.015625 0.515625q0 1.453125 -0.5625 2.609375q-0.5625 1.140625 -1.609375 1.78125q-1.046875 0.625 -2.40625 0.625q-2.09375 0 -3.34375 -1.390625q-1.25 -1.390625 -1.25 -3.703125l0 -0.109375zm2.21875 0.1875q0 1.515625 0.625 2.390625q0.625 0.859375 1.75 0.859375q1.125 0 1.734375 -0.875q0.625 -0.875 0.625 -2.5625q0 -1.5 -0.640625 -2.375q-0.640625 -0.875 -1.734375 -0.875q-1.09375 0 -1.734375 0.859375q-0.625 0.859375 -0.625 2.578125zm8.402893 -0.171875q0 -2.28125 1.046875 -3.65625q1.0625 -1.375 2.84375 -1.375q1.5625 0 2.53125 1.078125l0 -5.046875l2.21875 0l0 14.0l-2.015625 0l-0.109375 -1.015625q-0.984375 1.203125 -2.640625 1.203125q-1.734375 0 -2.8125 -1.390625q-1.0625 -1.40625 -1.0625 -3.796875zm2.21875 0.1875q0 1.5 0.578125 2.34375q0.578125 0.84375 1.640625 0.84375q1.359375 0 1.984375 -1.203125l0 -4.21875q-0.609375 -1.171875 -1.96875 -1.171875q-1.078125 0 -1.65625 0.859375q-0.578125 0.84375 -0.578125 2.546875zm13.061829 5.0q-2.09375 0 -3.40625 -1.328125q-1.3125 -1.328125 -1.3125 -3.53125l0 -0.28125q0 -1.46875 0.5625 -2.625q0.578125 -1.171875 1.609375 -1.8125q1.03125 -0.640625 2.296875 -0.640625q2.015625 0 3.109375 1.28125q1.09375 1.28125 1.09375 3.625l0 0.890625l-6.4375 0q0.109375 1.234375 0.8125 1.953125q0.71875 0.703125 1.8125 0.703125q1.515625 0 2.46875 -1.234375l1.203125 1.140625q-0.59375 0.875 -1.59375 1.375q-0.984375 0.484375 -2.21875 0.484375zm-0.265625 -8.453125q-0.90625 0 -1.46875 0.640625q-0.5625 0.640625 -0.703125 1.78125l4.203125 0l0 -0.171875q-0.0625 -1.109375 -0.59375 -1.671875q-0.515625 -0.578125 -1.4375 -0.578125z" fill-rule="nonzero"/><path shape-rendering="crispEdges" fill="#efefef" d="m333.9029 183.38846l203.35168 0l0 48.202087l-203.35168 0l0 -48.202087z" fill-rule="nonzero"/><path shape-rendering="crispEdges" fill="#efefef" d="m333.9029 231.59055l203.35168 0l0 48.202118l-203.35168 0l0 -48.202118z" fill-rule="nonzero"/><path shape-rendering="crispEdges" fill="#cccccc" d="m333.9029 279.79266l203.35168 0l0 48.202087l-203.35168 0l0 -48.202087z" fill-rule="nonzero"/><path shape-rendering="crispEdges" fill="#cccccc" d="m333.9029 327.99475l203.35168 0l0 48.202087l-203.35168 0l0 -48.202087z" fill-rule="nonzero"/><path stroke="#999999" stroke-width="1.0" stroke-linecap="butt" stroke-dasharray="1.0,3.0" d="m333.9029 182.88977l0 193.80576" fill-rule="nonzero"/><path stroke="#999999" stroke-width="1.0" stroke-linecap="butt" stroke-dasharray="1.0,3.0" d="m537.2546 182.88977l0 193.80576" fill-rule="nonzero"/><path stroke="#999999" stroke-width="1.0" stroke-linecap="butt" d="m333.4042 183.38846l204.34909 0" fill-rule="nonzero"/><path stroke="#999999" stroke-width="1.0" stroke-linecap="butt" stroke-dasharray="1.0,3.0" d="m333.4042 231.59055l204.34909 0" fill-rule="nonzero"/><path stroke="#999999" stroke-width="1.0" stroke-linecap="butt" stroke-dasharray="1.0,3.0" d="m333.4042 279.79266l204.34909 0" fill-rule="nonzero"/><path stroke="#999999" stroke-width="1.0" stroke-linecap="butt" stroke-dasharray="1.0,3.0" d="m333.4042 327.99475l204.34909 0" fill-rule="nonzero"/><path stroke="#999999" stroke-width="1.0" stroke-linecap="butt" d="m333.4042 376.19684l204.34909 0" fill-rule="nonzero"/><path fill="#666666" d="m429.39124 206.037q0.0625 -0.25 0.3125 -0.6875q0.3125 -0.4375 0.5625 -0.75q0.625 -0.5 1.1875 -0.5q0.8125 0 0.8125 0.75q0.125 1.0 0.4375 2.3125q0.1875 0.625 0.5625 0.625q0.25 0 0.4375 -0.3125q0.8125 -0.75 1.6875 -1.625q1.375 -1.3125 1.875 -1.9375q0.625 -0.75 1.6875 -1.75q1.0625 -0.9375 1.625 -1.3125q0.5 -0.3125 0.875 -0.25q0.375 0.0625 0.3125 0.5625q-0.0625 0.5 0 1.0q0.0625 0.375 0 0.4375q-1.25 1.5 -2.0 2.1875q-1.8125 2.125 -2.4375 2.625q-2.375 2.3125 -4.125 4.0q-0.625 0.5625 -1.1875 0.625q-0.75 0.0625 -1.4375 -0.5625q-0.8125 -0.6875 -0.875 -1.625q-0.0625 -1.0625 -0.1875 -1.5625q-0.1875 -0.875 -0.125 -2.25z" fill-rule="nonzero"/><path fill="#666666" d="m429.39124 254.2391q0.0625 -0.25 0.3125 -0.6875q0.3125 -0.4375 0.5625 -0.75q0.625 -0.5 1.1875 -0.5q0.8125 0 0.8125 0.75q0.125 1.0 0.4375 2.3125q0.1875 0.625 0.5625 0.625q0.25 0 0.4375 -0.3125q0.8125 -0.75 1.6875 -1.625q1.375 -1.3125 1.875 -1.9375q0.625 -0.75 1.6875 -1.75q1.0625 -0.9375 1.625 -1.3125q0.5 -0.3125 0.875 -0.25q0.375 0.0625 0.3125 0.5625q-0.0625 0.5 0 1.0q0.0625 0.375 0 0.4375q-1.25 1.5 -2.0 2.1875q-1.8125 2.125 -2.4375 2.625q-2.375 2.3125 -4.125 4.0q-0.625 0.5625 -1.1875 0.625q-0.75 0.0625 -1.4375 -0.5625q-0.8125 -0.6875 -0.875 -1.625q-0.0625 -1.0625 -0.1875 -1.5625q-0.1875 -0.875 -0.125 -2.25z" fill-rule="nonzero"/><path fill="#666666" d="m443.39124 298.1287q0.125 0.125 0 0.25l-0.1875 0.1875l0 0.1875q-1.25 1.3125 -3.4375 3.9375q1.3125 1.8125 2.25 2.75q0.1875 0.1875 0.0625 0.375q-0.125 0.3125 -0.3125 0.5q-0.0625 0.125 -0.1875 0.125q-0.1875 0 -0.25 0.125q-0.0625 0.125 0 0.25q-0.125 0.25 -0.3125 0.375q-0.125 0.1875 -0.3125 0.0625q-0.0625 -0.0625 -0.125 -0.1875q-0.0625 -0.125 -0.25 0q-0.25 0.25 -0.375 0.375q-0.25 0.1875 -0.4375 0q-0.3125 -0.3125 -1.6875 -2.375q-1.5625 2.0 -2.25 3.0625q-0.25 0.375 -0.4375 0.25q-0.0625 -0.0625 -0.1875 -0.1875q-0.125 -0.1875 -0.0625 -0.3125q0.0625 -0.0625 0 -0.125q-0.0625 0 -0.125 0q-0.1875 0.0625 -0.3125 0.125q-0.4375 -0.4375 -0.5 -0.5625q-0.1875 -0.1875 -0.0625 -0.375q0.1875 -0.1875 0.0625 -0.5q-0.125 -0.1875 -0.1875 -0.4375q1.0 -1.3125 2.6875 -3.25q-1.5 -2.5625 -1.9375 -4.0625q0.375 -0.4375 0.625 -0.75q0.125 0.1875 0.1875 0.1875q0.125 0.0625 0.1875 0.0625q0.125 0 0.125 -0.125q0.0625 -0.4375 0.4375 -0.5q0.1875 0 0.3125 0.1875q0.9375 1.5625 1.9375 2.9375q2.25 -2.4375 3.75 -3.8125l0.5625 0.5q-0.0625 0.125 -0.0625 0.1875q0 0.125 0.125 0.1875q0.0625 0.0625 0.375 0q0.25 0.25 0.3125 0.375z" fill-rule="nonzero"/><path fill="#666666" d="m443.39124 346.3308q0.125 0.125 0 0.25l-0.1875 0.1875l0 0.1875q-1.25 1.3125 -3.4375 3.9375q1.3125 1.8125 2.25 2.75q0.1875 0.1875 0.0625 0.375q-0.125 0.3125 -0.3125 0.5q-0.0625 0.125 -0.1875 0.125q-0.1875 0 -0.25 0.125q-0.0625 0.125 0 0.25q-0.125 0.25 -0.3125 0.375q-0.125 0.1875 -0.3125 0.0625q-0.0625 -0.0625 -0.125 -0.1875q-0.0625 -0.125 -0.25 0q-0.25 0.25 -0.375 0.375q-0.25 0.1875 -0.4375 0q-0.3125 -0.3125 -1.6875 -2.375q-1.5625 2.0 -2.25 3.0625q-0.25 0.375 -0.4375 0.25q-0.0625 -0.0625 -0.1875 -0.1875q-0.125 -0.1875 -0.0625 -0.3125q0.0625 -0.0625 0 -0.125q-0.0625 0 -0.125 0q-0.1875 0.0625 -0.3125 0.125q-0.4375 -0.4375 -0.5 -0.5625q-0.1875 -0.1875 -0.0625 -0.375q0.1875 -0.1875 0.0625 -0.5q-0.125 -0.1875 -0.1875 -0.4375q1.0 -1.3125 2.6875 -3.25q-1.5 -2.5625 -1.9375 -4.0625q0.375 -0.4375 0.625 -0.75q0.125 0.1875 0.1875 0.1875q0.125 0.0625 0.1875 0.0625q0.125 0 0.125 -0.125q0.0625 -0.4375 0.4375 -0.5q0.1875 0 0.3125 0.1875q0.9375 1.5625 1.9375 2.9375q2.25 -2.4375 3.75 -3.8125l0.5625 0.5q-0.0625 0.125 -0.0625 0.1875q0 0.125 0.125 0.1875q0.0625 0.0625 0.375 0q0.25 0.25 0.3125 0.375z" fill-rule="nonzero"/><path shape-rendering="crispEdges" fill="#efefef" d="m548.9239 183.38846l203.35168 0l0 48.202087l-203.35168 0l0 -48.202087z" fill-rule="nonzero"/><path shape-rendering="crispEdges" fill="#efefef" d="m548.9239 231.59055l203.35168 0l0 48.202118l-203.35168 0l0 -48.202118z" fill-rule="nonzero"/><path shape-rendering="crispEdges" fill="#cccccc" d="m548.9239 279.79266l203.35168 0l0 48.202087l-203.35168 0l0 -48.202087z" fill-rule="nonzero"/><path shape-rendering="crispEdges" fill="#cccccc" d="m548.9239 327.99475l203.35168 0l0 48.202087l-203.35168 0l0 -48.202087z" fill-rule="nonzero"/><path stroke="#999999" stroke-width="1.0" stroke-linecap="butt" stroke-dasharray="1.0,3.0" d="m548.9239 182.88977l0 193.80576" fill-rule="nonzero"/><path stroke="#999999" stroke-width="1.0" stroke-linecap="butt" stroke-dasharray="1.0,3.0" d="m752.2756 182.88977l0 193.80576" fill-rule="nonzero"/><path stroke="#999999" stroke-width="1.0" stroke-linecap="butt" d="m548.4252 183.38846l204.34912 0" fill-rule="nonzero"/><path stroke="#999999" stroke-width="1.0" stroke-linecap="butt" stroke-dasharray="1.0,3.0" d="m548.4252 231.59055l204.34912 0" fill-rule="nonzero"/><path stroke="#999999" stroke-width="1.0" stroke-linecap="butt" stroke-dasharray="1.0,3.0" d="m548.4252 279.79266l204.34912 0" fill-rule="nonzero"/><path stroke="#999999" stroke-width="1.0" stroke-linecap="butt" stroke-dasharray="1.0,3.0" d="m548.4252 327.99475l204.34912 0" fill-rule="nonzero"/><path stroke="#999999" stroke-width="1.0" stroke-linecap="butt" d="m548.4252 376.19684l204.34912 0" fill-rule="nonzero"/><path fill="#666666" d="m644.41223 206.037q0.0625 -0.25 0.3125 -0.6875q0.3125 -0.4375 0.5625 -0.75q0.625 -0.5 1.1875 -0.5q0.8125 0 0.8125 0.75q0.125 1.0 0.4375 2.3125q0.1875 0.625 0.5625 0.625q0.25 0 0.4375 -0.3125q0.8125 -0.75 1.6875 -1.625q1.375 -1.3125 1.875 -1.9375q0.625 -0.75 1.6875 -1.75q1.0625 -0.9375 1.625 -1.3125q0.5 -0.3125 0.875 -0.25q0.375 0.0625 0.3125 0.5625q-0.0625 0.5 0 1.0q0.0625 0.375 0 0.4375q-1.25 1.5 -2.0 2.1875q-1.8125 2.125 -2.4375 2.625q-2.375 2.3125 -4.125 4.0q-0.625 0.5625 -1.1875 0.625q-0.75 0.0625 -1.4375 -0.5625q-0.8125 -0.6875 -0.875 -1.625q-0.0625 -1.0625 -0.1875 -1.5625q-0.1875 -0.875 -0.125 -2.25z" fill-rule="nonzero"/><path fill="#666666" d="m644.41223 254.2391q0.0625 -0.25 0.3125 -0.6875q0.3125 -0.4375 0.5625 -0.75q0.625 -0.5 1.1875 -0.5q0.8125 0 0.8125 0.75q0.125 1.0 0.4375 2.3125q0.1875 0.625 0.5625 0.625q0.25 0 0.4375 -0.3125q0.8125 -0.75 1.6875 -1.625q1.375 -1.3125 1.875 -1.9375q0.625 -0.75 1.6875 -1.75q1.0625 -0.9375 1.625 -1.3125q0.5 -0.3125 0.875 -0.25q0.375 0.0625 0.3125 0.5625q-0.0625 0.5 0 1.0q0.0625 0.375 0 0.4375q-1.25 1.5 -2.0 2.1875q-1.8125 2.125 -2.4375 2.625q-2.375 2.3125 -4.125 4.0q-0.625 0.5625 -1.1875 0.625q-0.75 0.0625 -1.4375 -0.5625q-0.8125 -0.6875 -0.875 -1.625q-0.0625 -1.0625 -0.1875 -1.5625q-0.1875 -0.875 -0.125 -2.25z" fill-rule="nonzero"/><path fill="#666666" d="m658.41223 298.1287q0.125 0.125 0 0.25l-0.1875 0.1875l0 0.1875q-1.25 1.3125 -3.4375 3.9375q1.3125 1.8125 2.25 2.75q0.1875 0.1875 0.0625 0.375q-0.125 0.3125 -0.3125 0.5q-0.0625 0.125 -0.1875 0.125q-0.1875 0 -0.25 0.125q-0.0625 0.125 0 0.25q-0.125 0.25 -0.3125 0.375q-0.125 0.1875 -0.3125 0.0625q-0.0625 -0.0625 -0.125 -0.1875q-0.0625 -0.125 -0.25 0q-0.25 0.25 -0.375 0.375q-0.25 0.1875 -0.4375 0q-0.3125 -0.3125 -1.6875 -2.375q-1.5625 2.0 -2.25 3.0625q-0.25 0.375 -0.4375 0.25q-0.0625 -0.0625 -0.1875 -0.1875q-0.125 -0.1875 -0.0625 -0.3125q0.0625 -0.0625 0 -0.125q-0.0625 0 -0.125 0q-0.1875 0.0625 -0.3125 0.125q-0.4375 -0.4375 -0.5 -0.5625q-0.1875 -0.1875 -0.0625 -0.375q0.1875 -0.1875 0.0625 -0.5q-0.125 -0.1875 -0.1875 -0.4375q1.0 -1.3125 2.6875 -3.25q-1.5 -2.5625 -1.9375 -4.0625q0.375 -0.4375 0.625 -0.75q0.125 0.1875 0.1875 0.1875q0.125 0.0625 0.1875 0.0625q0.125 0 0.125 -0.125q0.0625 -0.4375 0.4375 -0.5q0.1875 0 0.3125 0.1875q0.9375 1.5625 1.9375 2.9375q2.25 -2.4375 3.75 -3.8125l0.5625 0.5q-0.0625 0.125 -0.0625 0.1875q0 0.125 0.125 0.1875q0.0625 0.0625 0.375 0q0.25 0.25 0.3125 0.375z" fill-rule="nonzero"/><path fill="#666666" d="m658.41223 346.3308q0.125 0.125 0 0.25l-0.1875 0.1875l0 0.1875q-1.25 1.3125 -3.4375 3.9375q1.3125 1.8125 2.25 2.75q0.1875 0.1875 0.0625 0.375q-0.125 0.3125 -0.3125 0.5q-0.0625 0.125 -0.1875 0.125q-0.1875 0 -0.25 0.125q-0.0625 0.125 0 0.25q-0.125 0.25 -0.3125 0.375q-0.125 0.1875 -0.3125 0.0625q-0.0625 -0.0625 -0.125 -0.1875q-0.0625 -0.125 -0.25 0q-0.25 0.25 -0.375 0.375q-0.25 0.1875 -0.4375 0q-0.3125 -0.3125 -1.6875 -2.375q-1.5625 2.0 -2.25 3.0625q-0.25 0.375 -0.4375 0.25q-0.0625 -0.0625 -0.1875 -0.1875q-0.125 -0.1875 -0.0625 -0.3125q0.0625 -0.0625 0 -0.125q-0.0625 0 -0.125 0q-0.1875 0.0625 -0.3125 0.125q-0.4375 -0.4375 -0.5 -0.5625q-0.1875 -0.1875 -0.0625 -0.375q0.1875 -0.1875 0.0625 -0.5q-0.125 -0.1875 -0.1875 -0.4375q1.0 -1.3125 2.6875 -3.25q-1.5 -2.5625 -1.9375 -4.0625q0.375 -0.4375 0.625 -0.75q0.125 0.1875 0.1875 0.1875q0.125 0.0625 0.1875 0.0625q0.125 0 0.125 -0.125q0.0625 -0.4375 0.4375 -0.5q0.1875 0 0.3125 0.1875q0.9375 1.5625 1.9375 2.9375q2.25 -2.4375 3.75 -3.8125l0.5625 0.5q-0.0625 0.125 -0.0625 0.1875q0 0.125 0.125 0.1875q0.0625 0.0625 0.375 0q0.25 0.25 0.3125 0.375z" fill-rule="nonzero"/><path shape-rendering="crispEdges" fill="#efefef" d="m763.9449 183.38846l203.35168 0l0 48.202087l-203.35168 0l0 -48.202087z" fill-rule="nonzero"/><path shape-rendering="crispEdges" fill="#efefef" d="m763.9449 231.59055l203.35168 0l0 48.202118l-203.35168 0l0 -48.202118z" fill-rule="nonzero"/><path shape-rendering="crispEdges" fill="#efefef" d="m763.9449 279.79266l203.35168 0l0 48.202087l-203.35168 0l0 -48.202087z" fill-rule="nonzero"/><path shape-rendering="crispEdges" fill="#efefef" d="m763.9449 327.99475l203.35168 0l0 48.202087l-203.35168 0l0 -48.202087z" fill-rule="nonzero"/><path stroke="#999999" stroke-width="1.0" stroke-linecap="butt" stroke-dasharray="1.0,3.0" d="m763.9449 182.88977l0 193.80576" fill-rule="nonzero"/><path stroke="#999999" stroke-width="1.0" stroke-linecap="butt" d="m967.2966 182.88977l0 193.80576" fill-rule="nonzero"/><path stroke="#999999" stroke-width="1.0" stroke-linecap="butt" d="m763.44617 183.38846l204.34912 0" fill-rule="nonzero"/><path stroke="#999999" stroke-width="1.0" stroke-linecap="butt" stroke-dasharray="1.0,3.0" d="m763.44617 231.59055l204.34912 0" fill-rule="nonzero"/><path stroke="#999999" stroke-width="1.0" stroke-linecap="butt" stroke-dasharray="1.0,3.0" d="m763.44617 279.79266l204.34912 0" fill-rule="nonzero"/><path stroke="#999999" stroke-width="1.0" stroke-linecap="butt" stroke-dasharray="1.0,3.0" d="m763.44617 327.99475l204.34912 0" fill-rule="nonzero"/><path stroke="#999999" stroke-width="1.0" stroke-linecap="butt" d="m763.44617 376.19684l204.34912 0" fill-rule="nonzero"/><path fill="#666666" d="m859.4332 206.037q0.0625 -0.25 0.3125 -0.6875q0.3125 -0.4375 0.5625 -0.75q0.625 -0.5 1.1875 -0.5q0.8125 0 0.8125 0.75q0.125 1.0 0.4375 2.3125q0.1875 0.625 0.5625 0.625q0.25 0 0.4375 -0.3125q0.8125 -0.75 1.6875 -1.625q1.375 -1.3125 1.875 -1.9375q0.625 -0.75 1.6875 -1.75q1.0625 -0.9375 1.625 -1.3125q0.5 -0.3125 0.875 -0.25q0.375 0.0625 0.3125 0.5625q-0.0625 0.5 0 1.0q0.0625 0.375 0 0.4375q-1.25 1.5 -2.0 2.1875q-1.8125 2.125 -2.4375 2.625q-2.375 2.3125 -4.125 4.0q-0.625 0.5625 -1.1875 0.625q-0.75 0.0625 -1.4375 -0.5625q-0.8125 -0.6875 -0.875 -1.625q-0.0625 -1.0625 -0.1875 -1.5625q-0.1875 -0.875 -0.125 -2.25z" fill-rule="nonzero"/><path fill="#666666" d="m859.4332 254.2391q0.0625 -0.25 0.3125 -0.6875q0.3125 -0.4375 0.5625 -0.75q0.625 -0.5 1.1875 -0.5q0.8125 0 0.8125 0.75q0.125 1.0 0.4375 2.3125q0.1875 0.625 0.5625 0.625q0.25 0 0.4375 -0.3125q0.8125 -0.75 1.6875 -1.625q1.375 -1.3125 1.875 -1.9375q0.625 -0.75 1.6875 -1.75q1.0625 -0.9375 1.625 -1.3125q0.5 -0.3125 0.875 -0.25q0.375 0.0625 0.3125 0.5625q-0.0625 0.5 0 1.0q0.0625 0.375 0 0.4375q-1.25 1.5 -2.0 2.1875q-1.8125 2.125 -2.4375 2.625q-2.375 2.3125 -4.125 4.0q-0.625 0.5625 -1.1875 0.625q-0.75 0.0625 -1.4375 -0.5625q-0.8125 -0.6875 -0.875 -1.625q-0.0625 -1.0625 -0.1875 -1.5625q-0.1875 -0.875 -0.125 -2.25z" fill-rule="nonzero"/><path fill="#666666" d="m859.4332 302.4412q0.0625 -0.25 0.3125 -0.6875q0.3125 -0.4375 0.5625 -0.75q0.625 -0.5 1.1875 -0.5q0.8125 0 0.8125 0.75q0.125 1.0 0.4375 2.3125q0.1875 0.625 0.5625 0.625q0.25 0 0.4375 -0.3125q0.8125 -0.75 1.6875 -1.625q1.375 -1.3125 1.875 -1.9375q0.625 -0.75 1.6875 -1.75q1.0625 -0.9375 1.625 -1.3125q0.5 -0.3125 0.875 -0.25q0.375 0.0625 0.3125 0.5625q-0.0625 0.5 0 1.0q0.0625 0.375 0 0.4375q-1.25 1.5 -2.0 2.1875q-1.8125 2.125 -2.4375 2.625q-2.375 2.3125 -4.125 4.0q-0.625 0.5625 -1.1875 0.625q-0.75 0.0625 -1.4375 -0.5625q-0.8125 -0.6875 -0.875 -1.625q-0.0625 -1.0625 -0.1875 -1.5625q-0.1875 -0.875 -0.125 -2.25z" fill-rule="nonzero"/><path fill="#666666" d="m859.4332 350.6433q0.0625 -0.25 0.3125 -0.6875q0.3125 -0.4375 0.5625 -0.75q0.625 -0.5 1.1875 -0.5q0.8125 0 0.8125 0.75q0.125 1.0 0.4375 2.3125q0.1875 0.625 0.5625 0.625q0.25 0 0.4375 -0.3125q0.8125 -0.75 1.6875 -1.625q1.375 -1.3125 1.875 -1.9375q0.625 -0.75 1.6875 -1.75q1.0625 -0.9375 1.625 -1.3125q0.5 -0.3125 0.875 -0.25q0.375 0.0625 0.3125 0.5625q-0.0625 0.5 0 1.0q0.0625 0.375 0 0.4375q-1.25 1.5 -2.0 2.1875q-1.8125 2.125 -2.4375 2.625q-2.375 2.3125 -4.125 4.0q-0.625 0.5625 -1.1875 0.625q-0.75 0.0625 -1.4375 -0.5625q-0.8125 -0.6875 -0.875 -1.625q-0.0625 -1.0625 -0.1875 -1.5625q-0.1875 -0.875 -0.125 -2.25z" fill-rule="nonzero"/></g></svg>