<?xml version="1.0" encoding="UTF-8" standalone="no"?>
<!-- Created with Inkscape (http://www.inkscape.org/) -->

<svg
   xmlns:dc="http://purl.org/dc/elements/1.1/"
   xmlns:cc="http://creativecommons.org/ns#"
   xmlns:rdf="http://www.w3.org/1999/02/22-rdf-syntax-ns#"
   xmlns:svg="http://www.w3.org/2000/svg"
   xmlns="http://www.w3.org/2000/svg"
   xmlns:xlink="http://www.w3.org/1999/xlink"
   xmlns:sodipodi="http://sodipodi.sourceforge.net/DTD/sodipodi-0.dtd"
   xmlns:inkscape="http://www.inkscape.org/namespaces/inkscape"
   width="169.21889"
   height="195.86966"
   id="svg6151"
   version="1.1"
   inkscape:version="0.48.2 r9819"
   sodipodi:docname="CJointSpring.svg">
  <defs
     id="defs6153">
    <marker
       inkscape:stockid="Arrow1Lstart"
       orient="auto"
       refY="0"
       refX="0"
       id="Arrow1Lstart"
       style="overflow:visible">
      <path
         id="path3847"
         d="M 0,0 5,-5 -12.5,0 5,5 0,0 z"
         style="fill-rule:evenodd;stroke:#000000;stroke-width:1pt;marker-start:none"
         transform="matrix(0.8,0,0,0.8,10,0)"
         inkscape:connector-curvature="0" />
    </marker>
    <marker
       inkscape:stockid="Arrow1Lend"
       orient="auto"
       refY="0"
       refX="0"
       id="Arrow1Lend"
       style="overflow:visible">
      <path
         id="path3850"
         d="M 0,0 5,-5 -12.5,0 5,5 0,0 z"
         style="fill-rule:evenodd;stroke:#000000;stroke-width:1pt;marker-start:none"
         transform="matrix(-0.8,0,0,-0.8,-10,0)"
         inkscape:connector-curvature="0" />
    </marker>
    <linearGradient
       id="linearGradient6161">
      <stop
         style="stop-color:#d5f4f7;stop-opacity:1;"
         offset="0"
         id="stop6163" />
      <stop
         style="stop-color:#d5f4f7;stop-opacity:0;"
         offset="1"
         id="stop6165" />
    </linearGradient>
    <linearGradient
       inkscape:collect="always"
       xlink:href="#linearGradient6161"
       id="linearGradient6167"
       x1="160"
       y1="244.36218"
       x2="384.02008"
       y2="244.36218"
       gradientUnits="userSpaceOnUse"
       gradientTransform="matrix(0.53379187,0,0,0.74142624,147.26226,89.99022)" />
  </defs>
  <sodipodi:namedview
     id="base"
     pagecolor="#ffffff"
     bordercolor="#666666"
     borderopacity="1.0"
     inkscape:pageopacity="0.0"
     inkscape:pageshadow="2"
     inkscape:zoom="3.06"
     inkscape:cx="45.310995"
     inkscape:cy="66.091486"
     inkscape:document-units="px"
     inkscape:current-layer="layer1"
     showgrid="false"
     inkscape:window-width="1223"
     inkscape:window-height="658"
     inkscape:window-x="85"
     inkscape:window-y="13"
     inkscape:window-maximized="0"
     fit-margin-top="2"
     fit-margin-left="2"
     fit-margin-bottom="2"
     fit-margin-right="2">
    <inkscape:grid
       type="xygrid"
       id="grid6171"
       empspacing="5"
       visible="true"
       enabled="true"
       snapvisiblegridlinesonly="true" />
  </sodipodi:namedview>
  <metadata
     id="metadata6156">
    <rdf:RDF>
      <cc:Work
         rdf:about="">
        <dc:format>image/svg+xml</dc:format>
        <dc:type
           rdf:resource="http://purl.org/dc/dcmitype/StillImage" />
        <dc:title></dc:title>
      </cc:Work>
    </rdf:RDF>
  </metadata>
  <g
     inkscape:label="Layer 1"
     inkscape:groupmode="layer"
     id="layer1"
     transform="translate(-203.70217,-181.6282)">
    <rect
       style="opacity:0.98000004;fill:url(#linearGradient6167);fill-opacity:1;stroke:none"
       id="rect6159"
       width="140.92105"
       height="177.94229"
       x="230"
       y="184.41989" />
    <path
       style="fill:none;stroke:#000000;stroke-width:0.8610611px;stroke-linecap:butt;stroke-linejoin:miter;stroke-opacity:1"
       d="m 230,184.41988 0,177.9423"
       id="path6169"
       inkscape:connector-curvature="0"
       sodipodi:nodetypes="cc" />
    <text
       xml:space="preserve"
       style="font-size:16px;font-style:normal;font-variant:normal;font-weight:normal;font-stretch:normal;line-height:125%;letter-spacing:0px;word-spacing:0px;fill:#000000;fill-opacity:1;stroke:none;font-family:Arial;-inkscape-font-specification:Arial"
       x="209.86842"
       y="375.38849"
       id="text7440"
       sodipodi:linespacing="125%"><tspan
         sodipodi:role="line"
         id="tspan7442"
         x="209.86842"
         y="375.38849">Limit</tspan></text>
    <path
       transform="translate(120.39473,22.973684)"
       d="m 98.026313,265.52008 c 0,1.81673 -1.472748,3.28947 -3.289474,3.28947 -1.816726,0 -3.289473,-1.47274 -3.289473,-3.28947 0,-1.81673 1.472747,-3.28947 3.289473,-3.28947 1.816726,0 3.289474,1.47274 3.289474,3.28947 z"
       sodipodi:ry="3.2894738"
       sodipodi:rx="3.2894738"
       sodipodi:cy="265.52008"
       sodipodi:cx="94.736839"
       id="path7446"
       style="opacity:0.98000004;fill:#ff0101;fill-opacity:1;stroke:none"
       sodipodi:type="arc" />
    <path
       style="fill:none;stroke:#000000;stroke-width:0.5;stroke-linecap:butt;stroke-linejoin:miter;stroke-miterlimit:4;stroke-opacity:1;stroke-dasharray:none;marker-end:url(#Arrow1Lend)"
       d="m 288.81579,190.28324 -50,50"
       id="path7450"
       inkscape:connector-curvature="0" />
    <path
       sodipodi:type="arc"
       style="opacity:0.98000004;fill:#ff0101;fill-opacity:0.39316239;stroke:none"
       id="path7638"
       sodipodi:cx="94.736839"
       sodipodi:cy="265.52008"
       sodipodi:rx="3.2894738"
       sodipodi:ry="3.2894738"
       d="m 98.026313,265.52008 c 0,1.81673 -1.472748,3.28947 -3.289474,3.28947 -1.816726,0 -3.289473,-1.47274 -3.289473,-3.28947 0,-1.81673 1.472747,-3.28947 3.289473,-3.28947 1.816726,0 3.289474,1.47274 3.289474,3.28947 z"
       transform="translate(136.84211,-6.842108)" />
    <path
       style="fill:none;stroke:#ff0000;stroke-width:1px;stroke-linecap:butt;stroke-linejoin:miter;stroke-opacity:0.20512821"
       d="M 90.789474,4.7190407 21.710526,77.087462 C 13.157895,87.175182 5.2631578,100.222 5.2631579,108.00851 5.1065988,117.97075 15.788511,131.25606 22.368421,140.24536"
       id="path7659"
       inkscape:connector-curvature="0"
       sodipodi:nodetypes="cccc"
       transform="translate(209.0403,181.98935)" />
    <path
       sodipodi:type="arc"
       style="opacity:0.98000004;fill:#ff0101;fill-opacity:1;stroke:none"
       id="path7661"
       sodipodi:cx="94.736839"
       sodipodi:cy="265.52008"
       sodipodi:rx="3.2894738"
       sodipodi:ry="3.2894738"
       d="m 98.026313,265.52008 c 0,1.81673 -1.472748,3.28947 -3.289474,3.28947 -1.816726,0 -3.289473,-1.47274 -3.289473,-3.28947 0,-1.81673 1.472747,-3.28947 3.289473,-3.28947 1.816726,0 3.289474,1.47274 3.289474,3.28947 z"
       transform="translate(137.49999,54.552631)" />
    <path
       transform="translate(204.48256,-78.602408)"
       d="m 98.026313,265.52008 c 0,1.81673 -1.472748,3.28947 -3.289474,3.28947 -1.816726,0 -3.289473,-1.47274 -3.289473,-3.28947 0,-1.81673 1.472747,-3.28947 3.289473,-3.28947 1.816726,0 3.289474,1.47274 3.289474,3.28947 z"
       sodipodi:ry="3.2894738"
       sodipodi:rx="3.2894738"
       sodipodi:cy="265.52008"
       sodipodi:cx="94.736839"
       id="path7663"
       style="opacity:0.98000004;fill:#ff0101;fill-opacity:0.39316239;stroke:none"
       sodipodi:type="arc" />
    <path
       style="fill:none;stroke:#000000;stroke-width:0.60000002;stroke-linecap:butt;stroke-linejoin:miter;stroke-miterlimit:4;stroke-opacity:1;stroke-dasharray:none;marker-end:url(#Arrow1Lend)"
       d="m 224.0403,251.49786 c 0,0 -19,18 -18,37 1,19 20.18954,36.88235 20.18954,36.88235"
       id="path7665"
       inkscape:connector-curvature="0"
       sodipodi:nodetypes="csc" />
  </g>
</svg>
