<?xml version="1.0" encoding="UTF-8" standalone="no"?>
<!-- Created with Inkscape (http://www.inkscape.org/) -->

<svg
   xmlns:dc="http://purl.org/dc/elements/1.1/"
   xmlns:cc="http://creativecommons.org/ns#"
   xmlns:rdf="http://www.w3.org/1999/02/22-rdf-syntax-ns#"
   xmlns:svg="http://www.w3.org/2000/svg"
   xmlns="http://www.w3.org/2000/svg"
   xmlns:xlink="http://www.w3.org/1999/xlink"
   xmlns:sodipodi="http://sodipodi.sourceforge.net/DTD/sodipodi-0.dtd"
   xmlns:inkscape="http://www.inkscape.org/namespaces/inkscape"
   width="5469.4629"
   height="702.36719"
   id="svg2"
   version="1.1"
   inkscape:version="0.48.5 r10040"
   sodipodi:docname="Microsuface Detail Diagram.svg">
  <sodipodi:namedview
     id="base"
     pagecolor="#ffffff"
     bordercolor="#666666"
     borderopacity="1.0"
     inkscape:pageopacity="0.0"
     inkscape:pageshadow="2"
     inkscape:zoom="0.175"
     inkscape:cx="3146.8733"
     inkscape:cy="-445.39427"
     inkscape:document-units="px"
     inkscape:current-layer="layer1"
     showgrid="false"
     inkscape:window-width="1817"
     inkscape:window-height="1178"
     inkscape:window-x="95"
     inkscape:window-y="-8"
     inkscape:window-maximized="1"
     fit-margin-top="50"
     fit-margin-left="50"
     fit-margin-right="50"
     fit-margin-bottom="50" />
  <defs
     id="defs4">
    <marker
       style="overflow:visible"
       id="Arrow1Lstart"
       refX="0"
       refY="0"
       orient="auto"
       inkscape:stockid="Arrow1Lstart">
      <path
         transform="matrix(0.8,0,0,0.8,10,0)"
         style="fill-rule:evenodd;stroke:#000000;stroke-width:1pt"
         d="M 0,0 5,-5 -12.5,0 5,5 0,0 z"
         id="path4233"
         inkscape:connector-curvature="0" />
    </marker>
    <marker
       style="overflow:visible"
       id="Arrow1Lend"
       refX="0"
       refY="0"
       orient="auto"
       inkscape:stockid="Arrow1Lend">
      <path
         transform="matrix(-0.8,0,0,-0.8,-10,0)"
         style="fill-rule:evenodd;stroke:#000000;stroke-width:1pt"
         d="M 0,0 5,-5 -12.5,0 5,5 0,0 z"
         id="path4236"
         inkscape:connector-curvature="0" />
    </marker>
    <linearGradient
       id="linearGradient3814"
       inkscape:collect="always">
      <stop
         id="stop3816"
         offset="0"
         style="stop-color:#ffff00;stop-opacity:1;" />
      <stop
         id="stop3818"
         offset="1"
         style="stop-color:#ffff00;stop-opacity:0;" />
    </linearGradient>
    <linearGradient
       gradientTransform="translate(2016.8571,-1314)"
       gradientUnits="userSpaceOnUse"
       y2="566.64789"
       x2="-950.85712"
       y1="566.64789"
       x1="-1300.5714"
       id="linearGradient3820"
       xlink:href="#linearGradient3814"
       inkscape:collect="always" />
    <linearGradient
       gradientTransform="translate(-325.71429,-97.142857)"
       gradientUnits="userSpaceOnUse"
       y2="566.64789"
       x2="-950.85712"
       y1="566.64789"
       x1="-1300.5714"
       id="linearGradient3820-0"
       xlink:href="#linearGradient3814-9"
       inkscape:collect="always" />
    <linearGradient
       id="linearGradient3814-9"
       inkscape:collect="always">
      <stop
         id="stop3816-4"
         offset="0"
         style="stop-color:#ffff00;stop-opacity:1;" />
      <stop
         id="stop3818-8"
         offset="1"
         style="stop-color:#ffff00;stop-opacity:0;" />
    </linearGradient>
    <linearGradient
       gradientTransform="translate(-325.71429,-97.142857)"
       gradientUnits="userSpaceOnUse"
       y2="566.64789"
       x2="-950.85712"
       y1="566.64789"
       x1="-1300.5714"
       id="linearGradient3820-2"
       xlink:href="#linearGradient3814-4"
       inkscape:collect="always" />
    <linearGradient
       id="linearGradient3814-4"
       inkscape:collect="always">
      <stop
         id="stop3816-5"
         offset="0"
         style="stop-color:#ffff00;stop-opacity:1;" />
      <stop
         id="stop3818-5"
         offset="1"
         style="stop-color:#ffff00;stop-opacity:0;" />
    </linearGradient>
    <linearGradient
       gradientTransform="translate(-325.71429,-97.142857)"
       gradientUnits="userSpaceOnUse"
       y2="566.64789"
       x2="-950.85712"
       y1="566.64789"
       x1="-1300.5714"
       id="linearGradient3820-1"
       xlink:href="#linearGradient3814-1"
       inkscape:collect="always" />
    <linearGradient
       id="linearGradient3814-1"
       inkscape:collect="always">
      <stop
         id="stop3816-52"
         offset="0"
         style="stop-color:#ffff00;stop-opacity:1;" />
      <stop
         id="stop3818-7"
         offset="1"
         style="stop-color:#ffff00;stop-opacity:0;" />
    </linearGradient>
    <linearGradient
       gradientTransform="translate(-314.28572,-108.57143)"
       gradientUnits="userSpaceOnUse"
       y2="566.64789"
       x2="-950.85712"
       y1="566.64789"
       x1="-1300.5714"
       id="linearGradient3820-4"
       xlink:href="#linearGradient3814-2"
       inkscape:collect="always" />
    <linearGradient
       id="linearGradient3814-2"
       inkscape:collect="always">
      <stop
         id="stop3816-3"
         offset="0"
         style="stop-color:#ffff00;stop-opacity:1;" />
      <stop
         id="stop3818-2"
         offset="1"
         style="stop-color:#ffff00;stop-opacity:0;" />
    </linearGradient>
    <linearGradient
       inkscape:collect="always"
       xlink:href="#linearGradient3814-2"
       id="linearGradient3939"
       gradientUnits="userSpaceOnUse"
       gradientTransform="translate(2116.8571,-1314)"
       x1="-1300.5714"
       y1="566.64789"
       x2="-950.85712"
       y2="566.64789" />
    <linearGradient
       gradientTransform="translate(-314.28572,-108.57143)"
       gradientUnits="userSpaceOnUse"
       y2="566.64789"
       x2="-950.85712"
       y1="566.64789"
       x1="-1300.5714"
       id="linearGradient3820-16"
       xlink:href="#linearGradient3814-8"
       inkscape:collect="always" />
    <linearGradient
       id="linearGradient3814-8"
       inkscape:collect="always">
      <stop
         id="stop3816-57"
         offset="0"
         style="stop-color:#ffff00;stop-opacity:1;" />
      <stop
         id="stop3818-6"
         offset="1"
         style="stop-color:#ffff00;stop-opacity:0;" />
    </linearGradient>
    <linearGradient
       gradientTransform="translate(-314.28572,-108.57143)"
       gradientUnits="userSpaceOnUse"
       y2="566.64789"
       x2="-950.85712"
       y1="566.64789"
       x1="-1300.5714"
       id="linearGradient3820-9"
       xlink:href="#linearGradient3814-27"
       inkscape:collect="always" />
    <linearGradient
       id="linearGradient3814-27"
       inkscape:collect="always">
      <stop
         id="stop3816-9"
         offset="0"
         style="stop-color:#ffff00;stop-opacity:1;" />
      <stop
         id="stop3818-54"
         offset="1"
         style="stop-color:#ffff00;stop-opacity:0;" />
    </linearGradient>
    <linearGradient
       gradientTransform="translate(-314.28572,-108.57143)"
       gradientUnits="userSpaceOnUse"
       y2="566.64789"
       x2="-950.85712"
       y1="566.64789"
       x1="-1300.5714"
       id="linearGradient3820-23"
       xlink:href="#linearGradient3814-3"
       inkscape:collect="always" />
    <linearGradient
       id="linearGradient3814-3"
       inkscape:collect="always">
      <stop
         id="stop3816-41"
         offset="0"
         style="stop-color:#ffff00;stop-opacity:1;" />
      <stop
         id="stop3818-1"
         offset="1"
         style="stop-color:#ffff00;stop-opacity:0;" />
    </linearGradient>
    <linearGradient
       gradientTransform="translate(-314.28572,-108.57143)"
       gradientUnits="userSpaceOnUse"
       y2="566.64789"
       x2="-950.85712"
       y1="566.64789"
       x1="-1300.5714"
       id="linearGradient3820-42"
       xlink:href="#linearGradient3814-7"
       inkscape:collect="always" />
    <linearGradient
       id="linearGradient3814-7"
       inkscape:collect="always">
      <stop
         id="stop3816-7"
         offset="0"
         style="stop-color:#ffff00;stop-opacity:1;" />
      <stop
         id="stop3818-9"
         offset="1"
         style="stop-color:#ffff00;stop-opacity:0;" />
    </linearGradient>
    <linearGradient
       gradientTransform="translate(-314.28572,-108.57143)"
       gradientUnits="userSpaceOnUse"
       y2="566.64789"
       x2="-950.85712"
       y1="566.64789"
       x1="-1300.5714"
       id="linearGradient3820-8"
       xlink:href="#linearGradient3814-6"
       inkscape:collect="always" />
    <linearGradient
       id="linearGradient3814-6"
       inkscape:collect="always">
      <stop
         id="stop3816-50"
         offset="0"
         style="stop-color:#ffff00;stop-opacity:1;" />
      <stop
         id="stop3818-28"
         offset="1"
         style="stop-color:#ffff00;stop-opacity:0;" />
    </linearGradient>
    <linearGradient
       inkscape:collect="always"
       xlink:href="#linearGradient3814-6"
       id="linearGradient3939-6"
       gradientUnits="userSpaceOnUse"
       gradientTransform="translate(2216.8571,-1314)"
       x1="-1300.5714"
       y1="566.64789"
       x2="-950.85712"
       y2="566.64789" />
    <linearGradient
       gradientTransform="translate(-314.28572,-108.57143)"
       gradientUnits="userSpaceOnUse"
       y2="566.64789"
       x2="-950.85712"
       y1="566.64789"
       x1="-1300.5714"
       id="linearGradient3820-24"
       xlink:href="#linearGradient3814-86"
       inkscape:collect="always" />
    <linearGradient
       id="linearGradient3814-86"
       inkscape:collect="always">
      <stop
         id="stop3816-509"
         offset="0"
         style="stop-color:#ffff00;stop-opacity:1;" />
      <stop
         id="stop3818-0"
         offset="1"
         style="stop-color:#ffff00;stop-opacity:0;" />
    </linearGradient>
    <linearGradient
       inkscape:collect="always"
       xlink:href="#linearGradient3814-86"
       id="linearGradient3939-0"
       gradientUnits="userSpaceOnUse"
       gradientTransform="translate(2316.8572,-1314)"
       x1="-1300.5714"
       y1="566.64789"
       x2="-950.85712"
       y2="566.64789" />
    <linearGradient
       gradientTransform="translate(-314.28572,-108.57143)"
       gradientUnits="userSpaceOnUse"
       y2="566.64789"
       x2="-950.85712"
       y1="566.64789"
       x1="-1300.5714"
       id="linearGradient3820-13"
       xlink:href="#linearGradient3814-89"
       inkscape:collect="always" />
    <linearGradient
       id="linearGradient3814-89"
       inkscape:collect="always">
      <stop
         id="stop3816-34"
         offset="0"
         style="stop-color:#ffff00;stop-opacity:1;" />
      <stop
         id="stop3818-4"
         offset="1"
         style="stop-color:#ffff00;stop-opacity:0;" />
    </linearGradient>
    <linearGradient
       inkscape:collect="always"
       xlink:href="#linearGradient3814-89"
       id="linearGradient3939-60"
       gradientUnits="userSpaceOnUse"
       gradientTransform="translate(2416.8571,-1314)"
       x1="-1300.5714"
       y1="566.64789"
       x2="-950.85712"
       y2="566.64789" />
    <linearGradient
       gradientTransform="translate(-314.28572,-108.57143)"
       gradientUnits="userSpaceOnUse"
       y2="566.64789"
       x2="-950.85712"
       y1="566.64789"
       x1="-1300.5714"
       id="linearGradient3820-18"
       xlink:href="#linearGradient3814-49"
       inkscape:collect="always" />
    <linearGradient
       id="linearGradient3814-49"
       inkscape:collect="always">
      <stop
         id="stop3816-6"
         offset="0"
         style="stop-color:#ffff00;stop-opacity:1;" />
      <stop
         id="stop3818-3"
         offset="1"
         style="stop-color:#ffff00;stop-opacity:0;" />
    </linearGradient>
    <linearGradient
       inkscape:collect="always"
       xlink:href="#linearGradient3814-49"
       id="linearGradient3939-7"
       gradientUnits="userSpaceOnUse"
       gradientTransform="translate(2516.8571,-1314)"
       x1="-1300.5714"
       y1="566.64789"
       x2="-950.85712"
       y2="566.64789" />
    <linearGradient
       gradientTransform="translate(-463.14291,-102.57141)"
       gradientUnits="userSpaceOnUse"
       y2="566.64789"
       x2="-950.85712"
       y1="566.64789"
       x1="-1300.5714"
       id="linearGradient3820-3"
       xlink:href="#linearGradient3814-72"
       inkscape:collect="always" />
    <linearGradient
       id="linearGradient3814-72"
       inkscape:collect="always">
      <stop
         id="stop3816-60"
         offset="0"
         style="stop-color:#ffff00;stop-opacity:1;" />
      <stop
         id="stop3818-16"
         offset="1"
         style="stop-color:#ffff00;stop-opacity:0;" />
    </linearGradient>
    <marker
       style="overflow:visible"
       id="Arrow1LstartN"
       refX="0"
       refY="0"
       orient="auto"
       inkscape:stockid="Arrow1LstartN">
      <path
         transform="matrix(0.8,0,0,0.8,10,0)"
         style="fill:#ffbd00;fill-rule:evenodd;stroke:#ffbd00;stroke-width:1pt"
         d="M 0,0 5,-5 -12.5,0 5,5 0,0 z"
         id="path5507"
         inkscape:connector-curvature="0" />
    </marker>
    <marker
       style="overflow:visible"
       id="Arrow1LstartL"
       refX="0"
       refY="0"
       orient="auto"
       inkscape:stockid="Arrow1LstartL">
      <path
         transform="matrix(0.8,0,0,0.8,10,0)"
         style="fill:#ffbd00;fill-rule:evenodd;stroke:#ffbd00;stroke-width:1pt"
         d="M 0,0 5,-5 -12.5,0 5,5 0,0 z"
         id="path5739"
         inkscape:connector-curvature="0" />
    </marker>
    <marker
       style="overflow:visible"
       id="Arrow1Lstartx"
       refX="0"
       refY="0"
       orient="auto"
       inkscape:stockid="Arrow1Lstartx">
      <path
         transform="matrix(0.8,0,0,0.8,10,0)"
         style="fill:#ffbd00;fill-rule:evenodd;stroke:#ffbd00;stroke-width:1pt"
         d="M 0,0 5,-5 -12.5,0 5,5 0,0 z"
         id="path5742"
         inkscape:connector-curvature="0" />
    </marker>
    <marker
       style="overflow:visible"
       id="Arrow1LstartW"
       refX="0"
       refY="0"
       orient="auto"
       inkscape:stockid="Arrow1LstartW">
      <path
         transform="matrix(0.8,0,0,0.8,10,0)"
         style="fill:#ffbd00;fill-rule:evenodd;stroke:#ffbd00;stroke-width:1pt"
         d="M 0,0 5,-5 -12.5,0 5,5 0,0 z"
         id="path5745"
         inkscape:connector-curvature="0" />
    </marker>
    <marker
       style="overflow:visible"
       id="Arrow1LstartNF"
       refX="0"
       refY="0"
       orient="auto"
       inkscape:stockid="Arrow1LstartNF">
      <path
         transform="matrix(0.8,0,0,0.8,10,0)"
         style="fill:#ffbd00;fill-rule:evenodd;stroke:#ffbd00;stroke-width:1pt"
         d="M 0,0 5,-5 -12.5,0 5,5 0,0 z"
         id="path5748"
         inkscape:connector-curvature="0" />
    </marker>
    <marker
       style="overflow:visible"
       id="Arrow1LstartO"
       refX="0"
       refY="0"
       orient="auto"
       inkscape:stockid="Arrow1LstartO">
      <path
         transform="matrix(0.8,0,0,0.8,10,0)"
         style="fill:#ffbd00;fill-rule:evenodd;stroke:#ffbd00;stroke-width:1pt"
         d="M 0,0 5,-5 -12.5,0 5,5 0,0 z"
         id="path5751"
         inkscape:connector-curvature="0" />
    </marker>
    <marker
       style="overflow:visible"
       id="Arrow1LstartM"
       refX="0"
       refY="0"
       orient="auto"
       inkscape:stockid="Arrow1LstartM">
      <path
         transform="matrix(0.8,0,0,0.8,10,0)"
         style="fill:#ffbd00;fill-rule:evenodd;stroke:#ffbd00;stroke-width:1pt"
         d="M 0,0 5,-5 -12.5,0 5,5 0,0 z"
         id="path6002"
         inkscape:connector-curvature="0" />
    </marker>
    <marker
       style="overflow:visible"
       id="Arrow1LstartM-0"
       refX="0"
       refY="0"
       orient="auto"
       inkscape:stockid="Arrow1LstartM">
      <path
         inkscape:connector-curvature="0"
         transform="matrix(0.8,0,0,0.8,10,0)"
         style="fill:#ffbd00;fill-rule:evenodd;stroke:#ffbd00;stroke-width:1pt"
         d="M 0,0 5,-5 -12.5,0 5,5 0,0 z"
         id="path6002-0" />
    </marker>
    <marker
       style="overflow:visible"
       id="Arrow1LstartW-1"
       refX="0"
       refY="0"
       orient="auto"
       inkscape:stockid="Arrow1LstartW">
      <path
         inkscape:connector-curvature="0"
         transform="matrix(0.8,0,0,0.8,10,0)"
         style="fill:#ffbd00;fill-rule:evenodd;stroke:#ffbd00;stroke-width:1pt"
         d="M 0,0 5,-5 -12.5,0 5,5 0,0 z"
         id="path5745-4" />
    </marker>
    <marker
       style="overflow:visible"
       id="Arrow1LstartNF-6"
       refX="0"
       refY="0"
       orient="auto"
       inkscape:stockid="Arrow1LstartNF">
      <path
         inkscape:connector-curvature="0"
         transform="matrix(0.8,0,0,0.8,10,0)"
         style="fill:#ffbd00;fill-rule:evenodd;stroke:#ffbd00;stroke-width:1pt"
         d="M 0,0 5,-5 -12.5,0 5,5 0,0 z"
         id="path5748-0" />
    </marker>
    <marker
       style="overflow:visible"
       id="Arrow1Lstartx-7"
       refX="0"
       refY="0"
       orient="auto"
       inkscape:stockid="Arrow1Lstartx">
      <path
         inkscape:connector-curvature="0"
         transform="matrix(0.8,0,0,0.8,10,0)"
         style="fill:#ffbd00;fill-rule:evenodd;stroke:#ffbd00;stroke-width:1pt"
         d="M 0,0 5,-5 -12.5,0 5,5 0,0 z"
         id="path5742-1" />
    </marker>
    <marker
       style="overflow:visible"
       id="Arrow1LstartL-7"
       refX="0"
       refY="0"
       orient="auto"
       inkscape:stockid="Arrow1LstartL">
      <path
         inkscape:connector-curvature="0"
         transform="matrix(0.8,0,0,0.8,10,0)"
         style="fill:#ffbd00;fill-rule:evenodd;stroke:#ffbd00;stroke-width:1pt"
         d="M 0,0 5,-5 -12.5,0 5,5 0,0 z"
         id="path5739-7" />
    </marker>
    <marker
       style="overflow:visible"
       id="Arrow1LstartO-7"
       refX="0"
       refY="0"
       orient="auto"
       inkscape:stockid="Arrow1LstartO">
      <path
         inkscape:connector-curvature="0"
         transform="matrix(0.8,0,0,0.8,10,0)"
         style="fill:#ffbd00;fill-rule:evenodd;stroke:#ffbd00;stroke-width:1pt"
         d="M 0,0 5,-5 -12.5,0 5,5 0,0 z"
         id="path5751-7" />
    </marker>
    <linearGradient
       inkscape:collect="always"
       xlink:href="#linearGradient3814-49-3"
       id="linearGradient3939-7-3"
       gradientUnits="userSpaceOnUse"
       gradientTransform="matrix(1.0850609,0,0,1.0633526,644.18287,-1341.47)"
       x1="-1300.5714"
       y1="566.64789"
       x2="-950.85712"
       y2="566.64789" />
    <linearGradient
       id="linearGradient3814-49-3"
       inkscape:collect="always">
      <stop
         id="stop3816-6-5"
         offset="0"
         style="stop-color:#ffff00;stop-opacity:1;" />
      <stop
         id="stop3818-3-9"
         offset="1"
         style="stop-color:#ffff00;stop-opacity:0;" />
    </linearGradient>
    <linearGradient
       inkscape:collect="always"
       xlink:href="#linearGradient3814-89-8"
       id="linearGradient3939-60-9"
       gradientUnits="userSpaceOnUse"
       gradientTransform="matrix(1.0485663,0,0,1.0396466,496.67177,-1332.3228)"
       x1="-1300.5714"
       y1="566.64789"
       x2="-950.85712"
       y2="566.64789" />
    <linearGradient
       id="linearGradient3814-89-8"
       inkscape:collect="always">
      <stop
         id="stop3816-34-1"
         offset="0"
         style="stop-color:#ffff00;stop-opacity:1;" />
      <stop
         id="stop3818-4-8"
         offset="1"
         style="stop-color:#ffff00;stop-opacity:0;" />
    </linearGradient>
    <linearGradient
       inkscape:collect="always"
       xlink:href="#linearGradient3814-86-6"
       id="linearGradient3939-0-2"
       gradientUnits="userSpaceOnUse"
       gradientTransform="matrix(1.1134306,0,0,1.0831309,481.11907,-1349.1059)"
       x1="-1300.5714"
       y1="566.64789"
       x2="-950.85712"
       y2="566.64789" />
    <linearGradient
       id="linearGradient3814-86-6"
       inkscape:collect="always">
      <stop
         id="stop3816-509-60"
         offset="0"
         style="stop-color:#ffff00;stop-opacity:1;" />
      <stop
         id="stop3818-0-38"
         offset="1"
         style="stop-color:#ffff00;stop-opacity:0;" />
    </linearGradient>
    <linearGradient
       inkscape:collect="always"
       xlink:href="#linearGradient3814-6-12"
       id="linearGradient3939-6-0"
       gradientUnits="userSpaceOnUse"
       gradientTransform="matrix(1.0441603,0,0,1.0678325,290.99757,-1343.2943)"
       x1="-1300.5714"
       y1="566.64789"
       x2="-950.85712"
       y2="566.64789" />
    <linearGradient
       id="linearGradient3814-6-12"
       inkscape:collect="always">
      <stop
         id="stop3816-50-50"
         offset="0"
         style="stop-color:#ffff00;stop-opacity:1;" />
      <stop
         id="stop3818-28-9"
         offset="1"
         style="stop-color:#ffff00;stop-opacity:0;" />
    </linearGradient>
    <linearGradient
       inkscape:collect="always"
       xlink:href="#linearGradient3814-2-7"
       id="linearGradient3939-4"
       gradientUnits="userSpaceOnUse"
       gradientTransform="translate(135.42857,-1307)"
       x1="-1300.5714"
       y1="566.64789"
       x2="-950.85712"
       y2="566.64789" />
    <linearGradient
       id="linearGradient3814-2-7"
       inkscape:collect="always">
      <stop
         id="stop3816-3-8"
         offset="0"
         style="stop-color:#ffff00;stop-opacity:1;" />
      <stop
         id="stop3818-2-3"
         offset="1"
         style="stop-color:#ffff00;stop-opacity:0;" />
    </linearGradient>
    <linearGradient
       gradientTransform="translate(-463.14291,-102.57141)"
       gradientUnits="userSpaceOnUse"
       y2="566.64789"
       x2="-950.85712"
       y1="566.64789"
       x1="-1300.5714"
       id="linearGradient3820-5"
       xlink:href="#linearGradient3814-12"
       inkscape:collect="always" />
    <linearGradient
       id="linearGradient3814-12"
       inkscape:collect="always">
      <stop
         id="stop3816-0"
         offset="0"
         style="stop-color:#ffff00;stop-opacity:1;" />
      <stop
         id="stop3818-164"
         offset="1"
         style="stop-color:#ffff00;stop-opacity:0;" />
    </linearGradient>
    <linearGradient
       y2="566.64789"
       x2="-950.85712"
       y1="566.64789"
       x1="-1300.5714"
       gradientTransform="translate(33.428574,-1317)"
       gradientUnits="userSpaceOnUse"
       id="linearGradient6204"
       xlink:href="#linearGradient3814-12"
       inkscape:collect="always" />
    <marker
       style="overflow:visible"
       id="Arrow1LstartM-08"
       refX="0"
       refY="0"
       orient="auto"
       inkscape:stockid="Arrow1LstartM">
      <path
         inkscape:connector-curvature="0"
         transform="matrix(0.8,0,0,0.8,10,0)"
         style="fill:#ffbd00;fill-rule:evenodd;stroke:#ffbd00;stroke-width:1pt"
         d="M 0,0 5,-5 -12.5,0 5,5 0,0 z"
         id="path6002-7" />
    </marker>
    <marker
       style="overflow:visible"
       id="Arrow1LstartW-7"
       refX="0"
       refY="0"
       orient="auto"
       inkscape:stockid="Arrow1LstartW">
      <path
         inkscape:connector-curvature="0"
         transform="matrix(0.8,0,0,0.8,10,0)"
         style="fill:#ffbd00;fill-rule:evenodd;stroke:#ffbd00;stroke-width:1pt"
         d="M 0,0 5,-5 -12.5,0 5,5 0,0 z"
         id="path5745-8" />
    </marker>
    <marker
       style="overflow:visible"
       id="Arrow1LstartNF-3"
       refX="0"
       refY="0"
       orient="auto"
       inkscape:stockid="Arrow1LstartNF">
      <path
         inkscape:connector-curvature="0"
         transform="matrix(0.8,0,0,0.8,10,0)"
         style="fill:#ffbd00;fill-rule:evenodd;stroke:#ffbd00;stroke-width:1pt"
         d="M 0,0 5,-5 -12.5,0 5,5 0,0 z"
         id="path5748-8" />
    </marker>
    <marker
       style="overflow:visible"
       id="Arrow1Lstartx-3"
       refX="0"
       refY="0"
       orient="auto"
       inkscape:stockid="Arrow1Lstartx">
      <path
         inkscape:connector-curvature="0"
         transform="matrix(0.8,0,0,0.8,10,0)"
         style="fill:#ffbd00;fill-rule:evenodd;stroke:#ffbd00;stroke-width:1pt"
         d="M 0,0 5,-5 -12.5,0 5,5 0,0 z"
         id="path5742-7" />
    </marker>
    <marker
       style="overflow:visible"
       id="Arrow1LstartL-1"
       refX="0"
       refY="0"
       orient="auto"
       inkscape:stockid="Arrow1LstartL">
      <path
         inkscape:connector-curvature="0"
         transform="matrix(0.8,0,0,0.8,10,0)"
         style="fill:#ffbd00;fill-rule:evenodd;stroke:#ffbd00;stroke-width:1pt"
         d="M 0,0 5,-5 -12.5,0 5,5 0,0 z"
         id="path5739-0" />
    </marker>
    <marker
       style="overflow:visible"
       id="Arrow1LstartO-73"
       refX="0"
       refY="0"
       orient="auto"
       inkscape:stockid="Arrow1LstartO">
      <path
         inkscape:connector-curvature="0"
         transform="matrix(0.8,0,0,0.8,10,0)"
         style="fill:#ffbd00;fill-rule:evenodd;stroke:#ffbd00;stroke-width:1pt"
         d="M 0,0 5,-5 -12.5,0 5,5 0,0 z"
         id="path5751-4" />
    </marker>
    <linearGradient
       inkscape:collect="always"
       xlink:href="#linearGradient3814-49-6"
       id="linearGradient3939-7-9"
       gradientUnits="userSpaceOnUse"
       gradientTransform="matrix(1.3156402,0,0,1.2617274,-998.39364,-1469.5929)"
       x1="-1300.5714"
       y1="566.64789"
       x2="-950.85712"
       y2="566.64789" />
    <linearGradient
       id="linearGradient3814-49-6"
       inkscape:collect="always">
      <stop
         id="stop3816-6-51"
         offset="0"
         style="stop-color:#ffff00;stop-opacity:1;" />
      <stop
         id="stop3818-3-0"
         offset="1"
         style="stop-color:#ffff00;stop-opacity:0;" />
    </linearGradient>
    <linearGradient
       inkscape:collect="always"
       xlink:href="#linearGradient3814-89-6"
       id="linearGradient3939-60-99"
       gradientUnits="userSpaceOnUse"
       gradientTransform="matrix(1.0242831,0,0,1.0198232,-1477.8071,-1376.0898)"
       x1="-1300.5714"
       y1="566.64789"
       x2="-950.85712"
       y2="566.64789" />
    <linearGradient
       id="linearGradient3814-89-6"
       inkscape:collect="always">
      <stop
         id="stop3816-34-83"
         offset="0"
         style="stop-color:#ffff00;stop-opacity:1;" />
      <stop
         id="stop3818-4-48"
         offset="1"
         style="stop-color:#ffff00;stop-opacity:0;" />
    </linearGradient>
    <linearGradient
       inkscape:collect="always"
       xlink:href="#linearGradient3814-86-9"
       id="linearGradient3939-0-4"
       gradientUnits="userSpaceOnUse"
       gradientTransform="matrix(1.210566,0,0,1.1624268,-1335.2486,-1431.1816)"
       x1="-1300.5714"
       y1="566.64789"
       x2="-950.85712"
       y2="566.64789" />
    <linearGradient
       id="linearGradient3814-86-9"
       inkscape:collect="always">
      <stop
         id="stop3816-509-9"
         offset="0"
         style="stop-color:#ffff00;stop-opacity:1;" />
      <stop
         id="stop3818-0-2"
         offset="1"
         style="stop-color:#ffff00;stop-opacity:0;" />
    </linearGradient>
    <linearGradient
       inkscape:collect="always"
       xlink:href="#linearGradient3814-6-5"
       id="linearGradient3939-6-5"
       gradientUnits="userSpaceOnUse"
       gradientTransform="matrix(1.2305766,0,0,1.1983721,-1409.151,-1445.1213)"
       x1="-1300.5714"
       y1="566.64789"
       x2="-950.85712"
       y2="566.64789" />
    <linearGradient
       id="linearGradient3814-6-5"
       inkscape:collect="always">
      <stop
         id="stop3816-50-3"
         offset="0"
         style="stop-color:#ffff00;stop-opacity:1;" />
      <stop
         id="stop3818-28-3"
         offset="1"
         style="stop-color:#ffff00;stop-opacity:0;" />
    </linearGradient>
    <linearGradient
       inkscape:collect="always"
       xlink:href="#linearGradient3814-2-4"
       id="linearGradient3939-37"
       gradientUnits="userSpaceOnUse"
       gradientTransform="matrix(1.0282766,0,0,1.0278168,-1772.5973,-1379.1908)"
       x1="-1300.5714"
       y1="566.64789"
       x2="-950.85712"
       y2="566.64789" />
    <linearGradient
       id="linearGradient3814-2-4"
       inkscape:collect="always">
      <stop
         id="stop3816-3-3"
         offset="0"
         style="stop-color:#ffff00;stop-opacity:1;" />
      <stop
         id="stop3818-2-8"
         offset="1"
         style="stop-color:#ffff00;stop-opacity:0;" />
    </linearGradient>
    <linearGradient
       gradientTransform="translate(-463.14291,-102.57141)"
       gradientUnits="userSpaceOnUse"
       y2="566.64789"
       x2="-950.85712"
       y1="566.64789"
       x1="-1300.5714"
       id="linearGradient3820-08"
       xlink:href="#linearGradient3814-80"
       inkscape:collect="always" />
    <linearGradient
       id="linearGradient3814-80"
       inkscape:collect="always">
      <stop
         id="stop3816-68"
         offset="0"
         style="stop-color:#ffff00;stop-opacity:1;" />
      <stop
         id="stop3818-19"
         offset="1"
         style="stop-color:#ffff00;stop-opacity:0;" />
    </linearGradient>
    <linearGradient
       y2="566.64789"
       x2="-950.85712"
       y1="566.64789"
       x1="-1300.5714"
       gradientTransform="translate(-1909.4287,-1368.4285)"
       gradientUnits="userSpaceOnUse"
       id="linearGradient6367"
       xlink:href="#linearGradient3814-80"
       inkscape:collect="always" />
  </defs>
  <metadata
     id="metadata7">
    <rdf:RDF>
      <cc:Work
         rdf:about="">
        <dc:format>image/svg+xml</dc:format>
        <dc:type
           rdf:resource="http://purl.org/dc/dcmitype/StillImage" />
        <dc:title />
      </cc:Work>
    </rdf:RDF>
  </metadata>
  <g
     id="layer1"
     inkscape:groupmode="layer"
     inkscape:label="Layer 1"
     transform="translate(3371.7487,1186.8277)">
    <path
       inkscape:connector-curvature="0"
       id="path2993"
       d="m -3308.5715,-559.06634 c 3.8095,-3.8096 7.619,-7.6191 11.4286,-11.4286 0.9524,0 2.0053,0.4259 2.8571,0 2.4094,-1.2047 3.3049,-4.5096 5.7143,-5.7143 0.7513,-0.3756 9.9345,0 11.4286,0 1.2867,0 7.7019,-0.4348 8.5714,0 0.7586,0.3793 8.1921,7.8128 8.5714,8.5714 0.4259,0.8519 -0.6734,2.1837 0,2.8572 0.6735,0.6734 2.0053,-0.4259 2.8572,0 1.2046,0.6023 1.9047,1.9047 2.8571,2.8571 0.9524,0.9524 2.2548,1.6525 2.8572,2.8572 0.8518,1.7036 -1.3469,4.3674 0,5.7142 0.6734,0.6735 2.1837,-0.6734 2.8571,0 1.5058,1.5059 2.1837,3.694 2.8571,5.7143 0.3012,0.9035 -0.6734,2.1837 0,2.8572 0.6735,0.6734 2.0054,-0.4259 2.8572,0 6.3173,3.1586 0.8866,1.7732 2.8571,5.7143 3.1587,6.3173 1.7733,0.8866 5.7143,2.8571 1.2047,0.6023 1.9048,1.9048 2.8572,2.8571 0.9523,0.9524 1.6524,2.2549 2.8571,2.8572 0.7513,0.3756 9.9345,0 11.4286,0 0.9524,0 2.1837,0.6734 2.8571,0 0.6734,-0.6734 -0.6734,-2.1837 0,-2.8572 0.6734,-0.6734 2.1837,0.6735 2.8572,0 0.6734,-0.6734 -0.426,-2.0053 0,-2.8571 2.1879,-4.3759 5.0914,-2.2343 8.5714,-5.7143 0.6734,-0.6734 -0.4259,-2.0053 0,-2.8571 2.188,-4.376 5.0915,-2.2344 8.5714,-5.7143 1.5059,-1.5059 1.6759,-3.9424 2.8572,-5.7143 2.6203,-3.9306 4.4077,-2.9385 8.5714,-5.7143 2.6009,-1.7339 6.039,-7.3052 8.5714,-8.5714 0.8518,-0.4259 2.0053,0.4259 2.8572,0 2.4093,-1.2047 3.3049,-4.5096 5.7142,-5.7143 0.8519,-0.4259 2.0054,0.4259 2.8572,0 1.2047,-0.6023 1.5794,-2.4312 2.8571,-2.8571 1.6253,-0.5418 11.5948,0 14.2857,0 9.5239,0 19.0477,0 28.5715,0 6.6666,0 13.3333,0 20,0 1.2867,0 7.7019,-0.4348 8.5714,0 1.2047,0.6023 1.9048,1.9047 2.8571,2.8571 0.9524,0.9524 2.1101,1.7365 2.8572,2.8571 2.3626,3.5439 3.3517,7.8848 5.7143,11.4286 0.7471,1.1207 1.9047,1.9048 2.8571,2.8572 0.9524,1.9047 1.6759,3.9423 2.8572,5.7142 0.7471,1.1207 2.2548,1.6525 2.8571,2.8572 0.4259,0.8518 -0.3012,1.9536 0,2.8571 1.7297,5.1893 2.4453,5.3025 5.7143,8.5715 0.9524,0.9523 2.2548,1.6524 2.8571,2.8571 0.4259,0.8518 -0.6734,2.1837 0,2.8571 0.403,0.403 7.9854,0.2931 8.5715,0 1.2046,-0.6023 1.6524,-2.2548 2.8571,-2.8571 0.8518,-0.4259 2.4312,0.8518 2.8571,0 0.8519,-1.7037 -1.0565,-4.1294 0,-5.7143 1.1813,-1.7719 3.9424,-1.6758 5.7143,-2.8571 1.1207,-0.7471 1.9048,-1.9048 2.8572,-2.8572 0.9524,-0.9523 2.11,-1.7364 2.8571,-2.8571 1.1813,-1.7719 1.6759,-3.9424 2.8572,-5.7143 2.8028,-4.2042 8.6257,-7.2244 11.4285,-11.4286 1.1813,-1.7719 1.0852,-4.533 2.8572,-5.7143 1.5848,-1.0565 4.1294,1.0566 5.7143,0 8.0449,-0.1773 0.7275,-6.4418 2.8571,-8.5714 0.1774,-8.0449 6.4418,-0.7275 8.5714,-2.8571 5.9116,-5.9116 -9.0336,0.2311 2.8572,-5.7143 1.7036,-0.8518 4.3674,1.3469 5.7143,0 0.6734,-0.6734 -0.6735,-2.1837 0,-2.8572 0.6734,-0.6734 1.9047,0 2.8571,0 0.9524,0 1.9048,0 2.8571,0 11.4286,0 22.8572,0 34.2858,0 7.619,0 15.2381,0 22.8571,0 0.9524,0 2.1837,-0.6734 2.8571,0 11.1507,11.1507 -0.6613,1.5345 2.8572,8.5715 1.7143,3.4285 6.8571,5.1428 8.5714,8.5714 0.4259,0.8518 -0.4259,2.0053 0,2.8571 3.1587,6.3173 1.7733,0.8867 5.7143,2.8572 7.0612,3.5306 -0.9862,2.8571 5.7143,2.8571 0.9524,0 1.9047,0 2.8571,0 0.9524,0 2.0053,0.426 2.8572,0 6.3173,-3.1586 0.8866,-1.7732 2.8571,-5.7143 0.6024,-1.2046 2.11,-1.7364 2.8572,-2.8571 1.1812,-1.7719 1.5793,-4.0106 2.8571,-5.7143 4.9705,-6.6273 10.9669,-8.8457 14.2857,-17.1428 0.7074,-1.7686 -0.8518,-4.0107 0,-5.7143 1.3199,-2.6399 12.1948,-11.4979 14.2857,-14.2857 0.9524,-1.9048 1.9048,-3.8096 2.8572,-5.7143 0,-0.9524 -0.4259,-2.0053 0,-2.8572 0.6023,-1.2046 1.9047,-1.9047 2.8571,-2.8571 0.9524,-0.9524 1.6525,-2.2548 2.8572,-2.8572 2.2857,-1.1428 6.2857,1.1429 8.5714,0 1.2047,-0.6023 1.6525,-2.2548 2.8571,-2.8571 0.8178,-0.4089 12.7594,0 14.2857,0 4.7619,0 9.5239,0 14.2858,0 0.9523,0 2.1837,-0.6734 2.8571,0 0.6734,0.6734 -0.6734,2.1837 0,2.8571 1.5058,1.5059 3.694,2.1838 5.7143,2.8572 0.9035,0.3012 2.1837,-0.6734 2.8571,0 0.6735,0.6734 -0.4259,2.0053 0,2.8571 1.6378,3.2755 5.9615,3.9743 8.5715,5.7143 1.1206,0.7471 1.6524,2.2548 2.8571,2.8572 0.8518,0.4259 2.1837,-0.6735 2.8571,0 0.6735,0.6734 -0.6734,2.1837 0,2.8571 0.6735,0.6734 1.9048,0 2.8572,0 1.9047,0 3.8095,0 5.7143,0 9.5238,0 19.0476,0 28.5715,0 1.4941,0 10.6773,-0.3756 11.4286,0 5.6087,2.8044 1.2862,5.4297 2.8571,8.5714 0.6024,1.2047 1.9048,1.9048 2.8572,2.8572 0.9523,0.9524 1.6524,2.2548 2.8571,2.8571 0.8518,0.4259 2.4312,-0.8518 2.8571,0 0.8519,1.7037 0,3.8095 0,5.7143 0,0.9524 -0.6734,2.1837 0,2.8571 0.6735,0.6735 2.1838,-0.6734 2.8572,0 0.6734,0.6735 -0.3012,1.9537 0,2.8572 0.6734,2.0203 2.1837,3.694 2.8571,5.7143 0.3012,0.9035 -0.3011,1.9536 0,2.8571 0.6735,2.0203 2.1837,3.694 2.8572,5.7143 0.3011,0.9035 -0.4259,2.0053 0,2.8571 0.6023,1.2047 2.2548,1.6525 2.8571,2.8572 0.4259,0.8518 -0.4259,2.0053 0,2.8571 0.6024,1.2047 2.2548,1.6525 2.8572,2.8572 0.4259,0.8518 0,1.9047 0,2.8571 0,1.9048 -0.6024,3.9073 0,5.7143 2.9726,8.9181 1.9047,-0.9524 5.7142,2.8571 1.3469,1.3469 -1.3468,4.3675 0,5.7143 0.6735,0.6735 2.0054,-0.4259 2.8572,0 6.3173,3.1587 0.8866,1.7733 2.8571,5.7143 3.1587,6.3173 1.7733,0.8867 5.7143,2.8572 1.2047,0.6023 1.6525,2.2548 2.8572,2.8571 0.7512,0.3756 9.9345,0 11.4285,0 1.1295,0 13.0655,0.6101 14.2857,0 1.2047,-0.6023 1.7365,-2.11 2.8572,-2.8571 1.7719,-1.1813 3.9423,-1.6759 5.7143,-2.8572 4.2837,-2.8558 6.8597,-9.1442 11.4285,-11.4286 1.7037,-0.8518 4.0107,0.8519 5.7143,0 14.7254,-7.3626 2.7665,-2.6758 5.7143,-8.5714 3.1587,-6.3173 1.7733,-0.8866 5.7143,-2.8571 1.2047,-0.6024 1.6525,-2.2548 2.8571,-2.8572 0.8696,-0.4347 7.2847,0 8.5715,0 0.9524,0 2.1837,-0.6734 2.8571,0 0.9468,0.9468 -0.9468,4.7675 0,5.7143 0.6734,0.6735 2.1837,-0.6734 2.8572,0 0.6734,0.6735 -0.6735,2.1837 0,2.8572 0.6734,0.6734 2.1837,-0.6735 2.8571,0 1.3469,1.3468 -1.3469,4.3674 0,5.7142 0.4434,0.4434 7.4596,-0.3705 8.5714,0 2.0203,0.6735 3.694,2.1838 5.7143,2.8572 1.8512,0.6171 11.9465,0 14.2856,0 0.9524,0 2.1837,-0.6734 2.8572,0 0.6734,0.6734 -0.6735,2.1837 0,2.8571 1.3468,1.3469 4.0106,-0.8518 5.7143,0 6.3173,3.1587 0.8866,1.7733 2.8571,5.7143 1.2047,2.4094 4.5096,3.305 5.7143,5.7143 0.5664,1.1328 -0.5841,7.9873 0,8.5714 0.6734,0.6735 2.1837,-0.6734 2.8571,0 0.6735,0.6735 -0.6734,2.1837 0,2.8572 0.6735,0.6734 1.9048,0 2.8572,0 0.9524,0 1.9047,0 2.8571,0 8.5714,0 17.1429,0 25.7143,0 1.2019,0 16.2929,0.4249 17.1429,0 11.8907,-5.9454 -3.0544,0.1972 2.8571,-5.7143 0.6734,-0.6734 2.1837,0.6734 2.8571,0 1.5059,-1.5059 1.3513,-4.2084 2.8572,-5.7143 0.6734,-0.6734 2.4312,0.8518 2.8571,0 0.8519,-1.7037 -0.4619,-3.8664 0,-5.7143 3.4493,-13.797 1.3578,0.1416 5.7143,-8.5714 1.3469,-2.6937 1.7386,-5.7752 2.8572,-8.5714 1.5818,-3.9546 3.5229,-7.7764 5.7142,-11.4286 1.7667,-2.9445 4.6284,-5.3138 5.7143,-8.5714 0.9035,-2.7106 -0.5603,-5.7698 0,-8.5715 1.2575,-6.2871 4.8986,-6.5314 8.5715,-11.4285 1.2777,-1.7037 1.6758,-3.9424 2.8571,-5.7143 0.7471,-1.1207 2.2548,-1.6525 2.8571,-2.8572 0.426,-0.8518 -0.4259,-2.0053 0,-2.8571 0.6024,-1.2047 1.9048,-1.9048 2.8572,-2.8572 0.9524,-0.9523 1.6525,-2.2548 2.8571,-2.8571 0.7513,-0.3756 9.9345,0 11.4286,0 0.9524,0 2.4312,-0.8518 2.8571,0 0.8519,1.7037 -0.8518,4.0106 0,5.7143 0.426,0.8518 2.4313,-0.8518 2.8572,0 0.8518,1.7037 -0.8518,4.0106 0,5.7143 0.4259,0.8518 1.9047,0 2.8571,0 0.9524,1.9047 2.1837,3.694 2.8572,5.7143 0.3011,0.9035 0,1.9047 0,2.8571 0.9524,0.9524 2.2548,1.6525 2.8571,2.8571 0.4259,0.8519 -0.6734,2.1838 0,2.8572 0.092,0.092 7.8785,0 8.5714,0 11.4286,0 22.8572,0 34.2858,0 3.4876,0 6.5885,-1.1087 8.5714,2.8571 1.9705,3.9411 -3.4602,2.5557 2.8571,5.7143 0.8519,0.4259 2.1837,-0.6734 2.8572,0 0.6734,0.6735 0,1.9048 0,2.8572 0.9524,1.9047 1.0852,4.533 2.8571,5.7142 1.5849,1.0566 3.9073,-0.6023 5.7143,0 1.2778,0.426 1.6525,2.2549 2.8571,2.8572 0.8178,0.4089 12.7594,0 14.2858,0 1.5263,0 13.468,0.4089 14.2857,0 7.0611,-3.5306 -0.9862,-2.8572 5.7143,-2.8572 3.1298,0 11.2843,-0.2884 11.4285,0 0.8519,1.7037 0,3.8096 0,5.7143 0.9524,1.9048 1.6759,3.9424 2.8572,5.7143 1.4942,2.2413 4.5096,3.305 5.7143,5.7143 1.9705,3.941 -3.4602,2.5556 2.8571,5.7143 0.8518,0.4259 2.1837,-0.6734 2.8571,0 5.9116,5.9115 -9.0336,-0.2311 2.8572,5.7143 0.8518,0.4259 2.1837,-0.6735 2.8571,0 0.6735,0.6734 -0.6734,2.1837 0,2.8571 0.6735,0.6735 2.0053,-0.4259 2.8572,0 1.2047,0.6024 1.6524,2.2548 2.8571,2.8572 1.7037,0.8518 4.0106,-0.8519 5.7143,0 11.8907,5.9453 -3.0544,-0.1973 2.8571,5.7142 0.6735,0.6735 1.9537,-0.3011 2.8572,0 2.0203,0.6735 3.694,2.1838 5.7143,2.8572 1.7431,0.581 14.9362,0 17.1428,0 1.2868,0 7.7019,0.4348 8.5715,0 2.4093,-1.2047 3.3049,-4.5096 5.7142,-5.7143 0.8519,-0.4259 2.1838,0.6734 2.8572,0 1.5058,-1.5058 1.6759,-3.9424 2.8571,-5.7143 2.1978,-3.2967 6.3737,-5.2747 8.5715,-8.5714 1.1812,-1.7719 1.3513,-4.2084 2.8571,-5.7143 0.6734,-0.6734 2.0647,0.5283 2.8571,0 16.566,-11.044 2.1158,-1.3743 5.7143,-8.5714 1.2662,-2.5324 6.8375,-5.9706 8.5715,-8.5715 1.1812,-1.7719 1.3513,-4.2084 2.8571,-5.7142 1.5059,-1.5059 4.2084,-1.3513 5.7143,-2.8572 1.5058,-1.5058 1.6759,-3.9423 2.8571,-5.7143 0.7471,-1.1206 2.2548,-1.6524 2.8572,-2.8571 0.4259,-0.8518 -0.5283,-2.0647 0,-2.8572 1.4942,-2.2413 3.8095,-3.8095 5.7143,-5.7142 0.9523,-0.9524 2.2548,-1.6525 2.8571,-2.8572 0.4259,-0.8518 -0.5283,-2.0647 0,-2.8571 2.8028,-4.2042 8.6258,-7.2244 11.4286,-11.4286 4.2157,-6.3236 1.1566,-6.4854 8.5714,-11.4286 0.7924,-0.5283 2.0053,0.426 2.8571,0 3.4286,-1.7143 5.1429,-6.8571 8.5715,-8.5714 0.4571,-0.2286 8.4571,-0.2286 8.5714,0 0.8518,1.7037 -0.6023,3.9073 0,5.7143 0.8518,2.5555 4.2201,3.4729 5.7143,5.7143 10.358,20.7159 -3.0117,-4.5176 5.7143,8.5714 3.5165,5.2747 5.0549,11.8681 8.5714,17.1429 1.7339,2.6009 7.3052,6.039 8.5714,8.5714 1.9705,3.941 -3.4601,2.5556 2.8572,5.7143 0.8695,0.4347 7.2847,0 8.5714,0 0.9524,0 2.1837,0.6734 2.8571,0 0.6735,-0.6735 -0.6734,-2.1837 0,-2.8572 4.2866,-4.2865 11.7235,-2.8571 17.1429,-2.8571 0.9524,0 1.9048,0 2.8571,0 0.9524,0 2.0054,-0.4259 2.8572,0 5.0451,2.5225 1.6034,4.8101 2.8571,8.5714 3.4527,10.358 1.3556,2.0334 5.7143,8.5714 3.5165,5.2748 5.055,11.8682 8.5714,17.1429 0.7472,1.1207 1.9048,1.9048 2.8572,2.8571 0.9524,0.9524 1.6525,2.2549 2.8571,2.8572 0.5008,0.2504 19.9853,0.01 20,0 0.8519,-0.4259 -0.6734,-2.1837 0,-2.8572 0.015,-0.015 8.4759,0.024 8.5715,0 2.066,-0.5165 3.6939,-2.1837 5.7142,-2.8571 0.9036,-0.3012 2.1838,0.6734 2.8572,0 0.6734,-0.6734 -0.8518,-2.4312 0,-2.8571 2.4277,-1.2139 11.4455,0.9467 14.2857,0 2.5555,-0.8519 3.473,-4.2201 5.7143,-5.7143 1.7719,-1.1813 3.9424,-1.6759 5.7143,-2.8572 1.1206,-0.7471 1.5794,-2.4312 2.8571,-2.8571 1.807,-0.6023 4.0106,0.8518 5.7143,0 2.6399,-1.3199 11.4978,-12.1948 14.2857,-14.2857 1.7037,-1.2778 3.9424,-1.6759 5.7143,-2.8572 1.1207,-0.7471 1.7365,-2.11 2.8571,-2.8571 1.772,-1.1813 4.2085,-1.3513 5.7143,-2.8572 0.6735,-0.6734 -0.6734,-2.1837 0,-2.8571 0.6735,-0.6734 1.9048,0 2.8572,0 2.3001,0 9.6353,-0.5978 11.4285,0 2.0204,0.6734 3.694,2.1837 5.7143,2.8571 0.9035,0.3012 2.1837,-0.6734 2.8572,0 0.6734,0.6735 -0.6735,2.1838 0,2.8572 1.3468,1.3469 4.3674,-1.3469 5.7143,0 0.6734,0.6734 -0.6735,2.1837 0,2.8571 0.6734,0.6735 1.9047,0 2.8571,0 1.9048,0 3.8095,0 5.7143,0 1.9048,0 3.9073,0.6024 5.7143,0 1.2777,-0.4259 1.6524,-2.2548 2.8571,-2.8571 0.8519,-0.4259 2.0647,0.5283 2.8572,0 4.2042,-2.8028 7.2243,-8.6258 11.4285,-11.4286 4.8581,-3.2387 8.3391,-2.3924 11.4286,-8.5714 0.8518,-1.7037 -1.0566,-4.1294 0,-5.7143 1.1813,-1.7719 4.0106,-1.5794 5.7143,-2.8571 1.8101,-1.3576 15.7853,-15.3328 17.1428,-17.1429 1.2778,-1.7037 1.5794,-4.0106 2.8572,-5.7143 0.9177,-1.2236 10.5624,-9.6963 11.4286,-11.4286 0.4259,-0.8518 -0.6735,-2.1837 0,-2.8571 0.6734,-0.6734 2.1837,0.6734 2.8571,0 0.6735,-0.6734 -0.6734,-2.1837 0,-2.8571 0.6735,-0.6735 1.9048,0 2.8572,0 0.9523,0 1.9047,0 2.8571,0 1.4941,0 10.6773,-0.3757 11.4286,0 1.2046,0.6023 1.5794,2.4312 2.8571,2.8571 1.807,0.6023 4.0106,-0.8518 5.7143,0 0.8518,0.4259 -0.4259,2.0053 0,2.8571 0.2735,0.547 10.8817,11.1552 11.4286,11.4286 0.8518,0.4259 2.1837,-0.6734 2.8571,0 0.6735,0.6735 -0.4259,2.0053 0,2.8572 1.2047,2.4093 4.5096,3.3049 5.7143,5.7142 1.9705,3.9411 -3.4602,2.5557 2.8571,5.7143 2.2858,1.1429 6.2858,-1.1428 8.5715,0 1.2046,0.6024 1.5794,2.4313 2.8571,2.8572 3.9011,1.3004 13.2417,-1.3004 17.1429,0 1.2777,0.4259 1.6524,2.2548 2.8571,2.8571 0.8519,0.4259 2.0053,-0.4259 2.8572,0 2.4093,1.2047 3.3049,4.5096 5.7142,5.7143 7.1972,3.5986 -2.4725,-10.8517 8.5715,5.7143 0.5283,0.7924 -0.6735,2.1837 0,2.8571 0.6734,0.6735 1.9536,-0.3011 2.8571,0 2.0203,0.6735 4.2085,1.3513 5.7143,2.8572 0.6734,0.6734 -0.4259,2.0053 0,2.8571 5.9454,11.8908 -0.1972,-3.0544 5.7143,2.8572 0.6734,0.6734 -0.6734,2.1837 0,2.8571 0.6734,0.6734 2.1837,-0.6734 2.8571,0 0.6735,0.6734 -0.6734,2.1837 0,2.8571 0.6735,0.6735 2.1837,-0.6734 2.8572,0 0.6734,0.6735 -0.6735,2.1838 0,2.8572 0.6734,0.6734 2.1837,-0.6734 2.8571,0 0.6735,0.6734 -0.4259,2.0053 0,2.8571 1.2047,2.4094 4.5096,3.305 5.7143,5.7143 0.9012,1.8025 -0.9012,12.4832 0,14.2857 0.6023,1.2047 2.2548,1.6525 2.8571,2.8572 0.426,0.8518 -0.4259,2.0053 0,2.8571 0.6024,1.2047 2.2548,1.6525 2.8572,2.8572 0.4259,0.8518 0,1.9047 0,2.8571 0.9524,1.9048 1.6758,3.9424 2.8571,5.7143 0.7471,1.1207 2.4313,1.5794 2.8572,2.8571 0.6023,1.807 -0.8519,4.0106 0,5.7143 0.4259,0.8519 2.4312,-0.8518 2.8571,0 0.8519,1.7037 0,3.8095 0,5.7143 0,0.9524 -0.6734,2.1837 0,2.8571 0.6735,0.6735 2.1837,-0.6734 2.8572,0 1.3468,1.3469 -1.3469,4.3675 0,5.7143 0.6734,0.6735 1.9047,0 2.8571,0 0.9524,0 1.9048,0 2.8571,0 1.6263,0 11.1361,0.195 11.4286,0 1.7719,-1.1812 1.5794,-4.0106 2.8572,-5.7143 3.9843,-5.3124 10.1367,-9.0995 14.2857,-14.2857 1.5307,-1.9133 5.2201,-9.1944 8.5714,-11.4285 1.7719,-1.1813 4.0106,-1.5794 5.7143,-2.8572 13.2554,2.4448 3.2862,-6.1433 5.7143,-8.5714 0.183,-0.1831 10.8963,-5.3595 11.4285,-5.7143 1.1207,-0.7471 1.7365,-2.11 2.8572,-2.8571 1.7719,-1.1813 3.9423,-1.6759 5.7143,-2.8572 1.1206,-0.7471 1.6524,-2.2548 2.8571,-2.8571 1.7958,-0.8979 9.6328,0.8979 11.4286,0 1.2047,-0.6024 1.5794,-2.4312 2.8571,-2.8572 1.807,-0.6023 3.8095,0 5.7143,0 1.9048,0 3.8095,0 5.7143,0 0.6929,0 8.4795,-0.092 8.5714,0 1.3469,1.3469 -0.8518,4.0106 0,5.7143 0.6024,1.2047 2.2548,1.6525 2.8572,2.8572 0.4259,0.8518 -0.6735,2.1837 0,2.8571 0.6734,0.6734 2.0053,-0.4259 2.8571,0 1.2047,0.6023 1.6525,2.2548 2.8571,2.8571 0.6404,0.3202 10.7497,0 11.4286,0 2.8572,0 5.8609,0.9036 8.5715,0 2.5555,-0.8518 3.3049,-4.5096 5.7142,-5.7142 0.8519,-0.426 2.0054,0.4259 2.8572,0 1.2047,-0.6024 1.9047,-1.9048 2.8571,-2.8572 0.9524,-0.9524 2.2548,-1.6524 2.8572,-2.8571 0.4259,-0.8519 -0.6735,-2.1837 0,-2.8572 5.9115,-5.9115 -0.2311,9.0336 5.7143,-2.8571 0.4259,-0.8518 -0.6735,-2.1837 0,-2.8572 0.092,-0.092 7.8785,0 8.5714,0"
       style="fill:none;stroke:#000000;stroke-width:4;stroke-linecap:butt;stroke-linejoin:miter;stroke-miterlimit:4;stroke-opacity:1;stroke-dasharray:none" />
    <path
       inkscape:connector-curvature="0"
       id="path2993-1"
       d="m -1374.2857,-548.5913 c 3.8095,-1.00608 7.619,-2.01216 11.4286,-3.01824 0.9524,0 2.0053,0.11248 2.8571,0 2.4094,-0.31816 3.3049,-1.19098 5.7143,-1.50913 0.7513,-0.0992 9.9345,0 11.4286,0 1.2867,0 7.7019,-0.11482 8.5714,0 0.7586,0.10017 8.1921,2.06334 8.5714,2.26369 0.4259,0.22496 -0.6734,0.57671 0,0.75456 0.6735,0.17785 2.0053,-0.11249 2.8572,0 1.2046,0.15907 1.9047,0.50304 2.8571,0.75456 0.9524,0.25152 2.2548,0.43641 2.8572,0.75456 0.8518,0.44993 -1.3469,1.15342 0,1.50912 0.6734,0.17785 2.1837,-0.17785 2.8571,0 1.5058,0.39769 2.1837,0.97557 2.8571,1.50913 0.3012,0.23861 -0.6734,0.57671 0,0.75456 0.6735,0.17785 2.0054,-0.11249 2.8572,0 6.3173,0.83418 0.8866,0.46831 2.8571,1.50912 3.1587,1.66837 1.7733,0.23415 5.7143,0.75456 1.2047,0.15907 1.9048,0.50304 2.8572,0.75456 0.9523,0.25152 1.6524,0.59549 2.8571,0.75456 0.7513,0.0992 9.9345,0 11.4286,0 0.9524,0 2.1837,0.17785 2.8571,0 0.6734,-0.17785 -0.6734,-0.57671 0,-0.75456 0.6734,-0.17785 2.1837,0.17785 2.8572,0 0.6734,-0.17785 -0.426,-0.52959 0,-0.75456 2.1879,-1.15567 5.0914,-0.59008 8.5714,-1.50912 0.6734,-0.17785 -0.4259,-0.5296 0,-0.75456 2.188,-1.15567 5.0915,-0.59008 8.5714,-1.50913 1.5059,-0.39769 1.6759,-1.04116 2.8572,-1.50912 2.6203,-1.03805 4.4077,-0.77605 8.5714,-1.50912 2.6009,-0.45793 6.039,-1.92929 8.5714,-2.26368 0.8518,-0.11249 2.0053,0.11248 2.8572,0 2.4093,-0.31816 3.3049,-1.19098 5.7142,-1.50913 0.8519,-0.11248 2.0054,0.11249 2.8572,0 1.2047,-0.15907 1.5794,-0.64208 2.8571,-0.75456 1.6253,-0.14308 11.5948,0 14.2857,0 9.5239,0 19.0477,0 28.5715,0 6.6666,0 13.3333,0 20,0 1.2867,0 7.7019,-0.11482 8.5714,0 1.2047,0.15908 1.9048,0.50304 2.8571,0.75456 0.9524,0.25152 2.1101,0.4586 2.8572,0.75456 2.3626,0.93592 3.3517,2.08233 5.7143,3.01825 0.7471,0.29596 1.9047,0.50304 2.8571,0.75456 0.9524,0.50304 1.6759,1.04116 2.8572,1.50912 0.7471,0.29597 2.2548,0.43641 2.8571,0.75456 0.4259,0.22497 -0.3012,0.51595 0,0.75457 1.7297,1.37045 2.4453,1.40034 5.7143,2.26368 0.9524,0.25152 2.2548,0.43641 2.8571,0.75456 0.4259,0.22497 -0.6734,0.57671 0,0.75456 0.403,0.10641 7.9854,0.0774 8.5715,0 1.2046,-0.15908 1.6524,-0.59549 2.8571,-0.75456 0.8518,-0.11249 2.4312,0.22497 2.8571,0 0.8519,-0.44993 -1.0565,-1.09057 0,-1.50912 1.1813,-0.46796 3.9424,-0.44259 5.7143,-0.75456 1.1207,-0.19731 1.9048,-0.50304 2.8572,-0.75456 0.9524,-0.25153 2.11,-0.4586 2.8571,-0.75457 1.1813,-0.46796 1.6759,-1.04116 2.8572,-1.50912 2.8028,-1.11032 8.6257,-1.90793 11.4285,-3.01824 1.1813,-0.46796 1.0852,-1.19715 2.8572,-1.50913 1.5848,-0.27903 4.1294,0.27904 5.7143,0 8.0449,-0.0468 0.7275,-1.70126 2.8571,-2.26368 0.1774,-2.12465 6.4418,-0.19214 8.5714,-0.75456 5.9116,-1.56121 -9.0336,0.061 2.8572,-1.50912 1.7036,-0.22497 4.3674,0.3557 5.7143,0 0.6734,-0.17785 -0.6735,-0.57671 0,-0.75456 0.6734,-0.17786 1.9047,0 2.8571,0 0.9524,0 1.9048,0 2.8571,0 11.4286,0 22.8572,0 34.2858,0 7.619,0 15.2381,0 22.85714,0 0.9524,0 2.1837,-0.17786 2.8571,0 11.1507,2.94485 -0.6613,0.40523 2.8572,2.26368 1.7143,0.90547 6.8571,1.35821 8.5714,2.26368 0.4259,0.22497 -0.4259,0.5296 0,0.75456 3.1587,1.66838 1.7733,0.23416 5.7143,0.75457 7.0612,0.93241 -0.9862,0.75456 5.7143,0.75456 0.9524,0 1.9047,0 2.8571,0 0.9524,0 2.0053,0.11248 2.8572,0 6.3173,-0.83419 0.8866,-0.46832 2.8571,-1.50913 0.6024,-0.31815 2.11,-0.45859 2.8572,-0.75456 1.1812,-0.46796 1.5793,-1.05919 2.8571,-1.50912 4.9705,-1.75025 10.9669,-2.33613 14.2857,-4.52737 0.7074,-0.46706 -0.8518,-1.05918 0,-1.50912 1.3199,-0.69717 12.19477,-3.03653 14.28567,-3.7728 0.9524,-0.50304 1.9048,-1.00608 2.8572,-1.50912 0,-0.25152 -0.4259,-0.5296 0,-0.75456 0.6023,-0.31816 1.9047,-0.50304 2.8571,-0.75456 0.9524,-0.25153 1.6525,-0.59549 2.8572,-0.75457 2.2857,-0.30182 6.2857,0.30183 8.5714,0 1.2047,-0.15907 1.6525,-0.59548 2.8571,-0.75456 0.8178,-0.10798 12.7594,0 14.2857,0 4.7619,0 9.5239,0 14.2858,0 0.9523,0 2.1837,-0.17785 2.8571,0 0.6734,0.17785 -0.6734,0.57671 0,0.75456 1.5058,0.39769 3.694,0.57671 5.7143,0.75457 0.9035,0.0795 2.1837,-0.17786 2.8571,0 0.6735,0.17785 -0.4259,0.52959 0,0.75456 1.6378,0.86504 5.9615,1.0496 8.5715,1.50912 1.1206,0.19731 1.6524,0.59548 2.8571,0.75456 0.8518,0.11248 2.1837,-0.17785 2.8571,0 0.6735,0.17785 -0.6734,0.57671 0,0.75456 0.6735,0.17785 1.9048,0 2.8572,0 1.9047,0 3.8095,0 5.7143,0 9.5238,0 19.0476,0 28.5714,0 1.4941,0 10.6773,-0.0992 11.4286,0 5.6087,0.74062 1.2862,1.43396 2.8571,2.26368 0.6024,0.31815 1.9048,0.50304 2.8572,0.75456 0.9523,0.25152 1.6524,0.59549 2.8571,0.75456 0.8518,0.11249 2.4312,-0.22496 2.8571,0 0.8519,0.44994 0,1.00609 0,1.50912 0,0.25153 -0.6734,0.57671 0,0.75457 0.6735,0.17785 2.1838,-0.17786 2.8572,0 0.6734,0.17785 -0.3012,0.51595 0,0.75456 0.6734,0.53355 2.1837,0.97556 2.8571,1.50912 0.3012,0.23861 -0.3011,0.51595 0,0.75456 0.6735,0.53356 2.1837,0.97557 2.8572,1.50912 0.3011,0.23862 -0.4259,0.5296 0,0.75456 0.6023,0.31816 2.2548,0.43641 2.8571,0.75457 0.4259,0.22496 -0.4259,0.52959 0,0.75456 0.6024,0.31815 2.2548,0.43641 2.8572,0.75456 0.4259,0.22496 0,0.50304 0,0.75456 0,0.50304 -0.6024,1.03189 0,1.50912 2.9726,2.35523 1.9047,-0.25152 5.7142,0.75456 1.3469,0.3557 -1.3468,1.15342 0,1.50913 0.6735,0.17785 2.0054,-0.11249 2.8572,0 6.3173,0.83418 0.8866,0.46831 2.8571,1.50912 3.1587,1.66837 1.7733,0.23415 5.7143,0.75456 1.2047,0.15907 1.6525,0.59548 2.8572,0.75456 0.7512,0.0992 9.9345,0 11.4285,0 1.1295,0 13.0655,0.16113 14.2857,0 1.2047,-0.15908 1.7365,-0.55725 2.8572,-0.75456 1.7719,-0.31198 3.9423,-0.44259 5.7143,-0.75456 4.2837,-0.75422 6.8597,-2.41495 11.4285,-3.01825 1.7037,-0.22496 4.0107,0.22497 5.7143,0 14.7254,-1.94445 2.7665,-0.70668 5.7143,-2.26368 3.1587,-1.66838 1.7733,-0.23416 5.7143,-0.75456 1.2047,-0.15908 1.6525,-0.59549 2.8571,-0.75456 0.8696,-0.11482 7.2847,0 8.5715,0 0.9524,0 2.1837,-0.17786 2.8571,0 0.9468,0.25004 -0.9468,1.25908 0,1.50912 0.6734,0.17785 2.1837,-0.17785 2.8572,0 0.6734,0.17785 -0.6735,0.57671 0,0.75456 0.6734,0.17785 2.1837,-0.17785 2.8571,0 1.3469,0.3557 -1.3469,1.15342 0,1.50912 0.4434,0.1171 7.4596,-0.0979 8.5714,0 2.0203,0.17785 3.694,0.57671 5.7143,0.75456 1.8512,0.16297 11.9466,0 14.2857,0 0.9524,0 2.1837,-0.17785 2.8572,0 0.6734,0.17786 -0.6735,0.57671 0,0.75457 1.3468,0.3557 4.0106,-0.22497 5.7143,0 6.3173,0.83418 0.8866,0.46831 2.8571,1.50912 1.2047,0.6363 4.5096,0.87282 5.7143,1.50912 0.5664,0.29918 -0.5841,2.10942 0,2.26368 0.6734,0.17785 2.1837,-0.17785 2.8571,0 0.6735,0.17785 -0.6734,0.57671 0,0.75456 0.6735,0.17786 1.9048,0 2.8572,0 0.9524,0 1.9047,0 2.8571,0 8.5714,0 17.1429,0 25.7143,0 1.2019,0 16.2929,0.11224 17.1429,0 11.8907,-1.57015 -3.0544,0.0521 2.8571,-1.50912 0.6734,-0.17785 2.1837,0.17785 2.8571,0 1.5059,-0.39769 1.3513,-1.11143 2.8572,-1.50912 0.6734,-0.17785 2.4312,0.22497 2.8571,0 0.8519,-0.44993 -0.4619,-1.0211 0,-1.50912 3.4493,-3.64374 1.3578,0.0374 5.7143,-2.26369 1.3469,-0.7114 1.7386,-1.52519 2.8572,-2.26368 1.5818,-1.04438 3.5229,-2.05371 5.7142,-3.01824 1.7667,-0.77764 4.62836,-1.40336 5.71426,-2.26369 0.9035,-0.71584 -0.5603,-1.52377 0,-2.26368 1.2575,-1.66041 4.8986,-1.72494 8.5715,-3.01825 1.2777,-0.44993 1.6758,-1.04116 2.8571,-1.50912 0.7471,-0.29596 2.2548,-0.43641 2.8571,-0.75456 0.426,-0.22496 -0.4259,-0.52959 0,-0.75456 0.6024,-0.31815 1.9048,-0.50304 2.8572,-0.75456 0.9524,-0.25152 1.6525,-0.59548 2.8571,-0.75456 0.7513,-0.0992 9.9345,0 11.4286,0 0.9524,0 2.4312,-0.22497 2.8571,0 0.8519,0.44993 -0.8518,1.05919 0,1.50912 0.426,0.22497 2.4313,-0.22496 2.8572,0 0.8518,0.44994 -0.8518,1.05919 0,1.50912 0.4259,0.22497 1.9047,0 2.8571,0 0.9524,0.50304 2.1837,0.97557 2.8572,1.50912 0.3011,0.23862 0,0.50305 0,0.75456 0.9524,0.25153 2.2548,0.43642 2.8571,0.75457 0.4259,0.22496 -0.6734,0.57671 0,0.75456 0.092,0.0243 7.8785,0 8.5714,0 11.4286,0 22.8572,0 34.2858,0 3.4876,0 6.5885,-0.2928 8.5714,0.75456 1.9705,1.04081 -3.4602,0.67493 2.8571,1.50912 0.8519,0.11248 2.1837,-0.17785 2.8572,0 0.6734,0.17785 0,0.50304 0,0.75456 0.9524,0.50304 1.0852,1.19715 2.8571,1.50912 1.5849,0.27904 3.9073,-0.15907 5.7143,0 1.2778,0.11249 1.6525,0.59549 2.8571,0.75457 0.8178,0.10797 12.7594,0 14.2858,0 1.5263,0 13.468,0.10797 14.2857,0 7.0611,-0.93242 -0.9862,-0.75457 5.7143,-0.75457 3.1298,0 11.2843,-0.0762 11.4285,0 0.8519,0.44994 0,1.00609 0,1.50913 0.9524,0.50304 1.6759,1.04116 2.8572,1.50912 1.4942,0.59192 4.5096,0.87282 5.7143,1.50912 1.9705,1.04081 -3.4602,0.67494 2.8571,1.50912 0.8518,0.11248 2.1837,-0.17785 2.8571,0 5.9115,1.56122 -9.0336,-0.061 2.8572,1.50913 0.8518,0.11248 2.1837,-0.17785 2.8571,0 0.6734,0.17785 -0.6734,0.57671 0,0.75456 0.6734,0.17785 2.0053,-0.11249 2.8571,0 1.2047,0.15907 1.6525,0.59548 2.8572,0.75456 1.7037,0.22496 4.0106,-0.22497 5.7143,0 11.8907,1.57015 -3.0544,-0.0521 2.8571,1.50912 0.6734,0.17785 1.9536,-0.0795 2.8572,0 2.0203,0.17785 3.6939,0.57671 5.7142,0.75456 1.7432,0.15345 14.9362,0 17.1429,0 1.2867,0 7.7019,0.11482 8.5714,0 2.4094,-0.31815 3.305,-1.19097 5.7143,-1.50912 0.8518,-0.11249 2.1837,0.17785 2.8572,0 1.5058,-0.39769 1.6758,-1.04116 2.8571,-1.50912 2.1978,-0.87065 6.3736,-1.39304 8.5714,-2.26369 1.1813,-0.46796 1.3513,-1.11143 2.8572,-1.50912 0.6734,-0.17785 2.0647,0.13952 2.8571,0 16.566,-2.91668 2.1157,-0.36295 5.7143,-2.26368 1.2662,-0.6688 6.8375,-1.5768 8.5714,-2.26369 1.1813,-0.46795 1.3513,-1.11143 2.8572,-1.50912 1.5058,-0.39769 4.2084,-0.35687 5.7143,-0.75456 1.5058,-0.39769 1.6758,-1.04116 2.8571,-1.50912 0.7471,-0.29597 2.2548,-0.43641 2.8571,-0.75456 0.426,-0.22497 -0.5282,-0.54529 0,-0.75456 1.4943,-0.59193 3.8096,-1.00608 5.7143,-1.50913 0.9524,-0.25151 2.2548,-0.43641 2.8572,-0.75456 0.4259,-0.22496 -0.5283,-0.54528 0,-0.75456 2.8028,-1.11031 8.6257,-1.90792 11.4285,-3.01824 4.2157,-1.67003 1.1567,-1.71277 8.5715,-3.01824 0.7924,-0.13952 2.0053,0.11248 2.8571,0 3.4286,-0.45274 5.1429,-1.81095 8.5714,-2.26369 0.4572,-0.0604 8.4572,-0.0604 8.5715,0 0.8518,0.44994 -0.6024,1.0319 0,1.50913 0.8518,0.67489 4.22,0.91719 5.7143,1.50912 10.3579,5.471 -3.0117,-1.19307 5.7142,2.26368 3.5165,1.39304 5.055,3.13433 8.5715,4.52736 1.7339,0.68689 7.3052,1.59489 8.5714,2.26369 1.9705,1.04081 -3.4602,0.67493 2.8571,1.50912 0.8696,0.11482 7.2847,0 8.5715,0 0.9523,0 2.1837,0.17785 2.8571,0 0.6734,-0.17785 -0.6734,-0.57671 0,-0.75456 4.2866,-1.13206 11.7234,-0.75456 17.1429,-0.75456 0.9523,0 1.9047,0 2.8571,0 0.9524,0 2.0053,-0.11249 2.8572,0 5.045,0.66619 1.6033,1.27033 2.8571,2.26368 3.4527,2.7355 1.3556,0.53702 5.7143,2.26368 3.5165,1.39304 5.0549,3.13433 8.5714,4.52737 0.7471,0.29596 1.9048,0.50304 2.8572,0.75456 0.9523,0.25152 1.6524,0.59549 2.8571,0.75456 0.5007,0.0661 19.9853,0.002 20,0 0.8518,-0.11248 -0.6734,-0.57671 0,-0.75456 0.015,-0.004 8.475903,0.006 8.571403,0 2.066,-0.13641 3.694,-0.57671 5.7143,-0.75456 0.9035,-0.0795 2.1837,0.17785 2.8572,0 0.6734,-0.17785 -0.8519,-0.64208 0,-0.75456 2.4277,-0.32058 11.4455,0.25003 14.2857,0 2.5555,-0.22497 3.4729,-1.1145 5.7143,-1.50912 1.7719,-0.31198 3.9423,-0.44259 5.7142,-0.75456 1.1207,-0.19731 1.5794,-0.64208 2.8572,-0.75456 1.807,-0.15908 4.0106,0.22496 5.7143,0 2.6398,-0.34859 11.4978,-3.22061 14.2857,-3.77281 1.7037,-0.33745 3.942301,-0.44259 5.714301,-0.75456 1.1206,-0.19731 1.7364,-0.55725 2.8571,-0.75456 1.7719,-0.31198 4.2084,-0.35687 5.7143,-0.75456 0.6734,-0.17786 -0.6734,-0.57671 0,-0.75457 0.6734,-0.17785 1.9048,0 2.8571,0 2.3001,0 9.6353,-0.15786 11.4286,0 2.0202998,0.17786 3.6939998,0.57671 5.7142998,0.75457 0.9035,0.0795 2.1837,-0.17786 2.8571,0 0.6735,0.17785 -0.6734,0.57671 0,0.75456 1.3469,0.3557 4.3675,-0.35571 5.7143,0 0.6735,0.17785 -0.6734,0.57671 0,0.75456 0.6735,0.17785 1.9048,0 2.8572,0 1.9047,0 3.8095,0 5.7143002,0 1.9047,0 3.9072,0.15907 5.7142,0 1.2778,-0.11248 1.6525,-0.59549 2.8572,-0.75456 0.8518,-0.11249 2.0647,0.13952 2.8571,0 4.2042,-0.74021 7.2244,-2.27804 11.4286,-3.01825 4.8581,-0.85533 8.3391,-0.63183 11.4287,-2.26368 0.8518,-0.44993 -1.0567,-1.09056 0,-1.50912 1.1812,-0.46796 4.0106,-0.41711 5.7143,-0.75456 1.81,-0.35853 15.7852,-4.04933 17.1428,-4.52737 1.2778,-0.44993 1.5794,-1.05919 2.8572,-1.50912 0.9177,-0.32316 10.5624,-2.56075 11.4285,-3.01824 0.4259,-0.22497 -0.6734,-0.57671 0,-0.75457 0.6735,-0.17785 2.1837,0.17786 2.8572,0 0.6734,-0.17785 -0.6735,-0.5767 0,-0.75455 0.6734,-0.17786 1.9047,0 2.8571,0 0.9524,0 1.9048,0 2.8572,0 1.494,0 10.677296,-0.0992 11.428496,0 1.2047,0.15907 1.5794,0.64207 2.8572,0.75455 1.807,0.15908 4.0106,-0.22496 5.7143,0 0.8518,0.11249 -0.426,0.5296 0,0.75457 0.2734,0.14444 10.8816,2.94602 11.4285,3.01824 0.8519,0.11248 2.1837,-0.17785 2.8572,0 0.6734,0.17785 -0.426,0.52959 0,0.75456 1.2046,0.6363 4.5096,0.87282 5.7143,1.50912 1.9705,1.04081 -3.4602,0.67494 2.8571,1.50913 2.2857,0.30182 6.2857,-0.30183 8.5714,0 1.2047,0.15907 1.5794,0.64207 2.8572,0.75456 3.9011,0.34342 13.2417,-0.34343 17.1428,0 1.2778,0.11248 1.6525,0.59548 2.8572,0.75456 0.8518,0.11248 2.0053,-0.11248 2.8571,0 2.4094,0.31815 3.3049,1.19097 5.7143,1.50912 7.1971,0.95037 -2.4726,-2.8659 8.5714,1.50912 0.5283,0.20928 -0.6734,0.57671 0,0.75456 0.6735,0.17785 1.9537,-0.0795 2.8572,0 2.0203,0.17785 4.2084,0.35687 5.7143,0.75456 0.6734,0.17786 -0.426,0.5296 0,0.75456 5.9453,3.14031 -0.1973,-0.80665 5.7142,0.75456 0.6735,0.17785 -0.6734,0.57671 0,0.75456 0.6735,0.17786 2.1837,-0.17785 2.8572,0 0.6734,0.17786 -0.6735,0.57671 0,0.75457 0.6734,0.17785 2.1837,-0.17786 2.8571,0 0.6735,0.17785 -0.6734,0.57671 0,0.75456 0.6735,0.17785 2.1837,-0.17785 2.8572,0 0.6734,0.17785 -0.426,0.52959 0,0.75456 1.2046,0.6363 4.5096,0.87282 5.7143,1.50912 0.9012,0.47603 -0.9013,3.29678 0,3.77281 0.6023,0.31815 2.2548,0.43641 2.8571,0.75456 0.4259,0.22496 -0.4259,0.52959 0,0.75456 0.6023,0.31815 2.2548,0.43641 2.8571,0.75456 0.426,0.22497 0,0.50304 0,0.75456 0.9524,0.50304 1.6759,1.04116 2.8572,1.50912 0.7471,0.29597 2.4312,0.41712 2.8571,0.75457 0.6024,0.47722 -0.8518,1.05918 0,1.50912 0.4259,0.22496 2.4312,-0.22497 2.8572,0 0.8518,0.44993 0,1.00608 0,1.50912 0,0.25152 -0.6735,0.57671 0,0.75456 0.6734,0.17785 2.1837,-0.17785 2.8571,0 1.3469,0.3557 -1.3469,1.15342 0,1.50912 0.6734,0.17785 1.9048,0 2.8572,0 0.9523,0 1.9047,0 2.8571,0 1.6263,0 11.1361,0.0515 11.4286,0 1.7719,-0.31197 1.5794,-1.05919 2.8571,-1.50912 3.9843,-1.40299 10.1368,-2.40315 14.2857,-3.7728 1.5307,-0.50532 5.2202,-2.42821 8.5715,-3.01825 1.7719,-0.31197 4.0106,-0.41711 5.7142,-0.75456 13.2555,0.64567 3.2862,-1.62243 5.7143,-2.26368 0.1831,-0.0484 10.8964,-1.41543 11.4286,-1.50913 1.1207,-0.19731 1.7365,-0.55725 2.8571,-0.75456 1.772,-0.31197 3.9424,-0.44259 5.7143,-0.75456 1.1207,-0.19731 1.6525,-0.59548 2.8572,-0.75456 1.7957,-0.23713 9.6328,0.23713 11.4285,0 1.2047,-0.15908 1.5794,-0.64208 2.8572,-0.75456 1.807,-0.15908 3.8095,0 5.7143,0 1.9047,0 3.8095,0 5.7143,0 0.6929,0 8.4795,-0.0243 8.5714,0 1.3468,0.3557 -0.8519,1.05919 0,1.50912 0.6023,0.31815 2.2548,0.43641 2.8571,0.75456 0.4259,0.22497 -0.6734,0.57671 0,0.75456 0.6735,0.17785 2.0053,-0.11248 2.8572,0 1.2046,0.15908 1.6524,0.59549 2.8571,0.75456 0.6404,0.0846 10.7496,0 11.4286,0 2.8571,0 5.8609,0.23862 8.5714,0 2.5555,-0.22496 3.3049,-1.19097 5.7143,-1.50912 0.8518,-0.11248 2.0053,0.11248 2.8571,0 1.2047,-0.15907 1.9048,-0.50304 2.8572,-0.75456 0.9524,-0.25152 2.2548,-0.43641 2.8571,-0.75456 0.4259,-0.22497 -0.6734,-0.57671 0,-0.75456 5.9116,-1.56121 -0.2311,2.38574 5.7143,-0.75456 0.4259,-0.22497 -0.6734,-0.57671 0,-0.75456 0.092,-0.0243 7.8785,0 8.5714,0"
       style="fill:none;stroke:#000000;stroke-width:4;stroke-linecap:butt;stroke-linejoin:miter;stroke-miterlimit:4;stroke-opacity:1;stroke-dasharray:none" />
    <path
       inkscape:connector-curvature="0"
       id="path3785"
       d="M 645.71428,-553.3521 1973.7759,-564.78068"
       style="fill:#ff0000;stroke:#000000;stroke-width:3.49744844;stroke-linecap:butt;stroke-linejoin:miter;stroke-miterlimit:4;stroke-opacity:1;stroke-dasharray:none" />
    <path
       inkscape:connector-curvature="0"
       id="path3787-4"
       d="M 718.28568,-923.06639 1064,-571.63782"
       style="fill:url(#linearGradient3820);fill-opacity:1;stroke:#ffbd00;stroke-width:8;stroke-linecap:butt;stroke-linejoin:miter;stroke-miterlimit:4;stroke-opacity:1;stroke-dasharray:none" />
    <path
       inkscape:connector-curvature="0"
       id="path3787-4-2"
       d="M 818.28568,-923.06639 1164,-571.63782"
       style="fill:url(#linearGradient3939);fill-opacity:1;stroke:#ffbd00;stroke-width:8;stroke-linecap:butt;stroke-linejoin:miter;stroke-miterlimit:4;stroke-opacity:1;stroke-dasharray:none" />
    <path
       inkscape:connector-curvature="0"
       id="path3787-4-0"
       d="M 918.28568,-923.06639 1264,-571.63782"
       style="fill:url(#linearGradient3939-6);fill-opacity:1;stroke:#ffbd00;stroke-width:8;stroke-linecap:butt;stroke-linejoin:miter;stroke-miterlimit:4;stroke-opacity:1;stroke-dasharray:none" />
    <path
       inkscape:connector-curvature="0"
       id="path3787-4-6"
       d="m 1018.2857,-923.06639 345.7144,351.42857"
       style="fill:url(#linearGradient3939-0);fill-opacity:1;stroke:#ffbd00;stroke-width:8;stroke-linecap:butt;stroke-linejoin:miter;stroke-miterlimit:4;stroke-opacity:1;stroke-dasharray:none" />
    <path
       inkscape:connector-curvature="0"
       id="path3787-4-66"
       d="M 1118.2857,-923.06639 1464,-571.63782"
       style="fill:url(#linearGradient3939-60);fill-opacity:1;stroke:#ffbd00;stroke-width:8;stroke-linecap:butt;stroke-linejoin:miter;stroke-miterlimit:4;stroke-opacity:1;stroke-dasharray:none" />
    <path
       inkscape:connector-curvature="0"
       id="path3787-4-88"
       d="M 1218.2857,-923.06639 1564,-571.63782"
       style="fill:url(#linearGradient3939-7);fill-opacity:1;stroke:#ffbd00;stroke-width:8;stroke-linecap:butt;stroke-linejoin:miter;stroke-miterlimit:4;stroke-opacity:1;stroke-dasharray:none" />
    <path
       inkscape:connector-curvature="0"
       id="path3787-4-5"
       d="m 1911.4286,-923.3521 -345.7143,351.42857"
       style="fill:#ffff00;fill-opacity:1;stroke:#ffbd00;stroke-width:8;stroke-linecap:butt;stroke-linejoin:miter;stroke-miterlimit:4;stroke-opacity:1;stroke-dasharray:none;marker-start:url(#Arrow1LstartO);marker-end:none" />
    <path
       inkscape:connector-curvature="0"
       id="path3787-4-2-7"
       d="m 1811.4286,-923.3521 -345.7143,351.42857"
       style="fill:#ffff00;fill-opacity:1;stroke:#ffbd00;stroke-width:8;stroke-linecap:butt;stroke-linejoin:miter;stroke-miterlimit:4;stroke-opacity:1;stroke-dasharray:none;marker-start:url(#Arrow1LstartL);marker-end:none" />
    <path
       inkscape:connector-curvature="0"
       id="path3787-4-0-5"
       d="m 1711.4286,-923.3521 -345.7143,351.42857"
       style="fill:#ffff00;fill-opacity:1;stroke:#ffbd00;stroke-width:8;stroke-linecap:butt;stroke-linejoin:miter;stroke-miterlimit:4;stroke-opacity:1;stroke-dasharray:none;marker-start:url(#Arrow1Lstartx);marker-end:none" />
    <path
       inkscape:connector-curvature="0"
       id="path3787-4-6-4"
       d="m 1611.4286,-923.3521 -345.7144,351.42857"
       style="fill:#ffff00;fill-opacity:1;stroke:#ffbd00;stroke-width:8;stroke-linecap:butt;stroke-linejoin:miter;stroke-miterlimit:4;stroke-opacity:1;stroke-dasharray:none;marker-start:url(#Arrow1LstartNF);marker-end:none" />
    <path
       inkscape:connector-curvature="0"
       id="path3787-4-66-1"
       d="m 1511.4286,-923.3521 -345.7143,351.42857"
       style="fill:#ffff00;fill-opacity:1;stroke:#ffbd00;stroke-width:8;stroke-linecap:butt;stroke-linejoin:miter;stroke-miterlimit:4;stroke-opacity:1;stroke-dasharray:none;marker-start:url(#Arrow1LstartW);marker-end:none" />
    <path
       inkscape:connector-curvature="0"
       id="path3787-4-88-2"
       d="m 1411.4286,-923.3521 -345.7143,351.42857"
       style="fill:#ffff00;fill-opacity:1;stroke:#ffbd00;stroke-width:8;stroke-linecap:butt;stroke-linejoin:miter;stroke-miterlimit:4;stroke-opacity:1;stroke-dasharray:none;marker-start:url(#Arrow1LstartM);marker-end:none" />
    <path
       inkscape:connector-curvature="0"
       id="path3787-4-06"
       d="m -1265.1429,-926.06639 345.71431,351.42857"
       style="fill:url(#linearGradient6204);fill-opacity:1;stroke:#ffbd00;stroke-width:8;stroke-linecap:butt;stroke-linejoin:miter;stroke-miterlimit:4;stroke-opacity:1;stroke-dasharray:none" />
    <path
       inkscape:connector-curvature="0"
       id="path3787-4-2-1"
       d="m -1163.1429,-916.06639 345.71431,351.42857"
       style="fill:url(#linearGradient3939-4);fill-opacity:1;stroke:#ffbd00;stroke-width:8;stroke-linecap:butt;stroke-linejoin:miter;stroke-miterlimit:4;stroke-opacity:1;stroke-dasharray:none" />
    <path
       inkscape:connector-curvature="0"
       id="path3787-4-0-8"
       d="m -1064.9192,-925.84267 360.98121,375.26684"
       style="fill:url(#linearGradient3939-6-0);fill-opacity:1;stroke:#ffbd00;stroke-width:8.44744015;stroke-linecap:butt;stroke-linejoin:miter;stroke-miterlimit:4;stroke-opacity:1;stroke-dasharray:none" />
    <path
       inkscape:connector-curvature="0"
       id="path3787-4-6-9"
       d="m -964.75016,-925.67368 384.92897,380.64315"
       style="fill:url(#linearGradient3939-0-2);fill-opacity:1;stroke:#ffbd00;stroke-width:8.78540993;stroke-linecap:butt;stroke-linejoin:miter;stroke-miterlimit:4;stroke-opacity:1;stroke-dasharray:none" />
    <path
       inkscape:connector-curvature="0"
       id="path3787-4-66-8"
       d="m -864.96649,-925.89 362.50436,365.36151"
       style="fill:url(#linearGradient3939-60-9);fill-opacity:1;stroke:#ffbd00;stroke-width:8.35277557;stroke-linecap:butt;stroke-linejoin:miter;stroke-miterlimit:4;stroke-opacity:1;stroke-dasharray:none" />
    <path
       inkscape:connector-curvature="0"
       id="path3787-4-88-4"
       d="m -764.84629,-925.76978 375.12116,373.6925"
       style="fill:url(#linearGradient3939-7-3);fill-opacity:1;stroke:#ffbd00;stroke-width:8.59321594;stroke-linecap:butt;stroke-linejoin:miter;stroke-miterlimit:4;stroke-opacity:1;stroke-dasharray:none" />
    <path
       inkscape:connector-curvature="0"
       id="path3787-4-5-1"
       d="m -130.24233,-974.13497 -260.6581,418.42293"
       style="fill:#ffff00;fill-opacity:1;stroke:#ffbd00;stroke-width:8;stroke-linecap:butt;stroke-linejoin:miter;stroke-miterlimit:4;stroke-opacity:1;stroke-dasharray:none;marker-start:url(#Arrow1LstartO);marker-end:none" />
    <path
       inkscape:connector-curvature="0"
       id="path3787-4-2-7-4"
       d="M -98.694427,-844.91915 -502.44833,-562.07076"
       style="fill:#ffff00;fill-opacity:1;stroke:#ffbd00;stroke-width:8;stroke-linecap:butt;stroke-linejoin:miter;stroke-miterlimit:4;stroke-opacity:1;stroke-dasharray:none;marker-start:url(#Arrow1LstartL);marker-end:none" />
    <path
       inkscape:connector-curvature="0"
       id="path3787-4-0-5-3"
       d="m -285.51363,-942.77707 -290.11556,398.56419"
       style="fill:#ffff00;fill-opacity:1;stroke:#ffbd00;stroke-width:8;stroke-linecap:butt;stroke-linejoin:miter;stroke-miterlimit:4;stroke-opacity:1;stroke-dasharray:none;marker-start:url(#Arrow1Lstartx);marker-end:none" />
    <path
       inkscape:connector-curvature="0"
       id="path3787-4-6-4-9"
       d="m -483.37273,-996.87747 -214.39756,443.90786"
       style="fill:#ffff00;fill-opacity:1;stroke:#ffbd00;stroke-width:8;stroke-linecap:butt;stroke-linejoin:miter;stroke-miterlimit:4;stroke-opacity:1;stroke-dasharray:none;marker-start:url(#Arrow1LstartNF);marker-end:none" />
    <path
       inkscape:connector-curvature="0"
       id="path3787-4-66-1-8"
       d="m -551.16199,-969.07777 -271.9617,411.16567"
       style="fill:#ffff00;fill-opacity:1;stroke:#ffbd00;stroke-width:8;stroke-linecap:butt;stroke-linejoin:miter;stroke-miterlimit:4;stroke-opacity:1;stroke-dasharray:none;marker-start:url(#Arrow1LstartW);marker-end:none" />
    <path
       inkscape:connector-curvature="0"
       id="path3787-4-88-2-8"
       d="m -762.23769,-1033.3902 -153.8103,468.36191"
       style="fill:#ffff00;fill-opacity:1;stroke:#ffbd00;stroke-width:8;stroke-linecap:butt;stroke-linejoin:miter;stroke-miterlimit:4;stroke-opacity:1;stroke-dasharray:none;marker-start:url(#Arrow1LstartM);marker-end:none" />
    <path
       inkscape:connector-curvature="0"
       id="path3787-4-8"
       d="m -3208.0002,-977.49494 345.7143,351.4286"
       style="fill:url(#linearGradient6367);fill-opacity:1;stroke:#ffbd00;stroke-width:8;stroke-linecap:butt;stroke-linejoin:miter;stroke-miterlimit:4;stroke-opacity:1;stroke-dasharray:none" />
    <path
       inkscape:connector-curvature="0"
       id="path3787-4-2-9"
       d="m -3107.888,-977.38274 355.49,361.2042"
       style="fill:url(#linearGradient3939-37);fill-opacity:1;stroke:#ffbd00;stroke-width:8.22437382;stroke-linecap:butt;stroke-linejoin:miter;stroke-miterlimit:4;stroke-opacity:1;stroke-dasharray:none" />
    <path
       inkscape:connector-curvature="0"
       id="path3787-4-0-7"
       d="m -3007.1427,-976.63744 425.4279,421.1422"
       style="fill:url(#linearGradient3939-6-5);fill-opacity:1;stroke:#ffbd00;stroke-width:9.71494102;stroke-linecap:butt;stroke-linejoin:miter;stroke-miterlimit:4;stroke-opacity:1;stroke-dasharray:none" />
    <path
       inkscape:connector-curvature="0"
       id="path3787-4-6-2"
       d="m -2907.2552,-976.74994 418.5101,408.51"
       style="fill:url(#linearGradient3939-0-4);fill-opacity:1;stroke:#ffbd00;stroke-width:9.49001789;stroke-linecap:butt;stroke-linejoin:miter;stroke-miterlimit:4;stroke-opacity:1;stroke-dasharray:none" />
    <path
       inkscape:connector-curvature="0"
       id="path3787-4-66-2"
       d="m -2807.912,-977.40674 354.1094,358.395"
       style="fill:url(#linearGradient3939-60-99);fill-opacity:1;stroke:#ffbd00;stroke-width:8.17640591;stroke-linecap:butt;stroke-linejoin:miter;stroke-miterlimit:4;stroke-opacity:1;stroke-dasharray:none" />
    <path
       inkscape:connector-curvature="0"
       id="path3787-4-88-8"
       d="m -2706.8465,-976.34134 454.8357,443.4071"
       style="fill:url(#linearGradient3939-7-9);fill-opacity:1;stroke:#ffbd00;stroke-width:10.30721474;stroke-linecap:butt;stroke-linejoin:miter;stroke-miterlimit:4;stroke-opacity:1;stroke-dasharray:none" />
    <path
       inkscape:connector-curvature="0"
       id="path3787-4-5-2"
       d="m -2114.7673,-1007.367 -137.3226,473.45846"
       style="fill:#ffff00;fill-opacity:1;stroke:#ffbd00;stroke-width:8;stroke-linecap:butt;stroke-linejoin:miter;stroke-miterlimit:4;stroke-opacity:1;stroke-dasharray:none;marker-start:url(#Arrow1LstartO);marker-end:none" />
    <path
       inkscape:connector-curvature="0"
       id="path3787-4-2-7-8"
       d="m -1999.8331,-815.11664 -452.9054,194.672"
       style="fill:#ffff00;fill-opacity:1;stroke:#ffbd00;stroke-width:8;stroke-linecap:butt;stroke-linejoin:miter;stroke-miterlimit:4;stroke-opacity:1;stroke-dasharray:none;marker-start:url(#Arrow1LstartL);marker-end:none" />
    <path
       inkscape:connector-curvature="0"
       id="path3787-4-0-5-9"
       d="m -2618.9558,-1052.9287 128.1971,476.01036"
       style="fill:#ffff00;fill-opacity:1;stroke:#ffbd00;stroke-width:8;stroke-linecap:butt;stroke-linejoin:miter;stroke-miterlimit:4;stroke-opacity:1;stroke-dasharray:none;marker-start:url(#Arrow1Lstartx);marker-end:none" />
    <path
       inkscape:connector-curvature="0"
       id="path3787-4-6-4-0"
       d="m -2181.861,-844.51084 -400.2783,287.7461"
       style="fill:#ffff00;fill-opacity:1;stroke:#ffbd00;stroke-width:8;stroke-linecap:butt;stroke-linejoin:miter;stroke-miterlimit:4;stroke-opacity:1;stroke-dasharray:none;marker-start:url(#Arrow1LstartNF);marker-end:none" />
    <path
       inkscape:connector-curvature="0"
       id="path3787-4-66-1-7"
       d="m -2406.2858,-970.63784 -345.7143,351.4286"
       style="fill:#ffff00;fill-opacity:1;stroke:#ffbd00;stroke-width:8;stroke-linecap:butt;stroke-linejoin:miter;stroke-miterlimit:4;stroke-opacity:1;stroke-dasharray:none;marker-start:url(#Arrow1LstartW);marker-end:none" />
    <path
       inkscape:connector-curvature="0"
       id="path3787-4-88-2-81"
       d="m -2817.2759,-1115.6848 -43.7041,491.02986"
       style="fill:#ffff00;fill-opacity:1;stroke:#ffbd00;stroke-width:8;stroke-linecap:butt;stroke-linejoin:miter;stroke-miterlimit:4;stroke-opacity:1;stroke-dasharray:none;marker-start:url(#Arrow1LstartM);marker-end:none" />
  </g>
</svg>
